Hubballi-Regular-wire-LatinOnly-Decomp-105_96percent.ufo
<glyph name="exclam" format="1">
  <advance width="329"/>
  <unicode hex="0021"/>
  <outline>
    <contour>
      <point x="163" y="264" type="move"/>
      <point x="170" y="556" type="line"/>
    </contour>
    <contour>
      <point x="163" y="66" type="curve" smooth="yes"/>
      <point x="148" y="66"/>
      <point x="143" y="50"/>
      <point x="143" y="35" type="curve" smooth="yes"/>
      <point x="143" y="17"/>
      <point x="153" y="5"/>
      <point x="164" y="5" type="curve" smooth="yes"/>
      <point x="179" y="5"/>
      <point x="184" y="17"/>
      <point x="184" y="35" type="curve" smooth="yes"/>
      <point x="184" y="50"/>
      <point x="178" y="66"/>
    </contour>
  </outline>
</glyph>
<glyph name="quotedbl" format="1">
  <advance width="407"/>
  <unicode hex="0022"/>
  <outline>
    <contour>
      <point x="139" y="572" type="move"/>
      <point x="99" y="388" type="line"/>
    </contour>
    <contour>
      <point x="300" y="572" type="move"/>
      <point x="259" y="388" type="line"/>
    </contour>
  </outline>
</glyph>
<glyph name="numbersign" format="1">
  <advance width="601"/>
  <unicode hex="0023"/>
  <outline>
    <contour>
      <point x="485" y="519" type="move"/>
      <point x="307" y="11" type="line"/>
    </contour>
    <contour>
      <point x="283" y="519" type="move"/>
      <point x="106" y="11" type="line"/>
    </contour>
    <contour>
      <point x="537" y="384" type="move"/>
      <point x="129" y="384" type="line"/>
    </contour>
    <contour>
      <point x="467" y="174" type="move"/>
      <point x="60" y="174" type="line"/>
    </contour>
  </outline>
</glyph>
<glyph name="dollar" format="1">
  <advance width="579"/>
  <unicode hex="0024"/>
  <outline>
    <contour>
      <point x="441" y="495" type="move"/>
      <point x="386" y="515"/>
      <point x="347" y="527"/>
      <point x="267" y="527" type="curve" smooth="yes"/>
      <point x="168" y="527"/>
      <point x="109" y="473"/>
      <point x="109" y="417" type="curve" smooth="yes"/>
      <point x="109" y="365"/>
      <point x="136" y="306"/>
      <point x="291" y="279" type="curve" smooth="yes"/>
      <point x="432" y="251"/>
      <point x="480" y="197"/>
      <point x="480" y="130" type="curve" smooth="yes"/>
      <point x="480" y="63"/>
      <point x="422" y="2"/>
      <point x="290" y="2" type="curve" smooth="yes"/>
      <point x="221" y="2"/>
      <point x="156" y="16"/>
      <point x="95" y="47" type="curve"/>
      <point x="95" y="47"/>
    </contour>
    <contour>
      <point x="286" y="623" type="move"/>
      <point x="286" y="-101" type="line"/>
    </contour>
  </outline>
</glyph>
<glyph name="ampersand" format="1">
  <advance width="639"/>
  <unicode hex="0026"/>
  <outline>
    <contour>
      <point x="524" y="278" type="move"/>
      <point x="438" y="150" type="line" smooth="yes"/>
      <point x="363" y="39"/>
      <point x="308" y="3"/>
      <point x="235" y="3" type="curve" smooth="yes"/>
      <point x="152" y="3"/>
      <point x="93" y="56"/>
      <point x="93" y="126" type="curve" smooth="yes"/>
      <point x="93" y="195"/>
      <point x="127" y="248"/>
      <point x="275" y="311" type="curve" smooth="yes"/>
      <point x="338" y="339"/>
      <point x="367" y="377"/>
      <point x="367" y="427" type="curve" smooth="yes"/>
      <point x="367" y="483"/>
      <point x="321" y="528"/>
      <point x="260" y="528" type="curve" smooth="yes"/>
      <point x="201" y="528"/>
      <point x="156" y="486"/>
      <point x="156" y="423" type="curve" smooth="yes"/>
      <point x="156" y="366"/>
      <point x="197" y="323"/>
      <point x="256" y="268" type="curve" smooth="yes"/>
      <point x="540" y="11" type="line"/>
    </contour>
  </outline>
</glyph>
<glyph name="parenleft" format="1">
  <advance width="338"/>
  <unicode hex="0028"/>
  <outline>
    <contour>
      <point x="235" y="620" type="move"/>
      <point x="159" y="533"/>
      <point x="98" y="399"/>
      <point x="98" y="259" type="curve" smooth="yes"/>
      <point x="98" y="120"/>
      <point x="156" y="-7"/>
      <point x="235" y="-93" type="curve"/>
    </contour>
  </outline>
</glyph>
<glyph name="asterisk" format="1">
  <advance width="435"/>
  <unicode hex="002A"/>
  <outline>
    <contour>
      <point x="217" y="544" type="move"/>
      <point x="217" y="284" type="line"/>
    </contour>
    <contour>
      <point x="100" y="483" type="move"/>
      <point x="335" y="340" type="line"/>
    </contour>
    <contour>
      <point x="100" y="340" type="move"/>
      <point x="335" y="483" type="line"/>
    </contour>
  </outline>
</glyph>
<glyph name="comma" format="1">
  <advance width="232"/>
  <unicode hex="002C"/>
  <outline>
    <contour>
      <point x="111" y="81" type="move"/>
      <point x="115" y="69"/>
      <point x="117" y="50"/>
      <point x="117" y="30" type="curve" smooth="yes"/>
      <point x="117" y="-18"/>
      <point x="101" y="-67"/>
      <point x="75" y="-103" type="curve"/>
    </contour>
  </outline>
</glyph>
<glyph name="period" format="1">
  <advance width="227"/>
  <unicode hex="002E"/>
  <outline>
    <contour>
      <point x="114" y="77" type="curve" smooth="yes"/>
      <point x="99" y="77"/>
      <point x="94" y="62"/>
      <point x="94" y="47" type="curve" smooth="yes"/>
      <point x="94" y="29"/>
      <point x="103" y="17"/>
      <point x="115" y="17" type="curve" smooth="yes"/>
      <point x="129" y="17"/>
      <point x="135" y="29"/>
      <point x="135" y="47" type="curve" smooth="yes"/>
      <point x="135" y="62"/>
      <point x="128" y="77"/>
    </contour>
  </outline>
</glyph>
<glyph name="zero" format="1">
  <advance width="570"/>
  <unicode hex="0030"/>
  <outline>
    <contour>
      <point x="286" y="529" type="curve" smooth="yes"/>
      <point x="167" y="529"/>
      <point x="84" y="419"/>
      <point x="84" y="265" type="curve" smooth="yes"/>
      <point x="84" y="123"/>
      <point x="169" y="2"/>
      <point x="286" y="2" type="curve" smooth="yes"/>
      <point x="414" y="2"/>
      <point x="485" y="123"/>
      <point x="485" y="267" type="curve" smooth="yes"/>
      <point x="485" y="419"/>
      <point x="396" y="529"/>
    </contour>
  </outline>
</glyph>
<glyph name="two" format="1">
  <advance width="512"/>
  <unicode hex="0032"/>
  <outline>
    <contour>
      <point x="86" y="20" type="move"/>
      <point x="254" y="187" type="line" smooth="yes"/>
      <point x="364" y="296"/>
      <point x="398" y="345"/>
      <point x="398" y="410" type="curve" smooth="yes"/>
      <point x="398" y="471"/>
      <point x="353" y="529"/>
      <point x="260" y="529" type="curve" smooth="yes"/>
      <point x="207" y="529"/>
      <point x="156" y="514"/>
      <point x="108" y="483" type="curve"/>
    </contour>
    <contour>
      <point x="431" y="11" type="move"/>
      <point x="77" y="11" type="line"/>
    </contour>
  </outline>
</glyph>
<glyph name="three" format="1">
  <advance width="516"/>
  <unicode hex="0033"/>
  <outline>
    <contour>
      <point x="116" y="520" type="move"/>
      <point x="416" y="520" type="line"/>
    </contour>
    <contour>
      <point x="99" y="39" type="move"/>
      <point x="141" y="20"/>
      <point x="195" y="7"/>
      <point x="257" y="7" type="curve" smooth="yes"/>
      <point x="374" y="7"/>
      <point x="430" y="68"/>
      <point x="430" y="150" type="curve" smooth="yes"/>
      <point x="430" y="230"/>
      <point x="370" y="286"/>
      <point x="268" y="286" type="curve" smooth="yes"/>
      <point x="221" y="286"/>
      <point x="182" y="278"/>
      <point x="160" y="270" type="curve"/>
    </contour>
    <contour>
      <point x="406" y="512" type="move"/>
      <point x="165" y="275" type="line" smooth="yes"/>
    </contour>
  </outline>
</glyph>
<glyph name="five" format="1">
  <advance width="525"/>
  <unicode hex="0035"/>
  <outline>
    <contour>
      <point x="145" y="520" type="move"/>
      <point x="404" y="520" type="line"/>
    </contour>
    <contour>
      <point x="97" y="44" type="move"/>
      <point x="140" y="23"/>
      <point x="202" y="7"/>
      <point x="268" y="7" type="curve" smooth="yes"/>
      <point x="383" y="7"/>
      <point x="436" y="75"/>
      <point x="436" y="162" type="curve" smooth="yes"/>
      <point x="436" y="244"/>
      <point x="374" y="305"/>
      <point x="273" y="305" type="curve" smooth="yes"/>
      <point x="205" y="305"/>
      <point x="157" y="287"/>
      <point x="125" y="271" type="curve"/>
    </contour>
    <contour>
      <point x="144" y="513" type="move"/>
      <point x="125" y="277" type="line" smooth="yes"/>
    </contour>
  </outline>
</glyph>
<glyph name="six" format="1">
  <advance width="543"/>
  <unicode hex="0036"/>
  <outline>
    <contour>
      <point x="391" y="515" type="move"/>
      <point x="364" y="524"/>
      <point x="342" y="529"/>
      <point x="308" y="529" type="curve" smooth="yes"/>
      <point x="177" y="529"/>
      <point x="96" y="422"/>
      <point x="96" y="248" type="curve" smooth="yes"/>
      <point x="96" y="87"/>
      <point x="175" y="7"/>
      <point x="287" y="7" type="curve" smooth="yes"/>
      <point x="407" y="7"/>
      <point x="456" y="88"/>
      <point x="456" y="166" type="curve" smooth="yes"/>
      <point x="456" y="252"/>
      <point x="396" y="311"/>
      <point x="307" y="311" type="curve" smooth="yes"/>
      <point x="217" y="311"/>
      <point x="142" y="247"/>
      <point x="112" y="134" type="curve"/>
    </contour>
  </outline>
</glyph>
<glyph name="seven" format="1">
  <advance width="469"/>
  <unicode hex="0037"/>
  <outline>
    <contour>
      <point x="415" y="519" type="move"/>
      <point x="376" y="445"/>
      <point x="273" y="299"/>
      <point x="243" y="245" type="curve" smooth="yes"/>
      <point x="216" y="194"/>
      <point x="194" y="131"/>
      <point x="194" y="69" type="curve" smooth="yes"/>
      <point x="194" y="11" type="line"/>
    </contour>
    <contour>
      <point x="407" y="520" type="move"/>
      <point x="61" y="520" type="line"/>
    </contour>
  </outline>
</glyph>
<glyph name="eight" format="1">
  <advance width="563"/>
  <unicode hex="0038"/>
  <outline>
    <contour>
      <point x="282" y="286" type="curve" smooth="yes"/>
      <point x="163" y="286"/>
      <point x="96" y="229"/>
      <point x="96" y="143" type="curve" smooth="yes"/>
      <point x="96" y="67"/>
      <point x="157" y="3"/>
      <point x="282" y="3" type="curve" smooth="yes"/>
      <point x="416" y="3"/>
      <point x="467" y="67"/>
      <point x="467" y="144" type="curve" smooth="yes"/>
      <point x="467" y="229"/>
      <point x="395" y="286"/>
    </contour>
    <contour>
      <point x="282" y="528" type="curve" smooth="yes"/>
      <point x="180" y="528"/>
      <point x="122" y="481"/>
      <point x="122" y="409" type="curve" smooth="yes"/>
      <point x="122" y="341"/>
      <point x="172" y="286"/>
      <point x="282" y="286" type="curve" smooth="yes"/>
      <point x="388" y="286"/>
      <point x="441" y="341"/>
      <point x="441" y="409" type="curve" smooth="yes"/>
      <point x="441" y="481"/>
      <point x="379" y="528"/>
    </contour>
  </outline>
</glyph>
<glyph name="nine" format="1">
  <advance width="540"/>
  <unicode hex="0039"/>
  <outline>
    <contour>
      <point x="153" y="21" type="move"/>
      <point x="179" y="14"/>
      <point x="202" y="8"/>
      <point x="235" y="8" type="curve" smooth="yes"/>
      <point x="375" y="8"/>
      <point x="444" y="102"/>
      <point x="444" y="268" type="curve" smooth="yes"/>
      <point x="444" y="434"/>
      <point x="368" y="529"/>
      <point x="253" y="529" type="curve" smooth="yes"/>
      <point x="141" y="529"/>
      <point x="87" y="450"/>
      <point x="87" y="372" type="curve" smooth="yes"/>
      <point x="87" y="274"/>
      <point x="144" y="219"/>
      <point x="244" y="219" type="curve" smooth="yes"/>
      <point x="337" y="219"/>
      <point x="394" y="270"/>
      <point x="438" y="346" type="curve"/>
    </contour>
  </outline>
</glyph>
<glyph name="colon" format="1">
  <advance width="253"/>
  <unicode hex="003A"/>
  <outline>
    <contour>
      <point x="126" y="71" type="curve" smooth="yes"/>
      <point x="111" y="71"/>
      <point x="106" y="55"/>
      <point x="106" y="40" type="curve" smooth="yes"/>
      <point x="106" y="22"/>
      <point x="115" y="10"/>
      <point x="127" y="10" type="curve" smooth="yes"/>
      <point x="141" y="10"/>
      <point x="147" y="22"/>
      <point x="147" y="40" type="curve" smooth="yes"/>
      <point x="147" y="55"/>
      <point x="140" y="71"/>
    </contour>
    <contour>
      <point x="126" y="354" type="curve" smooth="yes"/>
      <point x="111" y="354"/>
      <point x="106" y="338"/>
      <point x="106" y="324" type="curve" smooth="yes"/>
      <point x="106" y="306"/>
      <point x="115" y="293"/>
      <point x="127" y="293" type="curve" smooth="yes"/>
      <point x="141" y="293"/>
      <point x="147" y="306"/>
      <point x="147" y="324" type="curve" smooth="yes"/>
      <point x="147" y="338"/>
      <point x="140" y="354"/>
    </contour>
  </outline>
</glyph>
<glyph name="semicolon" format="1">
  <advance width="232"/>
  <unicode hex="003B"/>
  <outline>
    <contour>
      <point x="111" y="75" type="move"/>
      <point x="115" y="62"/>
      <point x="117" y="43"/>
      <point x="117" y="23" type="curve" smooth="yes"/>
      <point x="117" y="-25"/>
      <point x="101" y="-73"/>
      <point x="75" y="-110" type="curve"/>
    </contour>
    <contour>
      <point x="114" y="357" type="curve" smooth="yes"/>
      <point x="99" y="357"/>
      <point x="94" y="341"/>
      <point x="94" y="327" type="curve" smooth="yes"/>
      <point x="94" y="309"/>
      <point x="103" y="296"/>
      <point x="115" y="296" type="curve" smooth="yes"/>
      <point x="129" y="296"/>
      <point x="135" y="309"/>
      <point x="135" y="327" type="curve" smooth="yes"/>
      <point x="135" y="341"/>
      <point x="128" y="357"/>
    </contour>
  </outline>
</glyph>
<glyph name="question" format="1">
  <advance width="374"/>
  <unicode hex="003F"/>
  <outline>
    <contour>
      <point x="69" y="493" type="move"/>
      <point x="105" y="516"/>
      <point x="139" y="529"/>
      <point x="196" y="529" type="curve" smooth="yes"/>
      <point x="276" y="529"/>
      <point x="320" y="479"/>
      <point x="320" y="422" type="curve" smooth="yes"/>
      <point x="320" y="370"/>
      <point x="281" y="332"/>
      <point x="232" y="306" type="curve" smooth="yes"/>
      <point x="178" y="276"/>
      <point x="162" y="255"/>
      <point x="159" y="202" type="curve"/>
    </contour>
    <contour>
      <point x="164" y="66" type="curve" smooth="yes"/>
      <point x="149" y="66"/>
      <point x="144" y="51"/>
      <point x="144" y="36" type="curve" smooth="yes"/>
      <point x="144" y="18"/>
      <point x="154" y="6"/>
      <point x="165" y="6" type="curve" smooth="yes"/>
      <point x="180" y="6"/>
      <point x="185" y="18"/>
      <point x="185" y="36" type="curve" smooth="yes"/>
      <point x="185" y="51"/>
      <point x="179" y="66"/>
    </contour>
  </outline>
</glyph>
<glyph name="at" format="1">
  <advance width="670"/>
  <unicode hex="0040"/>
  <outline>
    <contour>
      <point x="425" y="386" type="move"/>
      <point x="425" y="249" type="line" smooth="yes"/>
      <point x="425" y="185"/>
      <point x="463" y="147"/>
      <point x="508" y="147" type="curve" smooth="yes"/>
      <point x="559" y="147"/>
      <point x="596" y="194"/>
      <point x="596" y="275" type="curve" smooth="yes"/>
      <point x="596" y="408"/>
      <point x="501" y="531"/>
      <point x="339" y="531" type="curve" smooth="yes"/>
      <point x="187" y="531"/>
      <point x="77" y="408"/>
      <point x="77" y="261" type="curve" smooth="yes"/>
      <point x="77" y="114"/>
      <point x="184" y="0"/>
      <point x="342" y="0" type="curve" smooth="yes"/>
      <point x="404" y="0"/>
      <point x="457" y="15"/>
      <point x="496" y="33" type="curve"/>
    </contour>
    <contour>
      <point x="425" y="357" type="move"/>
      <point x="399" y="375"/>
      <point x="371" y="386"/>
      <point x="334" y="386" type="curve" smooth="yes"/>
      <point x="274" y="386"/>
      <point x="222" y="337"/>
      <point x="222" y="257" type="curve" smooth="yes"/>
      <point x="222" y="188"/>
      <point x="267" y="148"/>
      <point x="316" y="148" type="curve" smooth="yes"/>
      <point x="356" y="148"/>
      <point x="396" y="173"/>
      <point x="424" y="223" type="curve"/>
    </contour>
  </outline>
</glyph>
<glyph name="A" format="1">
  <advance width="585"/>
  <unicode hex="0041"/>
  <outline>
    <contour>
      <point x="283" y="529" type="move"/>
      <point x="215" y="369"/>
      <point x="119" y="143"/>
      <point x="74" y="11" type="curve"/>
    </contour>
    <contour>
      <point x="289" y="529" type="move"/>
      <point x="362" y="368"/>
      <point x="461" y="140"/>
      <point x="509" y="11" type="curve"/>
    </contour>
    <contour>
      <point x="143" y="163" type="move"/>
      <point x="437" y="163" type="line"/>
    </contour>
  </outline>
</glyph>
<glyph name="B" format="1">
  <advance width="532"/>
  <unicode hex="0042"/>
  <outline>
    <contour>
      <point x="133" y="284" type="move"/>
      <point x="283" y="284" type="line" smooth="yes"/>
      <point x="336" y="284"/>
      <point x="383" y="265"/>
      <point x="411" y="236" type="curve" smooth="yes"/>
      <point x="437" y="209"/>
      <point x="448" y="179"/>
      <point x="448" y="144" type="curve" smooth="yes"/>
      <point x="448" y="113"/>
      <point x="438" y="81"/>
      <point x="415" y="57" type="curve" smooth="yes"/>
      <point x="388" y="30"/>
      <point x="348" y="11"/>
      <point x="280" y="11" type="curve" smooth="yes"/>
      <point x="124" y="11" type="line"/>
      <point x="124" y="520" type="line"/>
      <point x="264" y="520" type="line" smooth="yes"/>
      <point x="315" y="520"/>
      <point x="348" y="503"/>
      <point x="370" y="481" type="curve" smooth="yes"/>
      <point x="388" y="462"/>
      <point x="400" y="431"/>
      <point x="400" y="404" type="curve" smooth="yes"/>
      <point x="400" y="373"/>
      <point x="388" y="344"/>
      <point x="370" y="325" type="curve" smooth="yes"/>
      <point x="351" y="306"/>
      <point x="317" y="287"/>
      <point x="276" y="284" type="curve"/>
    </contour>
  </outline>
</glyph>
<glyph name="C" format="1">
  <advance width="570"/>
  <unicode hex="0043"/>
  <outline>
    <contour>
      <point x="474" y="499" type="move"/>
      <point x="441" y="518"/>
      <point x="390" y="530"/>
      <point x="337" y="530" type="curve" smooth="yes"/>
      <point x="203" y="530"/>
      <point x="86" y="422"/>
      <point x="86" y="262" type="curve" smooth="yes"/>
      <point x="86" y="115"/>
      <point x="180" y="1"/>
      <point x="343" y="1" type="curve" smooth="yes"/>
      <point x="396" y="1"/>
      <point x="442" y="13"/>
      <point x="479" y="33" type="curve"/>
    </contour>
  </outline>
</glyph>
<glyph name="D" format="1">
  <advance width="617"/>
  <unicode hex="0044"/>
  <outline>
    <contour>
      <point x="301" y="11" type="line" smooth="yes"/>
      <point x="441" y="11"/>
      <point x="530" y="124"/>
      <point x="530" y="266" type="curve" smooth="yes"/>
      <point x="530" y="415"/>
      <point x="422" y="520"/>
      <point x="301" y="520" type="curve" smooth="yes"/>
      <point x="124" y="520" type="line"/>
      <point x="124" y="11" type="line"/>
    </contour>
  </outline>
</glyph>
<glyph name="F" format="1">
  <advance width="479"/>
  <unicode hex="0046"/>
  <outline>
    <contour>
      <point x="124" y="520" type="move"/>
      <point x="124" y="11" type="line"/>
    </contour>
    <contour>
      <point x="132" y="520" type="move"/>
      <point x="411" y="520" type="line"/>
    </contour>
    <contour>
      <point x="132" y="265" type="move"/>
      <point x="360" y="265" type="line"/>
    </contour>
  </outline>
</glyph>
<glyph name="G" format="1">
  <advance width="623"/>
  <unicode hex="0047"/>
  <outline>
    <contour>
      <point x="485" y="501" type="move"/>
      <point x="443" y="518"/>
      <point x="395" y="530"/>
      <point x="338" y="530" type="curve" smooth="yes"/>
      <point x="193" y="530"/>
      <point x="86" y="422"/>
      <point x="86" y="262" type="curve" smooth="yes"/>
      <point x="86" y="117"/>
      <point x="178" y="1"/>
      <point x="335" y="1" type="curve" smooth="yes"/>
      <point x="412" y="1"/>
      <point x="468" y="22"/>
      <point x="516" y="53" type="curve"/>
      <point x="516" y="53"/>
    </contour>
    <contour>
      <point x="516" y="63" type="move"/>
      <point x="516" y="246" type="line"/>
    </contour>
    <contour>
      <point x="505" y="246" type="move"/>
      <point x="350" y="246" type="line"/>
    </contour>
  </outline>
</glyph>
<glyph name="J" format="1">
  <advance width="392"/>
  <unicode hex="004A"/>
  <outline>
    <contour>
      <point x="72" y="22" type="move"/>
      <point x="101" y="8"/>
      <point x="132" y="2"/>
      <point x="161" y="2" type="curve" smooth="yes"/>
      <point x="240" y="2"/>
      <point x="280" y="55"/>
      <point x="280" y="160" type="curve" smooth="yes"/>
      <point x="280" y="520" type="line"/>
    </contour>
  </outline>
</glyph>
<glyph name="K" format="1">
  <advance width="562"/>
  <unicode hex="004B"/>
  <outline>
    <contour>
      <point x="124" y="520" type="move"/>
      <point x="124" y="11" type="line"/>
    </contour>
    <contour>
      <point x="249" y="303" type="move"/>
      <point x="306" y="230"/>
      <point x="427" y="77"/>
      <point x="483" y="11" type="curve"/>
    </contour>
    <contour>
      <point x="124" y="187" type="move"/>
      <point x="173" y="233"/>
      <point x="362" y="410"/>
      <point x="463" y="520" type="curve"/>
    </contour>
  </outline>
</glyph>
<glyph name="M" format="1">
  <advance width="827"/>
  <unicode hex="004D"/>
  <outline>
    <contour>
      <point x="175" y="529" type="move"/>
      <point x="150" y="379"/>
      <point x="118" y="130"/>
      <point x="106" y="9" type="curve"/>
    </contour>
    <contour>
      <point x="637" y="530" type="move"/>
      <point x="668" y="367"/>
      <point x="702" y="149"/>
      <point x="720" y="9" type="curve"/>
    </contour>
    <contour>
      <point x="186" y="516" type="move"/>
      <point x="249" y="382"/>
      <point x="344" y="176"/>
      <point x="411" y="29" type="curve"/>
    </contour>
    <contour>
      <point x="415" y="41" type="move"/>
      <point x="475" y="184"/>
      <point x="556" y="369"/>
      <point x="630" y="522" type="curve"/>
    </contour>
  </outline>
</glyph>
<glyph name="N" format="1">
  <advance width="640"/>
  <unicode hex="004E"/>
  <outline>
    <contour>
      <point x="124" y="520" type="move"/>
      <point x="124" y="11" type="line"/>
    </contour>
    <contour>
      <point x="516" y="520" type="move"/>
      <point x="516" y="11" type="line"/>
    </contour>
    <contour>
      <point x="130" y="520" type="move"/>
      <point x="205" y="415"/>
      <point x="402" y="161"/>
      <point x="510" y="11" type="curve"/>
    </contour>
  </outline>
</glyph>
<glyph name="O" format="1">
  <advance width="645"/>
  <unicode hex="004F"/>
  <outline>
    <contour>
      <point x="324" y="530" type="curve" smooth="yes"/>
      <point x="182" y="530"/>
      <point x="86" y="420"/>
      <point x="86" y="262" type="curve" smooth="yes"/>
      <point x="86" y="117"/>
      <point x="184" y="1"/>
      <point x="324" y="1" type="curve" smooth="yes"/>
      <point x="472" y="1"/>
      <point x="559" y="117"/>
      <point x="559" y="265" type="curve" smooth="yes"/>
      <point x="559" y="420"/>
      <point x="455" y="530"/>
    </contour>
  </outline>
</glyph>
<glyph name="Q" format="1">
  <advance width="645"/>
  <unicode hex="0051"/>
  <outline>
    <contour>
      <point x="321" y="2" type="move"/>
      <point x="340" y="-75"/>
      <point x="409" y="-136"/>
      <point x="516" y="-136" type="curve"/>
    </contour>
    <contour>
      <point x="324" y="533" type="curve" smooth="yes"/>
      <point x="182" y="533"/>
      <point x="86" y="424"/>
      <point x="86" y="265" type="curve" smooth="yes"/>
      <point x="86" y="120"/>
      <point x="184" y="5"/>
      <point x="324" y="5" type="curve" smooth="yes"/>
      <point x="472" y="5"/>
      <point x="559" y="120"/>
      <point x="559" y="268" type="curve" smooth="yes"/>
      <point x="559" y="424"/>
      <point x="455" y="533"/>
    </contour>
  </outline>
</glyph>
<glyph name="R" format="1">
  <advance width="545"/>
  <unicode hex="0052"/>
  <outline>
    <contour>
      <point x="140" y="220" type="move"/>
      <point x="273" y="220" type="line" smooth="yes"/>
      <point x="384" y="220"/>
      <point x="440" y="288"/>
      <point x="440" y="370" type="curve" smooth="yes"/>
      <point x="440" y="458"/>
      <point x="373" y="520"/>
      <point x="273" y="520" type="curve" smooth="yes"/>
      <point x="124" y="520" type="line"/>
      <point x="124" y="11" type="line"/>
    </contour>
    <contour>
      <point x="301" y="214" type="move"/>
      <point x="468" y="11" type="line"/>
    </contour>
  </outline>
</glyph>
<glyph name="S" format="1">
  <advance width="529"/>
  <unicode hex="0053"/>
  <outline>
    <contour>
      <point x="396" y="495" type="move"/>
      <point x="348" y="515"/>
      <point x="315" y="527"/>
      <point x="245" y="527" type="curve" smooth="yes"/>
      <point x="159" y="527"/>
      <point x="108" y="473"/>
      <point x="108" y="417" type="curve" smooth="yes"/>
      <point x="108" y="365"/>
      <point x="132" y="306"/>
      <point x="266" y="279" type="curve" smooth="yes"/>
      <point x="389" y="250"/>
      <point x="430" y="197"/>
      <point x="430" y="130" type="curve" smooth="yes"/>
      <point x="430" y="62"/>
      <point x="380" y="2"/>
      <point x="265" y="2" type="curve" smooth="yes"/>
      <point x="204" y="2"/>
      <point x="147" y="16"/>
      <point x="95" y="47" type="curve"/>
    </contour>
  </outline>
</glyph>
<glyph name="U" format="1">
  <advance width="621"/>
  <unicode hex="0055"/>
  <outline>
    <contour>
      <point x="112" y="520" type="move"/>
      <point x="112" y="210" type="line" smooth="yes"/>
      <point x="112" y="76"/>
      <point x="193" y="2"/>
      <point x="308" y="2" type="curve" smooth="yes"/>
      <point x="437" y="2"/>
      <point x="509" y="76"/>
      <point x="509" y="213" type="curve" smooth="yes"/>
      <point x="509" y="520" type="line"/>
    </contour>
  </outline>
</glyph>
<glyph name="W" format="1">
  <advance width="904"/>
  <unicode hex="0057"/>
  <outline>
    <contour>
      <point x="92" y="519" type="move"/>
      <point x="126" y="389"/>
      <point x="227" y="86"/>
      <point x="262" y="8" type="curve"/>
    </contour>
    <contour>
      <point x="266" y="2" type="move"/>
      <point x="303" y="90"/>
      <point x="409" y="368"/>
      <point x="452" y="516" type="curve"/>
    </contour>
    <contour>
      <point x="457" y="504" type="move"/>
      <point x="495" y="376"/>
      <point x="599" y="85"/>
      <point x="636" y="7" type="curve"/>
    </contour>
    <contour>
      <point x="639" y="1" type="move"/>
      <point x="677" y="89"/>
      <point x="772" y="369"/>
      <point x="813" y="519" type="curve"/>
    </contour>
  </outline>
</glyph>
<glyph name="X" format="1">
  <advance width="567"/>
  <unicode hex="0058"/>
  <outline>
    <contour>
      <point x="99" y="520" type="move"/>
      <point x="196" y="373"/>
      <point x="423" y="99"/>
      <point x="483" y="11" type="curve"/>
    </contour>
    <contour>
      <point x="85" y="11" type="move"/>
      <point x="165" y="123"/>
      <point x="376" y="380"/>
      <point x="463" y="520" type="curve"/>
    </contour>
  </outline>
</glyph>
<glyph name="Y" format="1">
  <advance width="564"/>
  <unicode hex="0059"/>
  <outline>
    <contour>
      <point x="284" y="187" type="move"/>
      <point x="284" y="11" type="line"/>
    </contour>
    <contour>
      <point x="75" y="520" type="move"/>
      <point x="117" y="447"/>
      <point x="238" y="260"/>
      <point x="281" y="200" type="curve"/>
    </contour>
    <contour>
      <point x="284" y="194" type="move"/>
      <point x="334" y="263"/>
      <point x="448" y="448"/>
      <point x="490" y="520" type="curve"/>
    </contour>
  </outline>
</glyph>
<glyph name="Z" format="1">
  <advance width="567"/>
  <unicode hex="005A"/>
  <outline>
    <contour>
      <point x="466" y="520" type="move"/>
      <point x="402" y="420"/>
      <point x="147" y="105"/>
      <point x="94" y="19" type="curve"/>
    </contour>
    <contour>
      <point x="103" y="520" type="move"/>
      <point x="455" y="520" type="line"/>
    </contour>
    <contour>
      <point x="89" y="11" type="move"/>
      <point x="478" y="11" type="line"/>
    </contour>
  </outline>
</glyph>
<glyph name="bracketright" format="1">
  <advance width="338"/>
  <unicode hex="005D"/>
  <outline>
    <contour>
      <point x="103" y="-85" type="move"/>
      <point x="239" y="-85" type="line"/>
      <point x="239" y="628" type="line"/>
      <point x="103" y="628" type="line"/>
    </contour>
  </outline>
</glyph>
<glyph name="asciicircum" format="1">
  <advance width="494"/>
  <unicode hex="005E"/>
  <outline>
    <contour>
      <point x="243" y="523" type="move"/>
      <point x="195" y="426"/>
      <point x="143" y="326"/>
      <point x="102" y="242" type="curve"/>
    </contour>
    <contour>
      <point x="394" y="242" type="move"/>
      <point x="351" y="326"/>
      <point x="302" y="426"/>
      <point x="252" y="523" type="curve"/>
    </contour>
  </outline>
</glyph>
<glyph name="grave" format="1">
  <advance width="494"/>
  <unicode hex="0060"/>
  <outline>
    <contour>
      <point x="214" y="598" type="move"/>
      <point x="241" y="562"/>
      <point x="258" y="540"/>
      <point x="283" y="499" type="curve"/>
    </contour>
  </outline>
</glyph>
<glyph name="a" format="1">
  <advance width="454"/>
  <unicode hex="0061"/>
  <outline>
    <contour>
      <point x="123" y="357" type="move"/>
      <point x="144" y="364"/>
      <point x="183" y="374"/>
      <point x="217" y="374" type="curve" smooth="yes"/>
      <point x="309" y="374"/>
      <point x="351" y="315"/>
      <point x="351" y="230" type="curve" smooth="yes"/>
      <point x="351" y="134" type="line" smooth="yes"/>
      <point x="351" y="76"/>
      <point x="365" y="43"/>
      <point x="389" y="15" type="curve"/>
    </contour>
    <contour>
      <point x="350" y="218" type="move"/>
      <point x="317" y="219"/>
      <point x="286" y="221"/>
      <point x="257" y="221" type="curve" smooth="yes"/>
      <point x="183" y="221"/>
      <point x="134" y="202"/>
      <point x="104" y="171" type="curve" smooth="yes"/>
      <point x="83" y="150"/>
      <point x="76" y="126"/>
      <point x="76" y="99" type="curve" smooth="yes"/>
      <point x="76" y="62"/>
      <point x="102" y="14"/>
      <point x="174" y="14" type="curve" smooth="yes"/>
      <point x="248" y="14"/>
      <point x="303" y="46"/>
      <point x="351" y="114" type="curve"/>
    </contour>
  </outline>
</glyph>
<glyph name="b" format="1">
  <advance width="509"/>
  <unicode hex="0062"/>
  <outline>
    <contour>
      <point x="111" y="11" type="move"/>
      <point x="111" y="547" type="line"/>
    </contour>
    <contour>
      <point x="111" y="51" type="move"/>
      <point x="159" y="24"/>
      <point x="210" y="10"/>
      <point x="270" y="10" type="curve" smooth="yes"/>
      <point x="367" y="10"/>
      <point x="436" y="80"/>
      <point x="436" y="189" type="curve" smooth="yes"/>
      <point x="436" y="297"/>
      <point x="368" y="369"/>
      <point x="283" y="369" type="curve" smooth="yes"/>
      <point x="221" y="369"/>
      <point x="157" y="323"/>
      <point x="112" y="248" type="curve" smooth="yes"/>
      <point x="82" y="196"/>
    </contour>
  </outline>
</glyph>
<glyph name="c" format="1">
  <advance width="440"/>
  <unicode hex="0063"/>
  <outline>
    <contour>
      <point x="351" y="358" type="move"/>
      <point x="324" y="367"/>
      <point x="291" y="374"/>
      <point x="262" y="374" type="curve" smooth="yes"/>
      <point x="143" y="374"/>
      <point x="75" y="294"/>
      <point x="75" y="185" type="curve" smooth="yes"/>
      <point x="75" y="89"/>
      <point x="141" y="14"/>
      <point x="261" y="14" type="curve" smooth="yes"/>
      <point x="302" y="14"/>
      <point x="336" y="23"/>
      <point x="364" y="34" type="curve"/>
    </contour>
  </outline>
</glyph>
<glyph name="d" format="1">
  <advance width="509"/>
  <unicode hex="0064"/>
  <outline>
    <contour>
      <point x="398" y="307" type="move"/>
      <point x="353" y="346"/>
      <point x="307" y="369"/>
      <point x="247" y="369" type="curve" smooth="yes"/>
      <point x="148" y="369"/>
      <point x="75" y="291"/>
      <point x="75" y="181" type="curve" smooth="yes"/>
      <point x="75" y="77"/>
      <point x="140" y="10"/>
      <point x="226" y="10" type="curve" smooth="yes"/>
      <point x="302" y="10"/>
      <point x="358" y="64"/>
      <point x="397" y="133" type="curve"/>
    </contour>
    <contour>
      <point x="398" y="547" type="move"/>
      <point x="398" y="10" type="line" smooth="yes"/>
    </contour>
  </outline>
</glyph>
<glyph name="i" format="1">
  <advance width="234"/>
  <unicode hex="0069"/>
  <outline>
    <contour>
      <point x="117" y="9" type="move"/>
      <point x="117" y="368" type="line"/>
    </contour>
    <contour>
      <point x="117" y="587" type="curve" smooth="yes"/>
      <point x="105" y="587"/>
      <point x="99" y="573"/>
      <point x="99" y="559" type="curve" smooth="yes"/>
      <point x="99" y="546"/>
      <point x="106" y="534"/>
      <point x="118" y="534" type="curve" smooth="yes"/>
      <point x="129" y="534"/>
      <point x="135" y="546"/>
      <point x="135" y="559" type="curve" smooth="yes"/>
      <point x="135" y="573"/>
      <point x="129" y="587"/>
    </contour>
  </outline>
</glyph>
<glyph name="k" format="1">
  <advance width="472"/>
  <unicode hex="006B"/>
  <outline>
    <contour>
      <point x="111" y="10" type="move"/>
      <point x="111" y="547" type="line"/>
    </contour>
    <contour>
      <point x="236" y="248" type="move"/>
      <point x="398" y="10" type="line"/>
    </contour>
    <contour>
      <point x="385" y="369" type="move"/>
      <point x="113" y="147" type="line"/>
    </contour>
  </outline>
</glyph>
<glyph name="m" format="1">
  <advance width="758"/>
  <unicode hex="006D"/>
  <outline>
    <contour>
      <point x="111" y="14" type="move"/>
      <point x="111" y="374" type="line"/>
    </contour>
    <contour>
      <point x="385" y="14" type="move"/>
      <point x="385" y="235" type="line" smooth="yes"/>
      <point x="385" y="343"/>
      <point x="337" y="374"/>
      <point x="276" y="374" type="curve" smooth="yes"/>
      <point x="218" y="374"/>
      <point x="157" y="332"/>
      <point x="113" y="280" type="curve"/>
    </contour>
    <contour>
      <point x="658" y="14" type="move"/>
      <point x="658" y="235" type="line" smooth="yes"/>
      <point x="658" y="343"/>
      <point x="609" y="374"/>
      <point x="547" y="374" type="curve" smooth="yes"/>
      <point x="490" y="374"/>
      <point x="430" y="332"/>
      <point x="385" y="280" type="curve"/>
    </contour>
  </outline>
</glyph>
<glyph name="n" format="1">
  <advance width="501"/>
  <unicode hex="006E"/>
  <outline>
    <contour>
      <point x="111" y="14" type="move"/>
      <point x="111" y="374" type="line"/>
    </contour>
    <contour>
      <point x="400" y="14" type="move"/>
      <point x="400" y="224" type="line" smooth="yes"/>
      <point x="400" y="335"/>
      <point x="351" y="374"/>
      <point x="287" y="374" type="curve" smooth="yes"/>
      <point x="224" y="374"/>
      <point x="163" y="333"/>
      <point x="115" y="282" type="curve"/>
    </contour>
  </outline>
</glyph>
<glyph name="p" format="1">
  <advance width="507"/>
  <unicode hex="0070"/>
  <outline>
    <contour>
      <point x="111" y="-181" type="move"/>
      <point x="111" y="378" type="line"/>
    </contour>
    <contour>
      <point x="111" y="86" type="move"/>
      <point x="157" y="47"/>
      <point x="213" y="19"/>
      <point x="267" y="19" type="curve" smooth="yes"/>
      <point x="366" y="19"/>
      <point x="434" y="97"/>
      <point x="434" y="199" type="curve" smooth="yes"/>
      <point x="434" y="315"/>
      <point x="361" y="378"/>
      <point x="279" y="378" type="curve" smooth="yes"/>
      <point x="214" y="378"/>
      <point x="157" y="333"/>
      <point x="112" y="266" type="curve"/>
    </contour>
  </outline>
</glyph>
<glyph name="q" format="1">
  <advance width="509"/>
  <unicode hex="0071"/>
  <outline>
    <contour>
      <point x="398" y="378" type="move"/>
      <point x="398" y="-181" type="line" smooth="yes"/>
    </contour>
    <contour>
      <point x="398" y="335" type="move"/>
      <point x="357" y="363"/>
      <point x="311" y="378"/>
      <point x="253" y="378" type="curve" smooth="yes"/>
      <point x="157" y="378"/>
      <point x="75" y="305"/>
      <point x="75" y="183" type="curve" smooth="yes"/>
      <point x="75" y="80"/>
      <point x="147" y="19"/>
      <point x="224" y="19" type="curve" smooth="yes"/>
      <point x="288" y="19"/>
      <point x="351" y="56"/>
      <point x="397" y="133" type="curve"/>
    </contour>
  </outline>
</glyph>
<glyph name="r" format="1">
  <advance width="348"/>
  <unicode hex="0072"/>
  <outline>
    <contour>
      <point x="111" y="14" type="move"/>
      <point x="111" y="374" type="line"/>
    </contour>
    <contour>
      <point x="112" y="236" type="move"/>
      <point x="159" y="313"/>
      <point x="216" y="362"/>
      <point x="304" y="374" type="curve"/>
    </contour>
  </outline>
</glyph>
<glyph name="s" format="1">
  <advance width="454"/>
  <unicode hex="0073"/>
  <outline>
    <contour>
      <point x="339" y="361" type="move"/>
      <point x="309" y="369"/>
      <point x="271" y="377"/>
      <point x="228" y="377" type="curve" smooth="yes"/>
      <point x="135" y="377"/>
      <point x="100" y="332"/>
      <point x="100" y="289" type="curve" smooth="yes"/>
      <point x="100" y="250"/>
      <point x="130" y="215"/>
      <point x="221" y="206" type="curve" smooth="yes"/>
      <point x="261" y="201" type="line" smooth="yes"/>
      <point x="340" y="193"/>
      <point x="372" y="151"/>
      <point x="372" y="105" type="curve" smooth="yes"/>
      <point x="372" y="56"/>
      <point x="335" y="10"/>
      <point x="235" y="10" type="curve" smooth="yes"/>
      <point x="187" y="10"/>
      <point x="138" y="20"/>
      <point x="94" y="40" type="curve"/>
    </contour>
  </outline>
</glyph>
<glyph name="u" format="1">
  <advance width="501"/>
  <unicode hex="0075"/>
  <outline>
    <contour>
      <point x="390" y="374" type="move"/>
      <point x="390" y="14" type="line"/>
    </contour>
    <contour>
      <point x="101" y="374" type="move"/>
      <point x="101" y="164" type="line" smooth="yes"/>
      <point x="101" y="53"/>
      <point x="149" y="14"/>
      <point x="214" y="14" type="curve" smooth="yes"/>
      <point x="277" y="14"/>
      <point x="344" y="66"/>
      <point x="386" y="127" type="curve"/>
    </contour>
  </outline>
</glyph>
<glyph name="w" format="1">
  <advance width="705"/>
  <unicode hex="0077"/>
  <outline>
    <contour>
      <point x="74" y="373" type="move"/>
      <point x="111" y="233"/>
      <point x="159" y="102"/>
      <point x="201" y="11" type="curve"/>
      <point x="203" y="11" type="line"/>
      <point x="246" y="102"/>
      <point x="315" y="248"/>
      <point x="348" y="362" type="curve"/>
    </contour>
    <contour>
      <point x="356" y="362" type="move"/>
      <point x="403" y="222"/>
      <point x="457" y="101"/>
      <point x="503" y="10" type="curve"/>
      <point x="505" y="10" type="line"/>
      <point x="544" y="101"/>
      <point x="599" y="246"/>
      <point x="632" y="372" type="curve"/>
    </contour>
  </outline>
</glyph>
<glyph name="braceleft" format="1">
  <advance width="416"/>
  <unicode hex="007B"/>
  <outline>
    <contour>
      <point x="313" y="620" type="move"/>
      <point x="293" y="620" type="line" smooth="yes"/>
      <point x="194" y="620"/>
      <point x="133" y="566"/>
      <point x="133" y="507" type="curve" smooth="yes"/>
      <point x="133" y="438"/>
      <point x="201" y="402"/>
      <point x="201" y="341" type="curve" smooth="yes"/>
      <point x="201" y="303"/>
      <point x="166" y="277"/>
      <point x="98" y="266" type="curve"/>
      <point x="98" y="260" type="line"/>
      <point x="166" y="249"/>
      <point x="201" y="223"/>
      <point x="201" y="185" type="curve" smooth="yes"/>
      <point x="201" y="124"/>
      <point x="133" y="88"/>
      <point x="133" y="19" type="curve" smooth="yes"/>
      <point x="133" y="-40"/>
      <point x="194" y="-94"/>
      <point x="293" y="-94" type="curve" smooth="yes"/>
      <point x="313" y="-94" type="line"/>
    </contour>
  </outline>
</glyph>
<glyph name="braceright" format="1">
  <advance width="416"/>
  <unicode hex="007D"/>
  <outline>
    <contour>
      <point x="103" y="620" type="move"/>
      <point x="123" y="620" type="line" smooth="yes"/>
      <point x="222" y="620"/>
      <point x="282" y="566"/>
      <point x="282" y="507" type="curve" smooth="yes"/>
      <point x="282" y="438"/>
      <point x="215" y="402"/>
      <point x="215" y="341" type="curve" smooth="yes"/>
      <point x="215" y="303"/>
      <point x="249" y="277"/>
      <point x="318" y="266" type="curve"/>
      <point x="318" y="260" type="line"/>
      <point x="249" y="249"/>
      <point x="215" y="223"/>
      <point x="215" y="185" type="curve" smooth="yes"/>
      <point x="215" y="124"/>
      <point x="282" y="88"/>
      <point x="282" y="19" type="curve" smooth="yes"/>
      <point x="282" y="-40"/>
      <point x="222" y="-94"/>
      <point x="123" y="-94" type="curve" smooth="yes"/>
      <point x="103" y="-94" type="line"/>
    </contour>
  </outline>
</glyph>
<glyph name="asciitilde" format="1">
  <advance width="617"/>
  <unicode hex="007E"/>
  <outline>
    <contour>
      <point x="114" y="205" type="move"/>
      <point x="149" y="280"/>
      <point x="180" y="319"/>
      <point x="224" y="319" type="curve" smooth="yes"/>
      <point x="260" y="319"/>
      <point x="282" y="292"/>
      <point x="311" y="258" type="curve" smooth="yes"/>
      <point x="343" y="220"/>
      <point x="369" y="197"/>
      <point x="403" y="197" type="curve" smooth="yes"/>
      <point x="451" y="197"/>
      <point x="481" y="237"/>
      <point x="520" y="323" type="curve"/>
    </contour>
  </outline>
</glyph>
<glyph name="exclamdown" format="1">
  <advance width="329"/>
  <unicode hex="00A1"/>
  <outline>
    <contour>
      <point x="163" y="291" type="move"/>
      <point x="170" y="-1" type="line"/>
    </contour>
    <contour>
      <point x="163" y="489" type="curve" smooth="yes"/>
      <point x="148" y="489"/>
      <point x="143" y="505"/>
      <point x="143" y="520" type="curve" smooth="yes"/>
      <point x="143" y="538"/>
      <point x="153" y="550"/>
      <point x="164" y="550" type="curve" smooth="yes"/>
      <point x="179" y="550"/>
      <point x="184" y="538"/>
      <point x="184" y="520" type="curve" smooth="yes"/>
      <point x="184" y="505"/>
      <point x="178" y="489"/>
    </contour>
  </outline>
</glyph>
<glyph name="cent" format="1">
  <advance width="437"/>
  <unicode hex="00A2"/>
  <outline>
    <contour>
      <point x="241" y="519" type="move"/>
      <point x="241" y="11" type="line"/>
    </contour>
    <contour>
      <point x="351" y="419" type="move"/>
      <point x="324" y="428"/>
      <point x="291" y="434"/>
      <point x="262" y="434" type="curve" smooth="yes"/>
      <point x="143" y="434"/>
      <point x="75" y="358"/>
      <point x="75" y="255" type="curve" smooth="yes"/>
      <point x="75" y="163"/>
      <point x="141" y="92"/>
      <point x="261" y="92" type="curve" smooth="yes"/>
      <point x="302" y="92"/>
      <point x="336" y="100"/>
      <point x="364" y="111" type="curve"/>
    </contour>
  </outline>
</glyph>
<glyph name="sterling" format="1">
  <advance width="460"/>
  <unicode hex="00A3"/>
  <outline>
    <contour>
      <point x="66" y="20" type="move"/>
      <point x="144" y="94" type="line" smooth="yes"/>
      <point x="174" y="121"/>
      <point x="195" y="156"/>
      <point x="195" y="186" type="curve" smooth="yes"/>
      <point x="195" y="213"/>
      <point x="180" y="248"/>
      <point x="156" y="277" type="curve" smooth="yes"/>
      <point x="117" y="325"/>
      <point x="93" y="360"/>
      <point x="93" y="411" type="curve" smooth="yes"/>
      <point x="93" y="471"/>
      <point x="136" y="529"/>
      <point x="216" y="529" type="curve" smooth="yes"/>
      <point x="262" y="529"/>
      <point x="304" y="515"/>
      <point x="340" y="492" type="curve"/>
    </contour>
    <contour>
      <point x="373" y="11" type="move"/>
      <point x="57" y="11" type="line"/>
    </contour>
    <contour>
      <point x="62" y="247" type="move"/>
      <point x="364" y="247" type="line"/>
    </contour>
  </outline>
</glyph>
<glyph name="currency" format="1">
  <advance width="525"/>
  <unicode hex="00A4"/>
  <outline>
    <contour>
      <point x="262" y="394" type="curve" smooth="yes"/>
      <point x="163" y="394"/>
      <point x="103" y="316"/>
      <point x="103" y="224" type="curve" smooth="yes"/>
      <point x="103" y="132"/>
      <point x="165" y="60"/>
      <point x="262" y="60" type="curve" smooth="yes"/>
      <point x="359" y="60"/>
      <point x="421" y="131"/>
      <point x="421" y="222" type="curve" smooth="yes"/>
      <point x="421" y="316"/>
      <point x="360" y="394"/>
    </contour>
    <contour>
      <point x="447" y="14" type="move"/>
      <point x="376" y="96" type="line"/>
    </contour>
    <contour>
      <point x="148" y="355" type="move"/>
      <point x="83" y="430" type="line"/>
    </contour>
    <contour>
      <point x="376" y="356" type="move"/>
      <point x="442" y="432" type="line"/>
    </contour>
    <contour>
      <point x="78" y="14" type="move"/>
      <point x="146" y="93" type="line"/>
    </contour>
  </outline>
</glyph>
<glyph name="yen" format="1">
  <advance width="564"/>
  <unicode hex="00A5"/>
  <outline>
    <contour>
      <point x="290" y="265" type="move"/>
      <point x="290" y="11" type="line"/>
    </contour>
    <contour>
      <point x="94" y="520" type="move"/>
      <point x="143" y="447"/>
      <point x="249" y="321"/>
      <point x="287" y="282" type="curve"/>
    </contour>
    <contour>
      <point x="290" y="271" type="move"/>
      <point x="341" y="324"/>
      <point x="434" y="448"/>
      <point x="483" y="520" type="curve"/>
    </contour>
    <contour>
      <point x="114" y="267" type="move"/>
      <point x="465" y="267" type="line"/>
    </contour>
    <contour>
      <point x="114" y="118" type="move"/>
      <point x="465" y="118" type="line"/>
    </contour>
  </outline>
</glyph>
<glyph name="section" format="1">
  <advance width="529"/>
  <unicode hex="00A7"/>
  <outline>
    <contour>
      <point x="396" y="504" type="move"/>
      <point x="348" y="520"/>
      <point x="315" y="529"/>
      <point x="245" y="529" type="curve" smooth="yes"/>
      <point x="159" y="529"/>
      <point x="108" y="485"/>
      <point x="108" y="439" type="curve" smooth="yes"/>
      <point x="108" y="396"/>
      <point x="132" y="347"/>
      <point x="266" y="326" type="curve" smooth="yes"/>
      <point x="389" y="300"/>
      <point x="430" y="256"/>
      <point x="430" y="201" type="curve" smooth="yes"/>
      <point x="430" y="145"/>
      <point x="380" y="100"/>
      <point x="265" y="100" type="curve" smooth="yes"/>
    </contour>
    <contour>
      <point x="235" y="327" type="move" smooth="yes"/>
      <point x="149" y="327"/>
      <point x="98" y="286"/>
      <point x="98" y="222" type="curve" smooth="yes"/>
      <point x="98" y="175"/>
      <point x="121" y="124"/>
      <point x="256" y="100" type="curve" smooth="yes"/>
      <point x="379" y="78"/>
      <point x="420" y="47"/>
      <point x="420" y="-9" type="curve" smooth="yes"/>
      <point x="420" y="-65"/>
      <point x="370" y="-115"/>
      <point x="255" y="-115" type="curve" smooth="yes"/>
      <point x="195" y="-115"/>
      <point x="137" y="-104"/>
      <point x="84" y="-79" type="curve"/>
    </contour>
  </outline>
</glyph>
<glyph name="dieresis" format="1">
  <advance width="494"/>
  <unicode hex="00A8"/>
  <outline>
    <contour>
      <point x="152" y="568" type="curve" smooth="yes"/>
      <point x="140" y="568"/>
      <point x="134" y="555"/>
      <point x="134" y="541" type="curve" smooth="yes"/>
      <point x="134" y="527"/>
      <point x="140" y="516"/>
      <point x="152" y="516" type="curve" smooth="yes"/>
      <point x="161" y="516"/>
      <point x="167" y="527"/>
      <point x="167" y="541" type="curve" smooth="yes"/>
      <point x="167" y="555"/>
      <point x="161" y="568"/>
    </contour>
    <contour>
      <point x="330" y="568" type="curve" smooth="yes"/>
      <point x="320" y="568"/>
      <point x="314" y="555"/>
      <point x="314" y="541" type="curve" smooth="yes"/>
      <point x="314" y="527"/>
      <point x="320" y="516"/>
      <point x="330" y="516" type="curve" smooth="yes"/>
      <point x="341" y="516"/>
      <point x="347" y="527"/>
      <point x="347" y="541" type="curve" smooth="yes"/>
      <point x="347" y="555"/>
      <point x="341" y="568"/>
    </contour>
  </outline>
</glyph>
<glyph name="copyright" format="1">
  <advance width="659"/>
  <unicode hex="00A9"/>
  <outline>
    <contour>
      <point x="408" y="386" type="move"/>
      <point x="391" y="395"/>
      <point x="366" y="403"/>
      <point x="338" y="403" type="curve" smooth="yes"/>
      <point x="269" y="403"/>
      <point x="207" y="346"/>
      <point x="207" y="264" type="curve" smooth="yes"/>
      <point x="207" y="187"/>
      <point x="257" y="128"/>
      <point x="341" y="128" type="curve" smooth="yes"/>
      <point x="368" y="128"/>
      <point x="392" y="135"/>
      <point x="411" y="145" type="curve"/>
    </contour>
    <contour>
      <point x="331" y="530" type="curve" smooth="yes"/>
      <point x="178" y="530"/>
      <point x="75" y="420"/>
      <point x="75" y="262" type="curve" smooth="yes"/>
      <point x="75" y="117"/>
      <point x="180" y="1"/>
      <point x="331" y="1" type="curve" smooth="yes"/>
      <point x="491" y="1"/>
      <point x="584" y="117"/>
      <point x="584" y="265" type="curve" smooth="yes"/>
      <point x="584" y="420"/>
      <point x="471" y="530"/>
    </contour>
  </outline>
</glyph>
<glyph name="ordfeminine" format="1">
  <advance width="447"/>
  <unicode hex="00AA"/>
  <outline>
    <contour>
      <point x="99" y="155" type="move"/>
      <point x="359" y="155" type="line"/>
    </contour>
    <contour>
      <point x="147" y="504" type="move"/>
      <point x="162" y="509"/>
      <point x="187" y="516"/>
      <point x="210" y="516" type="curve" smooth="yes"/>
      <point x="275" y="516"/>
      <point x="303" y="476"/>
      <point x="303" y="418" type="curve" smooth="yes"/>
      <point x="303" y="355" type="line" smooth="yes"/>
      <point x="303" y="317"/>
      <point x="311" y="294"/>
      <point x="327" y="275" type="curve"/>
    </contour>
    <contour>
      <point x="301" y="411" type="move"/>
      <point x="278" y="412"/>
      <point x="258" y="414"/>
      <point x="238" y="414" type="curve" smooth="yes"/>
      <point x="187" y="414"/>
      <point x="156" y="400"/>
      <point x="133" y="380" type="curve" smooth="yes"/>
      <point x="119" y="365"/>
      <point x="115" y="351"/>
      <point x="115" y="332" type="curve" smooth="yes"/>
      <point x="115" y="307"/>
      <point x="133" y="275"/>
      <point x="180" y="275" type="curve" smooth="yes"/>
      <point x="233" y="275"/>
      <point x="270" y="295"/>
      <point x="303" y="342" type="curve"/>
    </contour>
  </outline>
</glyph>
<glyph name="guillemotleft" format="1">
  <advance width="442"/>
  <unicode hex="00AB"/>
  <outline>
    <contour>
      <point x="243" y="189" type="move"/>
      <point x="355" y="31" type="line"/>
    </contour>
    <contour>
      <point x="355" y="352" type="move"/>
      <point x="243" y="194" type="line"/>
    </contour>
    <contour>
      <point x="72" y="189" type="move"/>
      <point x="183" y="31" type="line"/>
    </contour>
    <contour>
      <point x="183" y="352" type="move"/>
      <point x="72" y="194" type="line"/>
    </contour>
  </outline>
</glyph>
<glyph name="logicalnot" format="1">
  <advance width="485"/>
  <unicode hex="00AC"/>
  <outline>
    <contour>
      <point x="109" y="252" type="move"/>
      <point x="375" y="252" type="line"/>
    </contour>
    <contour>
      <point x="375" y="245" type="move"/>
      <point x="375" y="139" type="line"/>
    </contour>
  </outline>
</glyph>
<glyph name="registered" format="1">
  <advance width="564"/>
  <unicode hex="00AE"/>
  <outline>
    <contour>
      <point x="237" y="376" type="move"/>
      <point x="284" y="376" type="line" smooth="yes"/>
      <point x="327" y="376"/>
      <point x="348" y="404"/>
      <point x="348" y="438" type="curve" smooth="yes"/>
      <point x="348" y="474"/>
      <point x="323" y="496"/>
      <point x="284" y="496" type="curve" smooth="yes"/>
      <point x="227" y="496" type="line"/>
      <point x="227" y="312" type="line"/>
    </contour>
    <contour>
      <point x="311" y="369" type="move"/>
      <point x="359" y="312" type="line"/>
    </contour>
    <contour>
      <point x="279" y="609" type="curve" smooth="yes"/>
      <point x="401" y="609"/>
      <point x="485" y="521"/>
      <point x="485" y="403" type="curve" smooth="yes"/>
      <point x="485" y="284"/>
      <point x="400" y="196"/>
      <point x="286" y="196" type="curve" smooth="yes"/>
      <point x="164" y="196"/>
      <point x="85" y="293"/>
      <point x="85" y="406" type="curve" smooth="yes"/>
      <point x="85" y="526"/>
      <point x="164" y="609"/>
    </contour>
  </outline>
</glyph>
<glyph name="degree" format="1">
  <advance width="444"/>
  <unicode hex="00B0"/>
  <outline>
    <contour>
      <point x="221" y="520" type="curve" smooth="yes"/>
      <point x="136" y="520"/>
      <point x="81" y="453"/>
      <point x="81" y="373" type="curve" smooth="yes"/>
      <point x="81" y="295"/>
      <point x="138" y="232"/>
      <point x="222" y="232" type="curve" smooth="yes"/>
      <point x="304" y="232"/>
      <point x="363" y="294"/>
      <point x="363" y="373" type="curve" smooth="yes"/>
      <point x="363" y="456"/>
      <point x="304" y="520"/>
    </contour>
  </outline>
</glyph>
<glyph name="plusminus" format="1">
  <advance width="535"/>
  <unicode hex="00B1"/>
  <outline>
    <contour>
      <point x="97" y="331" type="move"/>
      <point x="437" y="331" type="line"/>
    </contour>
    <contour>
      <point x="267" y="206" type="move"/>
      <point x="267" y="456" type="line"/>
    </contour>
    <contour>
      <point x="97" y="73" type="move"/>
      <point x="437" y="73" type="line"/>
    </contour>
  </outline>
</glyph>
<glyph name="acute" format="1">
  <advance width="494"/>
  <unicode hex="00B4"/>
  <outline>
    <contour>
      <point x="289" y="599" type="move"/>
      <point x="261" y="567"/>
      <point x="234" y="533"/>
      <point x="207" y="501" type="curve"/>
    </contour>
  </outline>
</glyph>
<glyph name="paragraph" format="1">
  <advance width="561"/>
  <unicode hex="00B6"/>
  <outline>
    <contour>
      <point x="437" y="11" type="move"/>
      <point x="437" y="520" type="line"/>
      <point x="247" y="520" type="line" smooth="yes"/>
      <point x="145" y="520"/>
      <point x="78" y="453"/>
      <point x="78" y="358" type="curve" smooth="yes"/>
      <point x="78" y="269"/>
      <point x="133" y="196"/>
      <point x="247" y="196" type="curve" smooth="yes"/>
      <point x="303" y="196" type="line"/>
    </contour>
    <contour>
      <point x="303" y="11" type="move"/>
      <point x="303" y="518" type="line"/>
    </contour>
  </outline>
</glyph>
<glyph name="periodcentered" format="1">
  <advance width="227"/>
  <unicode hex="00B7"/>
  <outline>
    <contour>
      <point x="114" y="248" type="curve" smooth="yes"/>
      <point x="99" y="248"/>
      <point x="94" y="233"/>
      <point x="94" y="218" type="curve" smooth="yes"/>
      <point x="94" y="200"/>
      <point x="103" y="188"/>
      <point x="115" y="188" type="curve" smooth="yes"/>
      <point x="129" y="188"/>
      <point x="135" y="200"/>
      <point x="135" y="218" type="curve" smooth="yes"/>
      <point x="135" y="233"/>
      <point x="128" y="248"/>
    </contour>
  </outline>
</glyph>
<glyph name="cedilla" format="1">
  <advance width="494"/>
  <unicode hex="00B8"/>
  <outline>
    <contour>
      <point x="297" y="-81" type="move"/>
      <point x="269" y="-108"/>
      <point x="218" y="-161"/>
      <point x="195" y="-186" type="curve"/>
    </contour>
  </outline>
</glyph>
<glyph name="ordmasculine" format="1">
  <advance width="442"/>
  <unicode hex="00BA"/>
  <outline>
    <contour>
      <point x="221" y="516" type="curve" smooth="yes"/>
      <point x="149" y="516"/>
      <point x="106" y="460"/>
      <point x="106" y="394" type="curve" smooth="yes"/>
      <point x="106" y="327"/>
      <point x="152" y="276"/>
      <point x="221" y="276" type="curve" smooth="yes"/>
      <point x="290" y="276"/>
      <point x="335" y="327"/>
      <point x="335" y="394" type="curve" smooth="yes"/>
      <point x="335" y="460"/>
      <point x="290" y="516"/>
    </contour>
    <contour>
      <point x="99" y="155" type="move"/>
      <point x="349" y="155" type="line"/>
    </contour>
  </outline>
</glyph>
<glyph name="onequarter" format="1">
  <advance width="720.0"/>
  <unicode hex="00BC"/>
  <outline>
    <contour>
      <point x="496" y="520" type="move"/>
      <point x="210" y="11" type="line"/>
    </contour>
    <contour>
      <point x="560" y="285" type="move"/>
      <point x="560" y="12" type="line"/>
    </contour>
    <contour>
      <point x="556" y="279" type="move"/>
      <point x="400" y="90" type="line"/>
    </contour>
    <contour>
      <point x="405" y="90" type="move"/>
      <point x="622" y="90" type="line"/>
    </contour>
    <contour>
      <point x="204" y="527" type="move"/>
      <point x="204" y="256" type="line"/>
    </contour>
    <contour>
      <point x="204" y="530" type="move"/>
      <point x="121" y="484" type="line"/>
    </contour>
  </outline>
</glyph>
<glyph name="onehalf" format="1">
  <advance width="786"/>
  <unicode hex="00BD"/>
  <outline>
    <contour>
      <point x="496" y="520" type="move"/>
      <point x="210" y="11" type="line"/>
    </contour>
    <contour>
      <point x="204" y="527" type="move"/>
      <point x="204" y="256" type="line"/>
    </contour>
    <contour>
      <point x="204" y="530" type="move"/>
      <point x="121" y="484" type="line"/>
    </contour>
    <contour>
      <point x="475" y="16" type="move"/>
      <point x="564" y="103" type="line" smooth="yes"/>
      <point x="623" y="161"/>
      <point x="641" y="183"/>
      <point x="641" y="217" type="curve" smooth="yes"/>
      <point x="641" y="249"/>
      <point x="617" y="279"/>
      <point x="565" y="279" type="curve" smooth="yes"/>
      <point x="537" y="279"/>
      <point x="513" y="271"/>
      <point x="488" y="254" type="curve"/>
    </contour>
    <contour>
      <point x="660" y="11" type="move"/>
      <point x="469" y="11" type="line"/>
    </contour>
  </outline>
</glyph>
<glyph name="threequarters" format="1">
  <advance width="832"/>
  <unicode hex="00BE"/>
  <outline>
    <contour>
      <point x="590" y="520" type="move"/>
      <point x="305" y="11" type="line"/>
    </contour>
    <contour>
      <point x="654" y="285" type="move"/>
      <point x="654" y="12" type="line"/>
    </contour>
    <contour>
      <point x="650" y="280" type="move"/>
      <point x="495" y="91" type="line"/>
    </contour>
    <contour>
      <point x="500" y="91" type="move"/>
      <point x="717" y="91" type="line"/>
    </contour>
    <contour>
      <point x="137" y="520" type="move"/>
      <point x="310" y="520" type="line"/>
    </contour>
    <contour>
      <point x="127" y="263" type="move"/>
      <point x="152" y="253"/>
      <point x="182" y="246"/>
      <point x="219" y="246" type="curve" smooth="yes"/>
      <point x="286" y="246"/>
      <point x="320" y="279"/>
      <point x="320" y="322" type="curve" smooth="yes"/>
      <point x="320" y="366"/>
      <point x="284" y="395"/>
      <point x="226" y="395" type="curve" smooth="yes"/>
      <point x="198" y="395"/>
      <point x="176" y="391"/>
      <point x="163" y="387" type="curve"/>
    </contour>
    <contour>
      <point x="305" y="516" type="move"/>
      <point x="165" y="389" type="line" smooth="yes"/>
    </contour>
  </outline>
</glyph>
<glyph name="questiondown" format="1">
  <advance width="374"/>
  <unicode hex="00BF"/>
  <outline>
    <contour>
      <point x="315" y="58" type="move"/>
      <point x="279" y="35"/>
      <point x="245" y="22"/>
      <point x="188" y="22" type="curve" smooth="yes"/>
      <point x="108" y="22"/>
      <point x="64" y="72"/>
      <point x="64" y="129" type="curve" smooth="yes"/>
      <point x="64" y="181"/>
      <point x="103" y="219"/>
      <point x="153" y="245" type="curve" smooth="yes"/>
      <point x="206" y="275"/>
      <point x="222" y="296"/>
      <point x="225" y="349" type="curve"/>
    </contour>
    <contour>
      <point x="220" y="485" type="curve" smooth="yes"/>
      <point x="235" y="485"/>
      <point x="240" y="500"/>
      <point x="240" y="515" type="curve" smooth="yes"/>
      <point x="240" y="533"/>
      <point x="230" y="545"/>
      <point x="219" y="545" type="curve" smooth="yes"/>
      <point x="204" y="545"/>
      <point x="199" y="533"/>
      <point x="199" y="515" type="curve" smooth="yes"/>
      <point x="199" y="500"/>
      <point x="205" y="485"/>
    </contour>
  </outline>
</glyph>
<glyph name="Agrave" format="1">
  <advance width="585"/>
  <unicode hex="00C0"/>
  <outline>
    <contour>
      <point x="283" y="524" type="move"/>
      <point x="215" y="363"/>
      <point x="119" y="138"/>
      <point x="74" y="5" type="curve"/>
    </contour>
    <contour>
      <point x="289" y="524" type="move"/>
      <point x="362" y="362"/>
      <point x="461" y="135"/>
      <point x="509" y="5" type="curve"/>
    </contour>
    <contour>
      <point x="143" y="158" type="move"/>
      <point x="437" y="158" type="line"/>
    </contour>
    <contour>
      <point x="173" y="744" type="move"/>
      <point x="208" y="723"/>
      <point x="262" y="681"/>
      <point x="289" y="659" type="curve"/>
    </contour>
  </outline>
</glyph>
<glyph name="Aacute" format="1">
  <advance width="585"/>
  <unicode hex="00C1"/>
  <outline>
    <contour>
      <point x="283" y="524" type="move"/>
      <point x="215" y="364"/>
      <point x="119" y="138"/>
      <point x="74" y="5" type="curve"/>
    </contour>
    <contour>
      <point x="289" y="524" type="move"/>
      <point x="362" y="362"/>
      <point x="461" y="135"/>
      <point x="509" y="5" type="curve"/>
    </contour>
    <contour>
      <point x="143" y="158" type="move"/>
      <point x="437" y="158" type="line"/>
    </contour>
    <contour>
      <point x="402" y="743" type="move"/>
      <point x="356" y="714"/>
      <point x="307" y="682"/>
      <point x="278" y="660" type="curve"/>
    </contour>
  </outline>
</glyph>
<glyph name="Acircumflex" format="1">
  <advance width="585"/>
  <unicode hex="00C2"/>
  <outline>
    <contour>
      <point x="283" y="525" type="move"/>
      <point x="215" y="364"/>
      <point x="119" y="138"/>
      <point x="74" y="6" type="curve"/>
    </contour>
    <contour>
      <point x="289" y="525" type="move"/>
      <point x="362" y="363"/>
      <point x="461" y="135"/>
      <point x="509" y="6" type="curve"/>
    </contour>
    <contour>
      <point x="143" y="158" type="move"/>
      <point x="437" y="158" type="line"/>
    </contour>
    <contour>
      <point x="277" y="720" type="move"/>
      <point x="244" y="695"/>
      <point x="208" y="670"/>
      <point x="180" y="648" type="curve"/>
    </contour>
    <contour>
      <point x="381" y="648" type="move"/>
      <point x="353" y="670"/>
      <point x="319" y="695"/>
      <point x="284" y="720" type="curve"/>
    </contour>
  </outline>
</glyph>
<glyph name="Atilde" format="1">
  <advance width="585"/>
  <unicode hex="00C3"/>
  <outline>
    <contour>
      <point x="283" y="525" type="move"/>
      <point x="215" y="364"/>
      <point x="119" y="139"/>
      <point x="74" y="6" type="curve"/>
    </contour>
    <contour>
      <point x="289" y="525" type="move"/>
      <point x="362" y="363"/>
      <point x="461" y="135"/>
      <point x="509" y="6" type="curve"/>
    </contour>
    <contour>
      <point x="143" y="158" type="move"/>
      <point x="437" y="158" type="line"/>
    </contour>
    <contour>
      <point x="165" y="662" type="move"/>
      <point x="188" y="693"/>
      <point x="210" y="712"/>
      <point x="234" y="712" type="curve" smooth="yes"/>
      <point x="255" y="712"/>
      <point x="274" y="699"/>
      <point x="294" y="683" type="curve" smooth="yes"/>
      <point x="314" y="668"/>
      <point x="331" y="656"/>
      <point x="351" y="656" type="curve" smooth="yes"/>
      <point x="380" y="656"/>
      <point x="401" y="675"/>
      <point x="427" y="711" type="curve"/>
    </contour>
  </outline>
</glyph>
<glyph name="Adieresis" format="1">
  <advance width="585"/>
  <unicode hex="00C4"/>
  <outline>
    <contour>
      <point x="283" y="525" type="move"/>
      <point x="215" y="364"/>
      <point x="119" y="139"/>
      <point x="74" y="6" type="curve"/>
    </contour>
    <contour>
      <point x="289" y="525" type="move"/>
      <point x="362" y="363"/>
      <point x="461" y="136"/>
      <point x="509" y="6" type="curve"/>
    </contour>
    <contour>
      <point x="143" y="159" type="move"/>
      <point x="437" y="159" type="line"/>
    </contour>
    <contour>
      <point x="189" y="703" type="curve" smooth="yes"/>
      <point x="179" y="703"/>
      <point x="172" y="689"/>
      <point x="172" y="675" type="curve" smooth="yes"/>
      <point x="172" y="661"/>
      <point x="179" y="648"/>
      <point x="189" y="648" type="curve" smooth="yes"/>
      <point x="200" y="648"/>
      <point x="205" y="661"/>
      <point x="205" y="675" type="curve" smooth="yes"/>
      <point x="205" y="689"/>
      <point x="200" y="703"/>
    </contour>
    <contour>
      <point x="384" y="703" type="curve" smooth="yes"/>
      <point x="373" y="703"/>
      <point x="367" y="689"/>
      <point x="367" y="675" type="curve" smooth="yes"/>
      <point x="367" y="661"/>
      <point x="373" y="648"/>
      <point x="384" y="648" type="curve" smooth="yes"/>
      <point x="395" y="648"/>
      <point x="400" y="661"/>
      <point x="400" y="675" type="curve" smooth="yes"/>
      <point x="400" y="689"/>
      <point x="395" y="703"/>
    </contour>
  </outline>
</glyph>
<glyph name="Aring" format="1">
  <advance width="585"/>
  <unicode hex="00C5"/>
  <outline>
    <contour>
      <point x="283" y="525" type="move"/>
      <point x="215" y="365"/>
      <point x="119" y="139"/>
      <point x="74" y="7" type="curve"/>
    </contour>
    <contour>
      <point x="289" y="525" type="move"/>
      <point x="362" y="364"/>
      <point x="461" y="136"/>
      <point x="509" y="7" type="curve"/>
    </contour>
    <contour>
      <point x="143" y="159" type="move"/>
      <point x="437" y="159" type="line"/>
    </contour>
    <contour>
      <point x="370" y="608" type="curve" smooth="yes"/>
      <point x="370" y="651"/>
      <point x="337" y="690"/>
      <point x="282" y="690" type="curve" smooth="yes"/>
      <point x="229" y="690"/>
      <point x="198" y="648"/>
      <point x="198" y="608" type="curve" smooth="yes"/>
      <point x="198" y="568"/>
      <point x="229" y="526"/>
      <point x="282" y="526" type="curve" smooth="yes"/>
      <point x="337" y="526"/>
      <point x="370" y="565"/>
    </contour>
  </outline>
</glyph>
<glyph name="AE" format="1">
  <advance width="761"/>
  <unicode hex="00C6"/>
  <outline>
    <contour>
      <point x="357" y="520" type="move"/>
      <point x="253" y="343"/>
      <point x="126" y="143"/>
      <point x="43" y="11" type="curve"/>
    </contour>
    <contour>
      <point x="144" y="163" type="move"/>
      <point x="396" y="163" type="line"/>
    </contour>
    <contour>
      <point x="414" y="520" type="move"/>
      <point x="362" y="520" type="line"/>
    </contour>
    <contour>
      <point x="396" y="520" type="move"/>
      <point x="396" y="11" type="line"/>
    </contour>
    <contour>
      <point x="404" y="11" type="move"/>
      <point x="678" y="11" type="line"/>
    </contour>
    <contour>
      <point x="404" y="520" type="move"/>
      <point x="676" y="520" type="line"/>
    </contour>
    <contour>
      <point x="404" y="285" type="move"/>
      <point x="632" y="285" type="line"/>
    </contour>
  </outline>
</glyph>
<glyph name="Ccedilla" format="1">
  <advance width="570"/>
  <unicode hex="00C7"/>
  <outline>
    <contour>
      <point x="474" y="505" type="move"/>
      <point x="441" y="524"/>
      <point x="390" y="536"/>
      <point x="337" y="536" type="curve" smooth="yes"/>
      <point x="203" y="536"/>
      <point x="86" y="428"/>
      <point x="86" y="268" type="curve" smooth="yes"/>
      <point x="86" y="121"/>
      <point x="180" y="7"/>
      <point x="343" y="7" type="curve" smooth="yes"/>
      <point x="396" y="7"/>
      <point x="442" y="19"/>
      <point x="479" y="39" type="curve"/>
    </contour>
    <contour>
      <point x="336" y="-137" type="move"/>
      <point x="308" y="-164"/>
      <point x="257" y="-217"/>
      <point x="234" y="-242" type="curve"/>
    </contour>
  </outline>
</glyph>
<glyph name="Egrave" format="1">
  <advance width="491"/>
  <unicode hex="00C8"/>
  <outline>
    <contour>
      <point x="124" y="515" type="move"/>
      <point x="124" y="5" type="line"/>
    </contour>
    <contour>
      <point x="132" y="5" type="move"/>
      <point x="405" y="5" type="line"/>
    </contour>
    <contour>
      <point x="132" y="515" type="move"/>
      <point x="403" y="515" type="line"/>
    </contour>
    <contour>
      <point x="132" y="279" type="move"/>
      <point x="360" y="279" type="line"/>
    </contour>
    <contour>
      <point x="157" y="744" type="move"/>
      <point x="194" y="723"/>
      <point x="247" y="681"/>
      <point x="275" y="659" type="curve"/>
    </contour>
  </outline>
</glyph>
<glyph name="Eacute" format="1">
  <advance width="491"/>
  <unicode hex="00C9"/>
  <outline>
    <contour>
      <point x="124" y="515" type="move"/>
      <point x="124" y="5" type="line"/>
    </contour>
    <contour>
      <point x="132" y="5" type="move"/>
      <point x="405" y="5" type="line"/>
    </contour>
    <contour>
      <point x="132" y="515" type="move"/>
      <point x="403" y="515" type="line"/>
    </contour>
    <contour>
      <point x="132" y="280" type="move"/>
      <point x="360" y="280" type="line"/>
    </contour>
    <contour>
      <point x="379" y="743" type="move"/>
      <point x="333" y="714"/>
      <point x="284" y="682"/>
      <point x="255" y="660" type="curve"/>
    </contour>
  </outline>
</glyph>
<glyph name="Ecircumflex" format="1">
  <advance width="491"/>
  <unicode hex="00CA"/>
  <outline>
    <contour>
      <point x="124" y="515" type="move"/>
      <point x="124" y="5" type="line"/>
    </contour>
    <contour>
      <point x="132" y="5" type="move"/>
      <point x="405" y="5" type="line"/>
    </contour>
    <contour>
      <point x="132" y="515" type="move"/>
      <point x="403" y="515" type="line"/>
    </contour>
    <contour>
      <point x="132" y="280" type="move"/>
      <point x="360" y="280" type="line"/>
    </contour>
    <contour>
      <point x="251" y="741" type="move"/>
      <point x="218" y="715"/>
      <point x="182" y="690"/>
      <point x="155" y="668" type="curve"/>
    </contour>
    <contour>
      <point x="355" y="668" type="move"/>
      <point x="326" y="690"/>
      <point x="293" y="715"/>
      <point x="258" y="741" type="curve"/>
    </contour>
  </outline>
</glyph>
<glyph name="Edieresis" format="1">
  <advance width="491"/>
  <unicode hex="00CB"/>
  <outline>
    <contour>
      <point x="124" y="515" type="move"/>
      <point x="124" y="6" type="line"/>
    </contour>
    <contour>
      <point x="132" y="6" type="move"/>
      <point x="405" y="6" type="line"/>
    </contour>
    <contour>
      <point x="132" y="515" type="move"/>
      <point x="403" y="515" type="line"/>
    </contour>
    <contour>
      <point x="132" y="280" type="move"/>
      <point x="360" y="280" type="line"/>
    </contour>
    <contour>
      <point x="160" y="723" type="curve" smooth="yes"/>
      <point x="149" y="723"/>
      <point x="142" y="709"/>
      <point x="142" y="696" type="curve" smooth="yes"/>
      <point x="142" y="681"/>
      <point x="149" y="668"/>
      <point x="160" y="668" type="curve" smooth="yes"/>
      <point x="170" y="668"/>
      <point x="177" y="681"/>
      <point x="177" y="696" type="curve" smooth="yes"/>
      <point x="177" y="709"/>
      <point x="170" y="723"/>
    </contour>
    <contour>
      <point x="355" y="723" type="curve" smooth="yes"/>
      <point x="344" y="723"/>
      <point x="338" y="709"/>
      <point x="338" y="696" type="curve" smooth="yes"/>
      <point x="338" y="681"/>
      <point x="344" y="668"/>
      <point x="355" y="668" type="curve" smooth="yes"/>
      <point x="365" y="668"/>
      <point x="371" y="681"/>
      <point x="371" y="696" type="curve" smooth="yes"/>
      <point x="371" y="709"/>
      <point x="365" y="723"/>
    </contour>
  </outline>
</glyph>
<glyph name="Igrave" format="1">
  <advance width="258"/>
  <unicode hex="00CC"/>
  <outline>
    <contour>
      <point x="129" y="515" type="move"/>
      <point x="129" y="5" type="line"/>
    </contour>
    <contour>
      <point x="17" y="744" type="move"/>
      <point x="54" y="723"/>
      <point x="107" y="681"/>
      <point x="134" y="659" type="curve"/>
    </contour>
  </outline>
</glyph>
<glyph name="Icircumflex" format="1">
  <advance width="258"/>
  <unicode hex="00CE"/>
  <outline>
    <contour>
      <point x="129" y="515" type="move"/>
      <point x="129" y="5" type="line"/>
    </contour>
    <contour>
      <point x="123" y="741" type="move"/>
      <point x="89" y="715"/>
      <point x="55" y="690"/>
      <point x="26" y="668" type="curve"/>
    </contour>
    <contour>
      <point x="227" y="668" type="move"/>
      <point x="199" y="690"/>
      <point x="164" y="715"/>
      <point x="130" y="741" type="curve"/>
    </contour>
  </outline>
</glyph>
<glyph name="Idieresis" format="1">
  <advance width="258"/>
  <unicode hex="00CF"/>
  <outline>
    <contour>
      <point x="129" y="515" type="move"/>
      <point x="129" y="6" type="line"/>
    </contour>
    <contour>
      <point x="36" y="723" type="curve" smooth="yes"/>
      <point x="24" y="723"/>
      <point x="17" y="709"/>
      <point x="17" y="696" type="curve" smooth="yes"/>
      <point x="17" y="681"/>
      <point x="24" y="668"/>
      <point x="36" y="668" type="curve" smooth="yes"/>
      <point x="45" y="668"/>
      <point x="52" y="681"/>
      <point x="52" y="696" type="curve" smooth="yes"/>
      <point x="52" y="709"/>
      <point x="45" y="723"/>
    </contour>
    <contour>
      <point x="229" y="723" type="curve" smooth="yes"/>
      <point x="219" y="723"/>
      <point x="213" y="709"/>
      <point x="213" y="696" type="curve" smooth="yes"/>
      <point x="213" y="681"/>
      <point x="219" y="668"/>
      <point x="229" y="668" type="curve" smooth="yes"/>
      <point x="240" y="668"/>
      <point x="246" y="681"/>
      <point x="246" y="696" type="curve" smooth="yes"/>
      <point x="246" y="709"/>
      <point x="240" y="723"/>
    </contour>
  </outline>
</glyph>
<glyph name="Eth" format="1">
  <advance width="632"/>
  <unicode hex="00D0"/>
  <outline>
    <contour>
      <point x="64" y="270" type="move"/>
      <point x="313" y="270" type="line"/>
    </contour>
    <contour>
      <point x="317" y="11" type="line" smooth="yes"/>
      <point x="456" y="11"/>
      <point x="545" y="124"/>
      <point x="545" y="266" type="curve" smooth="yes"/>
      <point x="545" y="415"/>
      <point x="438" y="520"/>
      <point x="317" y="520" type="curve" smooth="yes"/>
      <point x="139" y="520" type="line"/>
      <point x="139" y="11" type="line"/>
    </contour>
  </outline>
</glyph>
<glyph name="Ntilde" format="1">
  <advance width="640"/>
  <unicode hex="00D1"/>
  <outline>
    <contour>
      <point x="124" y="515" type="move"/>
      <point x="124" y="6" type="line"/>
    </contour>
    <contour>
      <point x="516" y="515" type="move"/>
      <point x="516" y="6" type="line"/>
    </contour>
    <contour>
      <point x="130" y="515" type="move"/>
      <point x="205" y="410"/>
      <point x="402" y="156"/>
      <point x="510" y="6" type="curve"/>
    </contour>
    <contour>
      <point x="184" y="662" type="move"/>
      <point x="207" y="693"/>
      <point x="229" y="712"/>
      <point x="253" y="712" type="curve" smooth="yes"/>
      <point x="275" y="712"/>
      <point x="293" y="699"/>
      <point x="313" y="683" type="curve" smooth="yes"/>
      <point x="333" y="668"/>
      <point x="350" y="656"/>
      <point x="371" y="656" type="curve" smooth="yes"/>
      <point x="399" y="656"/>
      <point x="420" y="675"/>
      <point x="446" y="711" type="curve"/>
    </contour>
  </outline>
</glyph>
<glyph name="Ograve" format="1">
  <advance width="645"/>
  <unicode hex="00D2"/>
  <outline>
    <contour>
      <point x="324" y="524" type="curve" smooth="yes"/>
      <point x="182" y="524"/>
      <point x="86" y="415"/>
      <point x="86" y="257" type="curve" smooth="yes"/>
      <point x="86" y="112"/>
      <point x="184" y="-4"/>
      <point x="324" y="-4" type="curve" smooth="yes"/>
      <point x="472" y="-4"/>
      <point x="559" y="112"/>
      <point x="559" y="260" type="curve" smooth="yes"/>
      <point x="559" y="415"/>
      <point x="455" y="524"/>
    </contour>
    <contour>
      <point x="204" y="744" type="move"/>
      <point x="241" y="723"/>
      <point x="295" y="681"/>
      <point x="322" y="659" type="curve"/>
    </contour>
  </outline>
</glyph>
<glyph name="Oacute" format="1">
  <advance width="645"/>
  <unicode hex="00D3"/>
  <outline>
    <contour>
      <point x="324" y="524" type="curve" smooth="yes"/>
      <point x="182" y="524"/>
      <point x="86" y="415"/>
      <point x="86" y="257" type="curve" smooth="yes"/>
      <point x="86" y="112"/>
      <point x="184" y="-4"/>
      <point x="324" y="-4" type="curve" smooth="yes"/>
      <point x="472" y="-4"/>
      <point x="559" y="112"/>
      <point x="559" y="260" type="curve" smooth="yes"/>
      <point x="559" y="415"/>
      <point x="455" y="524"/>
    </contour>
    <contour>
      <point x="438" y="743" type="move"/>
      <point x="391" y="714"/>
      <point x="343" y="682"/>
      <point x="314" y="660" type="curve"/>
    </contour>
  </outline>
</glyph>
<glyph name="Ocircumflex" format="1">
  <advance width="645"/>
  <unicode hex="00D4"/>
  <outline>
    <contour>
      <point x="324" y="525" type="curve" smooth="yes"/>
      <point x="182" y="525"/>
      <point x="86" y="415"/>
      <point x="86" y="257" type="curve" smooth="yes"/>
      <point x="86" y="112"/>
      <point x="184" y="-3"/>
      <point x="324" y="-3" type="curve" smooth="yes"/>
      <point x="472" y="-3"/>
      <point x="559" y="112"/>
      <point x="559" y="260" type="curve" smooth="yes"/>
      <point x="559" y="415"/>
      <point x="455" y="525"/>
    </contour>
    <contour>
      <point x="319" y="730" type="move"/>
      <point x="285" y="705"/>
      <point x="250" y="680"/>
      <point x="222" y="658" type="curve"/>
    </contour>
    <contour>
      <point x="422" y="658" type="move"/>
      <point x="395" y="680"/>
      <point x="360" y="705"/>
      <point x="325" y="730" type="curve"/>
    </contour>
  </outline>
</glyph>
<glyph name="Otilde" format="1">
  <advance width="645"/>
  <unicode hex="00D5"/>
  <outline>
    <contour>
      <point x="324" y="525" type="curve" smooth="yes"/>
      <point x="182" y="525"/>
      <point x="86" y="416"/>
      <point x="86" y="257" type="curve" smooth="yes"/>
      <point x="86" y="112"/>
      <point x="184" y="-3"/>
      <point x="324" y="-3" type="curve" smooth="yes"/>
      <point x="472" y="-3"/>
      <point x="559" y="112"/>
      <point x="559" y="260" type="curve" smooth="yes"/>
      <point x="559" y="416"/>
      <point x="455" y="525"/>
    </contour>
    <contour>
      <point x="197" y="673" type="move"/>
      <point x="220" y="703"/>
      <point x="242" y="722"/>
      <point x="265" y="722" type="curve" smooth="yes"/>
      <point x="286" y="722"/>
      <point x="304" y="710"/>
      <point x="324" y="694" type="curve" smooth="yes"/>
      <point x="345" y="678"/>
      <point x="363" y="667"/>
      <point x="383" y="667" type="curve" smooth="yes"/>
      <point x="411" y="667"/>
      <point x="432" y="686"/>
      <point x="459" y="721" type="curve"/>
    </contour>
  </outline>
</glyph>
<glyph name="Odieresis" format="1">
  <advance width="645"/>
  <unicode hex="00D6"/>
  <outline>
    <contour>
      <point x="324" y="525" type="curve" smooth="yes"/>
      <point x="182" y="525"/>
      <point x="86" y="416"/>
      <point x="86" y="257" type="curve" smooth="yes"/>
      <point x="86" y="112"/>
      <point x="184" y="-3"/>
      <point x="324" y="-3" type="curve" smooth="yes"/>
      <point x="472" y="-3"/>
      <point x="559" y="112"/>
      <point x="559" y="260" type="curve" smooth="yes"/>
      <point x="559" y="416"/>
      <point x="455" y="525"/>
    </contour>
    <contour>
      <point x="224" y="723" type="curve" smooth="yes"/>
      <point x="213" y="723"/>
      <point x="205" y="710"/>
      <point x="205" y="696" type="curve" smooth="yes"/>
      <point x="205" y="681"/>
      <point x="213" y="669"/>
      <point x="224" y="669" type="curve" smooth="yes"/>
      <point x="234" y="669"/>
      <point x="240" y="681"/>
      <point x="240" y="696" type="curve" smooth="yes"/>
      <point x="240" y="710"/>
      <point x="234" y="723"/>
    </contour>
    <contour>
      <point x="419" y="723" type="curve" smooth="yes"/>
      <point x="407" y="723"/>
      <point x="401" y="710"/>
      <point x="401" y="696" type="curve" smooth="yes"/>
      <point x="401" y="681"/>
      <point x="407" y="669"/>
      <point x="419" y="669" type="curve" smooth="yes"/>
      <point x="428" y="669"/>
      <point x="435" y="681"/>
      <point x="435" y="696" type="curve" smooth="yes"/>
      <point x="435" y="710"/>
      <point x="428" y="723"/>
    </contour>
  </outline>
</glyph>
<glyph name="Oslash" format="1">
  <advance width="645"/>
  <unicode hex="00D8"/>
  <outline>
    <contour>
      <point x="529" y="520" type="move"/>
      <point x="116" y="-9" type="line"/>
    </contour>
    <contour>
      <point x="324" y="530" type="curve" smooth="yes"/>
      <point x="182" y="530"/>
      <point x="86" y="421"/>
      <point x="86" y="262" type="curve" smooth="yes"/>
      <point x="86" y="117"/>
      <point x="184" y="2"/>
      <point x="324" y="2" type="curve" smooth="yes"/>
      <point x="472" y="2"/>
      <point x="559" y="117"/>
      <point x="559" y="265" type="curve" smooth="yes"/>
      <point x="559" y="421"/>
      <point x="455" y="530"/>
    </contour>
  </outline>
</glyph>
<glyph name="Ugrave" format="1">
  <advance width="621"/>
  <unicode hex="00D9"/>
  <outline>
    <contour>
      <point x="112" y="516" type="move"/>
      <point x="112" y="205" type="line" smooth="yes"/>
      <point x="112" y="72"/>
      <point x="193" y="-3"/>
      <point x="308" y="-3" type="curve" smooth="yes"/>
      <point x="437" y="-3"/>
      <point x="509" y="72"/>
      <point x="509" y="208" type="curve" smooth="yes"/>
      <point x="509" y="516" type="line"/>
    </contour>
    <contour>
      <point x="203" y="713" type="move"/>
      <point x="239" y="692"/>
      <point x="293" y="650"/>
      <point x="320" y="628" type="curve"/>
    </contour>
  </outline>
</glyph>
<glyph name="Uacute" format="1">
  <advance width="621"/>
  <unicode hex="00DA"/>
  <outline>
    <contour>
      <point x="112" y="516" type="move"/>
      <point x="112" y="205" type="line" smooth="yes"/>
      <point x="112" y="72"/>
      <point x="193" y="-3"/>
      <point x="308" y="-3" type="curve" smooth="yes"/>
      <point x="437" y="-3"/>
      <point x="509" y="72"/>
      <point x="509" y="208" type="curve" smooth="yes"/>
      <point x="509" y="516" type="line"/>
    </contour>
    <contour>
      <point x="431" y="712" type="move"/>
      <point x="385" y="684"/>
      <point x="337" y="651"/>
      <point x="307" y="629" type="curve"/>
    </contour>
  </outline>
</glyph>
<glyph name="Ucircumflex" format="1">
  <advance width="621"/>
  <unicode hex="00DB"/>
  <outline>
    <contour>
      <point x="112" y="516" type="move"/>
      <point x="112" y="205" type="line" smooth="yes"/>
      <point x="112" y="72"/>
      <point x="193" y="-3"/>
      <point x="308" y="-3" type="curve" smooth="yes"/>
      <point x="437" y="-3"/>
      <point x="509" y="72"/>
      <point x="509" y="208" type="curve" smooth="yes"/>
      <point x="509" y="516" type="line"/>
    </contour>
    <contour>
      <point x="300" y="710" type="move"/>
      <point x="266" y="685"/>
      <point x="230" y="660"/>
      <point x="203" y="638" type="curve"/>
    </contour>
    <contour>
      <point x="403" y="638" type="move"/>
      <point x="375" y="660"/>
      <point x="341" y="685"/>
      <point x="306" y="710" type="curve"/>
    </contour>
  </outline>
</glyph>
<glyph name="Udieresis" format="1">
  <advance width="621"/>
  <unicode hex="00DC"/>
  <outline>
    <contour>
      <point x="112" y="516" type="move"/>
      <point x="112" y="205" type="line" smooth="yes"/>
      <point x="112" y="72"/>
      <point x="193" y="-3"/>
      <point x="308" y="-3" type="curve" smooth="yes"/>
      <point x="437" y="-3"/>
      <point x="509" y="72"/>
      <point x="509" y="209" type="curve" smooth="yes"/>
      <point x="509" y="516" type="line"/>
    </contour>
    <contour>
      <point x="212" y="693" type="curve" smooth="yes"/>
      <point x="201" y="693"/>
      <point x="194" y="679"/>
      <point x="194" y="665" type="curve" smooth="yes"/>
      <point x="194" y="651"/>
      <point x="201" y="638"/>
      <point x="212" y="638" type="curve" smooth="yes"/>
      <point x="222" y="638"/>
      <point x="228" y="651"/>
      <point x="228" y="665" type="curve" smooth="yes"/>
      <point x="228" y="679"/>
      <point x="222" y="693"/>
    </contour>
    <contour>
      <point x="406" y="693" type="curve" smooth="yes"/>
      <point x="396" y="693"/>
      <point x="389" y="679"/>
      <point x="389" y="665" type="curve" smooth="yes"/>
      <point x="389" y="651"/>
      <point x="396" y="638"/>
      <point x="406" y="638" type="curve" smooth="yes"/>
      <point x="417" y="638"/>
      <point x="422" y="651"/>
      <point x="422" y="665" type="curve" smooth="yes"/>
      <point x="422" y="679"/>
      <point x="417" y="693"/>
    </contour>
  </outline>
</glyph>
<glyph name="Yacute" format="1">
  <advance width="564"/>
  <unicode hex="00DD"/>
  <outline>
    <contour>
      <point x="284" y="183" type="move"/>
      <point x="284" y="6" type="line"/>
    </contour>
    <contour>
      <point x="75" y="515" type="move"/>
      <point x="117" y="442"/>
      <point x="238" y="255"/>
      <point x="281" y="195" type="curve"/>
    </contour>
    <contour>
      <point x="284" y="189" type="move"/>
      <point x="334" y="258"/>
      <point x="448" y="443"/>
      <point x="490" y="515" type="curve"/>
    </contour>
    <contour>
      <point x="409" y="712" type="move"/>
      <point x="363" y="683"/>
      <point x="315" y="651"/>
      <point x="285" y="629" type="curve"/>
    </contour>
  </outline>
</glyph>
<glyph name="Thorn" format="1">
  <advance width="509"/>
  <unicode hex="00DE"/>
  <outline>
    <contour>
      <point x="124" y="520" type="move"/>
      <point x="124" y="11" type="line"/>
    </contour>
    <contour>
      <point x="150" y="117" type="move"/>
      <point x="262" y="117" type="line" smooth="yes"/>
      <point x="376" y="117"/>
      <point x="431" y="185"/>
      <point x="431" y="267" type="curve" smooth="yes"/>
      <point x="431" y="357"/>
      <point x="364" y="421"/>
      <point x="262" y="421" type="curve" smooth="yes"/>
      <point x="135" y="421" type="line"/>
    </contour>
  </outline>
</glyph>
<glyph name="germandbls" format="1">
  <advance width="513"/>
  <unicode hex="00DF"/>
  <outline>
    <contour>
      <point x="262" y="294" type="move"/>
      <point x="350" y="356"/>
      <point x="367" y="393"/>
      <point x="367" y="452" type="curve" smooth="yes"/>
      <point x="367" y="514"/>
      <point x="326" y="575"/>
      <point x="239" y="574" type="curve" smooth="yes"/>
      <point x="156" y="572"/>
      <point x="117" y="516"/>
      <point x="117" y="441" type="curve" smooth="yes"/>
      <point x="117" y="10" type="line"/>
    </contour>
    <contour>
      <point x="257" y="17" type="move"/>
      <point x="273" y="11"/>
      <point x="298" y="5"/>
      <point x="324" y="5" type="curve" smooth="yes"/>
      <point x="400" y="5"/>
      <point x="442" y="51"/>
      <point x="442" y="115" type="curve" smooth="yes"/>
      <point x="442" y="167"/>
      <point x="412" y="214"/>
      <point x="346" y="248" type="curve" smooth="yes"/>
      <point x="262" y="290" type="line"/>
    </contour>
  </outline>
</glyph>
<glyph name="agrave" format="1">
  <advance width="454"/>
  <unicode hex="00E0"/>
  <outline>
    <contour>
      <point x="123" y="351" type="move"/>
      <point x="144" y="358"/>
      <point x="183" y="368"/>
      <point x="217" y="368" type="curve" smooth="yes"/>
      <point x="309" y="368"/>
      <point x="351" y="309"/>
      <point x="351" y="224" type="curve" smooth="yes"/>
      <point x="351" y="128" type="line" smooth="yes"/>
      <point x="351" y="71"/>
      <point x="365" y="37"/>
      <point x="389" y="10" type="curve"/>
    </contour>
    <contour>
      <point x="350" y="212" type="move"/>
      <point x="317" y="213"/>
      <point x="286" y="216"/>
      <point x="257" y="216" type="curve" smooth="yes"/>
      <point x="183" y="216"/>
      <point x="134" y="197"/>
      <point x="104" y="165" type="curve" smooth="yes"/>
      <point x="83" y="144"/>
      <point x="76" y="120"/>
      <point x="76" y="94" type="curve" smooth="yes"/>
      <point x="76" y="56"/>
      <point x="102" y="9"/>
      <point x="174" y="9" type="curve" smooth="yes"/>
      <point x="248" y="9"/>
      <point x="303" y="40"/>
      <point x="351" y="108" type="curve"/>
    </contour>
    <contour>
      <point x="144" y="610" type="move"/>
      <point x="172" y="574"/>
      <point x="188" y="552"/>
      <point x="214" y="511" type="curve"/>
    </contour>
  </outline>
</glyph>
<glyph name="acircumflex" format="1">
  <advance width="454"/>
  <unicode hex="00E2"/>
  <outline>
    <contour>
      <point x="123" y="351" type="move"/>
      <point x="144" y="358"/>
      <point x="183" y="368"/>
      <point x="217" y="368" type="curve" smooth="yes"/>
      <point x="309" y="368"/>
      <point x="351" y="309"/>
      <point x="351" y="224" type="curve" smooth="yes"/>
      <point x="351" y="128" type="line" smooth="yes"/>
      <point x="351" y="71"/>
      <point x="365" y="37"/>
      <point x="389" y="10" type="curve"/>
    </contour>
    <contour>
      <point x="350" y="212" type="move"/>
      <point x="317" y="213"/>
      <point x="286" y="216"/>
      <point x="257" y="216" type="curve" smooth="yes"/>
      <point x="183" y="216"/>
      <point x="134" y="197"/>
      <point x="104" y="165" type="curve" smooth="yes"/>
      <point x="83" y="144"/>
      <point x="76" y="120"/>
      <point x="76" y="94" type="curve" smooth="yes"/>
      <point x="76" y="56"/>
      <point x="102" y="9"/>
      <point x="174" y="9" type="curve" smooth="yes"/>
      <point x="248" y="9"/>
      <point x="303" y="40"/>
      <point x="351" y="108" type="curve"/>
    </contour>
    <contour>
      <point x="215" y="607" type="move"/>
      <point x="184" y="576"/>
      <point x="153" y="543"/>
      <point x="126" y="516" type="curve"/>
    </contour>
    <contour>
      <point x="309" y="516" type="move"/>
      <point x="283" y="543"/>
      <point x="252" y="576"/>
      <point x="221" y="607" type="curve"/>
    </contour>
  </outline>
</glyph>
<glyph name="atilde" format="1">
  <advance width="454"/>
  <unicode hex="00E3"/>
  <outline>
    <contour>
      <point x="123" y="352" type="move"/>
      <point x="144" y="359"/>
      <point x="183" y="368"/>
      <point x="217" y="368" type="curve" smooth="yes"/>
      <point x="309" y="368"/>
      <point x="351" y="310"/>
      <point x="351" y="225" type="curve" smooth="yes"/>
      <point x="351" y="129" type="line" smooth="yes"/>
      <point x="351" y="71"/>
      <point x="365" y="38"/>
      <point x="389" y="10" type="curve"/>
    </contour>
    <contour>
      <point x="350" y="213" type="move"/>
      <point x="317" y="214"/>
      <point x="286" y="216"/>
      <point x="257" y="216" type="curve" smooth="yes"/>
      <point x="183" y="216"/>
      <point x="134" y="197"/>
      <point x="104" y="166" type="curve" smooth="yes"/>
      <point x="83" y="145"/>
      <point x="76" y="121"/>
      <point x="76" y="94" type="curve" smooth="yes"/>
      <point x="76" y="57"/>
      <point x="102" y="9"/>
      <point x="174" y="9" type="curve" smooth="yes"/>
      <point x="248" y="9"/>
      <point x="303" y="41"/>
      <point x="351" y="109" type="curve"/>
    </contour>
    <contour>
      <point x="113" y="531" type="move"/>
      <point x="132" y="561"/>
      <point x="154" y="582"/>
      <point x="174" y="582" type="curve" smooth="yes"/>
      <point x="192" y="582"/>
      <point x="204" y="571"/>
      <point x="226" y="553" type="curve" smooth="yes"/>
      <point x="246" y="538"/>
      <point x="261" y="527"/>
      <point x="278" y="527" type="curve" smooth="yes"/>
      <point x="300" y="527"/>
      <point x="316" y="546"/>
      <point x="336" y="577" type="curve"/>
    </contour>
  </outline>
</glyph>
<glyph name="adieresis" format="1">
  <advance width="454"/>
  <unicode hex="00E4"/>
  <outline>
    <contour>
      <point x="123" y="352" type="move"/>
      <point x="144" y="359"/>
      <point x="183" y="369"/>
      <point x="217" y="369" type="curve" smooth="yes"/>
      <point x="309" y="369"/>
      <point x="351" y="310"/>
      <point x="351" y="225" type="curve" smooth="yes"/>
      <point x="351" y="129" type="line" smooth="yes"/>
      <point x="351" y="71"/>
      <point x="365" y="38"/>
      <point x="389" y="10" type="curve"/>
    </contour>
    <contour>
      <point x="350" y="213" type="move"/>
      <point x="317" y="214"/>
      <point x="286" y="216"/>
      <point x="257" y="216" type="curve" smooth="yes"/>
      <point x="183" y="216"/>
      <point x="134" y="197"/>
      <point x="104" y="166" type="curve" smooth="yes"/>
      <point x="83" y="145"/>
      <point x="76" y="121"/>
      <point x="76" y="94" type="curve" smooth="yes"/>
      <point x="76" y="57"/>
      <point x="102" y="9"/>
      <point x="174" y="9" type="curve" smooth="yes"/>
      <point x="248" y="9"/>
      <point x="303" y="41"/>
      <point x="351" y="109" type="curve"/>
    </contour>
    <contour>
      <point x="129" y="581" type="curve" smooth="yes"/>
      <point x="118" y="581"/>
      <point x="112" y="567"/>
      <point x="112" y="553" type="curve" smooth="yes"/>
      <point x="112" y="540"/>
      <point x="118" y="528"/>
      <point x="129" y="528" type="curve" smooth="yes"/>
      <point x="139" y="528"/>
      <point x="145" y="540"/>
      <point x="145" y="553" type="curve" smooth="yes"/>
      <point x="145" y="567"/>
      <point x="139" y="581"/>
    </contour>
    <contour>
      <point x="308" y="581" type="curve" smooth="yes"/>
      <point x="298" y="581"/>
      <point x="291" y="567"/>
      <point x="291" y="553" type="curve" smooth="yes"/>
      <point x="291" y="540"/>
      <point x="298" y="528"/>
      <point x="308" y="528" type="curve" smooth="yes"/>
      <point x="319" y="528"/>
      <point x="324" y="540"/>
      <point x="324" y="553" type="curve" smooth="yes"/>
      <point x="324" y="567"/>
      <point x="319" y="581"/>
    </contour>
  </outline>
</glyph>
<glyph name="aring" format="1">
  <advance width="454"/>
  <unicode hex="00E5"/>
  <outline>
    <contour>
      <point x="123" y="353" type="move"/>
      <point x="144" y="360"/>
      <point x="183" y="369"/>
      <point x="217" y="369" type="curve" smooth="yes"/>
      <point x="309" y="369"/>
      <point x="351" y="311"/>
      <point x="351" y="226" type="curve" smooth="yes"/>
      <point x="351" y="130" type="line" smooth="yes"/>
      <point x="351" y="72"/>
      <point x="365" y="39"/>
      <point x="389" y="11" type="curve"/>
    </contour>
    <contour>
      <point x="350" y="214" type="move"/>
      <point x="317" y="215"/>
      <point x="286" y="217"/>
      <point x="257" y="217" type="curve" smooth="yes"/>
      <point x="183" y="217"/>
      <point x="134" y="198"/>
      <point x="104" y="167" type="curve" smooth="yes"/>
      <point x="83" y="146"/>
      <point x="76" y="122"/>
      <point x="76" y="95" type="curve" smooth="yes"/>
      <point x="76" y="58"/>
      <point x="102" y="10"/>
      <point x="174" y="10" type="curve" smooth="yes"/>
      <point x="248" y="10"/>
      <point x="303" y="42"/>
      <point x="351" y="110" type="curve"/>
    </contour>
    <contour>
      <point x="308" y="461" type="curve" smooth="yes"/>
      <point x="308" y="504"/>
      <point x="276" y="543"/>
      <point x="221" y="543" type="curve" smooth="yes"/>
      <point x="168" y="543"/>
      <point x="136" y="501"/>
      <point x="136" y="461" type="curve" smooth="yes"/>
      <point x="136" y="421"/>
      <point x="168" y="379"/>
      <point x="221" y="379" type="curve" smooth="yes"/>
      <point x="276" y="379"/>
      <point x="308" y="418"/>
    </contour>
  </outline>
</glyph>
<glyph name="ae" format="1">
  <advance width="751"/>
  <unicode hex="00E6"/>
  <outline>
    <contour>
      <point x="123" y="357" type="move"/>
      <point x="144" y="364"/>
      <point x="183" y="374"/>
      <point x="217" y="374" type="curve" smooth="yes"/>
      <point x="309" y="374"/>
      <point x="359" y="315"/>
      <point x="359" y="230" type="curve" smooth="yes"/>
      <point x="359" y="202" type="line" smooth="yes"/>
    </contour>
    <contour>
      <point x="358" y="218" type="move"/>
      <point x="324" y="219"/>
      <point x="286" y="221"/>
      <point x="257" y="221" type="curve" smooth="yes"/>
      <point x="183" y="221"/>
      <point x="134" y="202"/>
      <point x="104" y="171" type="curve" smooth="yes"/>
      <point x="83" y="150"/>
      <point x="76" y="126"/>
      <point x="76" y="99" type="curve" smooth="yes"/>
      <point x="76" y="62"/>
      <point x="102" y="14"/>
      <point x="174" y="14" type="curve" smooth="yes"/>
      <point x="248" y="14"/>
      <point x="316" y="53"/>
      <point x="373" y="107" type="curve"/>
    </contour>
    <contour>
      <point x="375" y="193" type="move"/>
      <point x="586" y="193" type="line" smooth="yes"/>
      <point x="646" y="193"/>
      <point x="668" y="218"/>
      <point x="668" y="258" type="curve" smooth="yes"/>
      <point x="668" y="308"/>
      <point x="615" y="374"/>
      <point x="531" y="374" type="curve" smooth="yes"/>
      <point x="438" y="374"/>
      <point x="362" y="299"/>
      <point x="362" y="189" type="curve" smooth="yes"/>
      <point x="362" y="75"/>
      <point x="440" y="14"/>
      <point x="551" y="14" type="curve" smooth="yes"/>
      <point x="588" y="14"/>
      <point x="623" y="23"/>
      <point x="649" y="33" type="curve"/>
      <point x="649" y="33"/>
    </contour>
  </outline>
</glyph>
<glyph name="ccedilla" format="1">
  <advance width="440"/>
  <unicode hex="00E7"/>
  <outline>
    <contour>
      <point x="351" y="364" type="move"/>
      <point x="324" y="373"/>
      <point x="291" y="380"/>
      <point x="262" y="380" type="curve" smooth="yes"/>
      <point x="143" y="380"/>
      <point x="75" y="300"/>
      <point x="75" y="191" type="curve" smooth="yes"/>
      <point x="75" y="95"/>
      <point x="141" y="21"/>
      <point x="261" y="21" type="curve" smooth="yes"/>
      <point x="302" y="21"/>
      <point x="336" y="29"/>
      <point x="364" y="41" type="curve"/>
    </contour>
    <contour>
      <point x="268" y="-133" type="move"/>
      <point x="241" y="-160"/>
      <point x="189" y="-214"/>
      <point x="166" y="-238" type="curve"/>
    </contour>
  </outline>
</glyph>
<glyph name="egrave" format="1">
  <advance width="464"/>
  <unicode hex="00E8"/>
  <outline>
    <contour>
      <point x="87" y="187" type="move"/>
      <point x="299" y="187" type="line" smooth="yes"/>
      <point x="359" y="187"/>
      <point x="381" y="212"/>
      <point x="381" y="252" type="curve" smooth="yes"/>
      <point x="381" y="303"/>
      <point x="327" y="368"/>
      <point x="244" y="368" type="curve" smooth="yes"/>
      <point x="150" y="368"/>
      <point x="75" y="293"/>
      <point x="75" y="183" type="curve" smooth="yes"/>
      <point x="75" y="70"/>
      <point x="153" y="9"/>
      <point x="264" y="9" type="curve" smooth="yes"/>
      <point x="300" y="9"/>
      <point x="336" y="17"/>
      <point x="362" y="28" type="curve"/>
      <point x="362" y="28"/>
    </contour>
    <contour>
      <point x="165" y="610" type="move"/>
      <point x="193" y="574"/>
      <point x="209" y="552"/>
      <point x="235" y="511" type="curve"/>
    </contour>
  </outline>
</glyph>
<glyph name="eacute" format="1">
  <advance width="464"/>
  <unicode hex="00E9"/>
  <outline>
    <contour>
      <point x="87" y="187" type="move"/>
      <point x="299" y="187" type="line" smooth="yes"/>
      <point x="359" y="187"/>
      <point x="381" y="212"/>
      <point x="381" y="252" type="curve" smooth="yes"/>
      <point x="381" y="303"/>
      <point x="327" y="368"/>
      <point x="244" y="368" type="curve" smooth="yes"/>
      <point x="150" y="368"/>
      <point x="75" y="293"/>
      <point x="75" y="183" type="curve" smooth="yes"/>
      <point x="75" y="70"/>
      <point x="153" y="9"/>
      <point x="264" y="9" type="curve" smooth="yes"/>
      <point x="300" y="9"/>
      <point x="336" y="17"/>
      <point x="362" y="28" type="curve"/>
      <point x="362" y="28"/>
    </contour>
    <contour>
      <point x="325" y="611" type="move"/>
      <point x="298" y="579"/>
      <point x="270" y="545"/>
      <point x="244" y="513" type="curve"/>
    </contour>
  </outline>
</glyph>
<glyph name="ecircumflex" format="1">
  <advance width="464"/>
  <unicode hex="00EA"/>
  <outline>
    <contour>
      <point x="87" y="187" type="move"/>
      <point x="299" y="187" type="line" smooth="yes"/>
      <point x="359" y="187"/>
      <point x="381" y="212"/>
      <point x="381" y="252" type="curve" smooth="yes"/>
      <point x="381" y="303"/>
      <point x="327" y="368"/>
      <point x="244" y="368" type="curve" smooth="yes"/>
      <point x="150" y="368"/>
      <point x="75" y="293"/>
      <point x="75" y="183" type="curve" smooth="yes"/>
      <point x="75" y="70"/>
      <point x="153" y="9"/>
      <point x="264" y="9" type="curve" smooth="yes"/>
      <point x="300" y="9"/>
      <point x="336" y="17"/>
      <point x="362" y="28" type="curve"/>
      <point x="362" y="28"/>
    </contour>
    <contour>
      <point x="235" y="607" type="move"/>
      <point x="204" y="576"/>
      <point x="173" y="543"/>
      <point x="146" y="516" type="curve"/>
    </contour>
    <contour>
      <point x="329" y="516" type="move"/>
      <point x="303" y="543"/>
      <point x="273" y="576"/>
      <point x="241" y="607" type="curve"/>
    </contour>
  </outline>
</glyph>
<glyph name="edieresis" format="1">
  <advance width="464"/>
  <unicode hex="00EB"/>
  <outline>
    <contour>
      <point x="87" y="188" type="move"/>
      <point x="299" y="188" type="line" smooth="yes"/>
      <point x="359" y="188"/>
      <point x="381" y="213"/>
      <point x="381" y="253" type="curve" smooth="yes"/>
      <point x="381" y="303"/>
      <point x="327" y="369"/>
      <point x="244" y="369" type="curve" smooth="yes"/>
      <point x="150" y="369"/>
      <point x="75" y="294"/>
      <point x="75" y="184" type="curve" smooth="yes"/>
      <point x="75" y="70"/>
      <point x="153" y="9"/>
      <point x="264" y="9" type="curve" smooth="yes"/>
      <point x="300" y="9"/>
      <point x="336" y="18"/>
      <point x="362" y="28" type="curve"/>
      <point x="362" y="28"/>
    </contour>
    <contour>
      <point x="143" y="581" type="curve" smooth="yes"/>
      <point x="132" y="581"/>
      <point x="126" y="567"/>
      <point x="126" y="553" type="curve" smooth="yes"/>
      <point x="126" y="540"/>
      <point x="132" y="528"/>
      <point x="143" y="528" type="curve" smooth="yes"/>
      <point x="154" y="528"/>
      <point x="159" y="540"/>
      <point x="159" y="553" type="curve" smooth="yes"/>
      <point x="159" y="567"/>
      <point x="154" y="581"/>
    </contour>
    <contour>
      <point x="323" y="581" type="curve" smooth="yes"/>
      <point x="311" y="581"/>
      <point x="305" y="567"/>
      <point x="305" y="553" type="curve" smooth="yes"/>
      <point x="305" y="540"/>
      <point x="311" y="528"/>
      <point x="323" y="528" type="curve" smooth="yes"/>
      <point x="333" y="528"/>
      <point x="339" y="540"/>
      <point x="339" y="553" type="curve" smooth="yes"/>
      <point x="339" y="567"/>
      <point x="333" y="581"/>
    </contour>
  </outline>
</glyph>
<glyph name="igrave" format="1">
  <advance width="234"/>
  <unicode hex="00EC"/>
  <outline>
    <contour>
      <point x="117" y="9" type="move"/>
      <point x="117" y="368" type="line"/>
    </contour>
    <contour>
      <point x="37" y="610" type="move"/>
      <point x="64" y="574"/>
      <point x="82" y="552"/>
      <point x="107" y="511" type="curve"/>
    </contour>
  </outline>
</glyph>
<glyph name="iacute" format="1">
  <advance width="234"/>
  <unicode hex="00ED"/>
  <outline>
    <contour>
      <point x="117" y="9" type="move"/>
      <point x="117" y="368" type="line"/>
    </contour>
    <contour>
      <point x="198" y="611" type="move"/>
      <point x="169" y="579"/>
      <point x="142" y="545"/>
      <point x="116" y="513" type="curve"/>
    </contour>
  </outline>
</glyph>
<glyph name="idieresis" format="1">
  <advance width="234"/>
  <unicode hex="00EF"/>
  <outline>
    <contour>
      <point x="117" y="9" type="move"/>
      <point x="117" y="369" type="line"/>
    </contour>
    <contour>
      <point x="20" y="581" type="curve" smooth="yes"/>
      <point x="9" y="581"/>
      <point x="3" y="567"/>
      <point x="3" y="553" type="curve" smooth="yes"/>
      <point x="3" y="540"/>
      <point x="9" y="528"/>
      <point x="20" y="528" type="curve" smooth="yes"/>
      <point x="31" y="528"/>
      <point x="36" y="540"/>
      <point x="36" y="553" type="curve" smooth="yes"/>
      <point x="36" y="567"/>
      <point x="31" y="581"/>
    </contour>
    <contour>
      <point x="200" y="581" type="curve" smooth="yes"/>
      <point x="188" y="581"/>
      <point x="182" y="567"/>
      <point x="182" y="553" type="curve" smooth="yes"/>
      <point x="182" y="540"/>
      <point x="188" y="528"/>
      <point x="200" y="528" type="curve" smooth="yes"/>
      <point x="209" y="528"/>
      <point x="216" y="540"/>
      <point x="216" y="553" type="curve" smooth="yes"/>
      <point x="216" y="567"/>
      <point x="209" y="581"/>
    </contour>
  </outline>
</glyph>
<glyph name="eth" format="1">
  <advance width="488"/>
  <unicode hex="00F0"/>
  <outline>
    <contour>
      <point x="396" y="267" type="move"/>
      <point x="365" y="297"/>
      <point x="300" y="329"/>
      <point x="234" y="329" type="curve" smooth="yes"/>
      <point x="141" y="329"/>
      <point x="72" y="264"/>
      <point x="72" y="165" type="curve" smooth="yes"/>
      <point x="72" y="78"/>
      <point x="132" y="6"/>
      <point x="233" y="6" type="curve" smooth="yes"/>
      <point x="341" y="6"/>
      <point x="406" y="80"/>
      <point x="406" y="209" type="curve" smooth="yes"/>
      <point x="406" y="316"/>
      <point x="359" y="423"/>
      <point x="210" y="552" type="curve"/>
    </contour>
    <contour>
      <point x="186" y="439" type="move"/>
      <point x="351" y="543" type="line"/>
    </contour>
  </outline>
</glyph>
<glyph name="ntilde" format="1">
  <advance width="501"/>
  <unicode hex="00F1"/>
  <outline>
    <contour>
      <point x="111" y="9" type="move"/>
      <point x="111" y="368" type="line"/>
    </contour>
    <contour>
      <point x="400" y="9" type="move"/>
      <point x="400" y="219" type="line" smooth="yes"/>
      <point x="400" y="330"/>
      <point x="351" y="368"/>
      <point x="287" y="368" type="curve" smooth="yes"/>
      <point x="224" y="368"/>
      <point x="163" y="328"/>
      <point x="115" y="277" type="curve"/>
    </contour>
    <contour>
      <point x="138" y="531" type="move"/>
      <point x="157" y="561"/>
      <point x="179" y="582"/>
      <point x="199" y="582" type="curve" smooth="yes"/>
      <point x="217" y="582"/>
      <point x="228" y="571"/>
      <point x="251" y="553" type="curve" smooth="yes"/>
      <point x="271" y="538"/>
      <point x="286" y="527"/>
      <point x="303" y="527" type="curve" smooth="yes"/>
      <point x="324" y="527"/>
      <point x="341" y="546"/>
      <point x="361" y="577" type="curve"/>
    </contour>
  </outline>
</glyph>
<glyph name="ograve" format="1">
  <advance width="499"/>
  <unicode hex="00F2"/>
  <outline>
    <contour>
      <point x="249" y="372" type="curve" smooth="yes"/>
      <point x="140" y="372"/>
      <point x="74" y="287"/>
      <point x="74" y="185" type="curve" smooth="yes"/>
      <point x="74" y="83"/>
      <point x="142" y="5"/>
      <point x="249" y="5" type="curve" smooth="yes"/>
      <point x="356" y="5"/>
      <point x="424" y="82"/>
      <point x="424" y="183" type="curve" smooth="yes"/>
      <point x="424" y="287"/>
      <point x="357" y="372"/>
    </contour>
    <contour>
      <point x="166" y="610" type="move"/>
      <point x="194" y="574"/>
      <point x="210" y="552"/>
      <point x="236" y="511" type="curve"/>
    </contour>
  </outline>
</glyph>
<glyph name="oacute" format="1">
  <advance width="499"/>
  <unicode hex="00F3"/>
  <outline>
    <contour>
      <point x="249" y="372" type="curve" smooth="yes"/>
      <point x="140" y="372"/>
      <point x="74" y="287"/>
      <point x="74" y="185" type="curve" smooth="yes"/>
      <point x="74" y="83"/>
      <point x="142" y="5"/>
      <point x="249" y="5" type="curve" smooth="yes"/>
      <point x="356" y="5"/>
      <point x="424" y="82"/>
      <point x="424" y="183" type="curve" smooth="yes"/>
      <point x="424" y="287"/>
      <point x="357" y="372"/>
    </contour>
    <contour>
      <point x="326" y="611" type="move"/>
      <point x="299" y="579"/>
      <point x="271" y="545"/>
      <point x="245" y="513" type="curve"/>
    </contour>
  </outline>
</glyph>
<glyph name="ocircumflex" format="1">
  <advance width="499"/>
  <unicode hex="00F4"/>
  <outline>
    <contour>
      <point x="249" y="372" type="curve" smooth="yes"/>
      <point x="140" y="372"/>
      <point x="74" y="287"/>
      <point x="74" y="185" type="curve" smooth="yes"/>
      <point x="74" y="83"/>
      <point x="142" y="5"/>
      <point x="249" y="5" type="curve" smooth="yes"/>
      <point x="356" y="5"/>
      <point x="424" y="82"/>
      <point x="424" y="183" type="curve" smooth="yes"/>
      <point x="424" y="287"/>
      <point x="357" y="372"/>
    </contour>
    <contour>
      <point x="243" y="607" type="move"/>
      <point x="213" y="576"/>
      <point x="180" y="543"/>
      <point x="155" y="516" type="curve"/>
    </contour>
    <contour>
      <point x="338" y="516" type="move"/>
      <point x="311" y="543"/>
      <point x="280" y="576"/>
      <point x="249" y="607" type="curve"/>
    </contour>
  </outline>
</glyph>
<glyph name="otilde" format="1">
  <advance width="499"/>
  <unicode hex="00F5"/>
  <outline>
    <contour>
      <point x="249" y="373" type="curve" smooth="yes"/>
      <point x="140" y="373"/>
      <point x="74" y="288"/>
      <point x="74" y="186" type="curve" smooth="yes"/>
      <point x="74" y="84"/>
      <point x="142" y="5"/>
      <point x="249" y="5" type="curve" smooth="yes"/>
      <point x="356" y="5"/>
      <point x="424" y="83"/>
      <point x="424" y="184" type="curve" smooth="yes"/>
      <point x="424" y="288"/>
      <point x="357" y="373"/>
    </contour>
    <contour>
      <point x="141" y="531" type="move"/>
      <point x="160" y="561"/>
      <point x="181" y="582"/>
      <point x="202" y="582" type="curve" smooth="yes"/>
      <point x="220" y="582"/>
      <point x="232" y="571"/>
      <point x="254" y="553" type="curve" smooth="yes"/>
      <point x="275" y="538"/>
      <point x="289" y="527"/>
      <point x="306" y="527" type="curve" smooth="yes"/>
      <point x="327" y="527"/>
      <point x="344" y="546"/>
      <point x="364" y="578" type="curve"/>
    </contour>
  </outline>
</glyph>
<glyph name="odieresis" format="1">
  <advance width="499"/>
  <unicode hex="00F6"/>
  <outline>
    <contour>
      <point x="249" y="373" type="curve" smooth="yes"/>
      <point x="140" y="373"/>
      <point x="74" y="288"/>
      <point x="74" y="186" type="curve" smooth="yes"/>
      <point x="74" y="84"/>
      <point x="142" y="5"/>
      <point x="249" y="5" type="curve" smooth="yes"/>
      <point x="356" y="5"/>
      <point x="424" y="83"/>
      <point x="424" y="184" type="curve" smooth="yes"/>
      <point x="424" y="288"/>
      <point x="357" y="373"/>
    </contour>
    <contour>
      <point x="156" y="581" type="curve" smooth="yes"/>
      <point x="145" y="581"/>
      <point x="139" y="567"/>
      <point x="139" y="553" type="curve" smooth="yes"/>
      <point x="139" y="540"/>
      <point x="145" y="528"/>
      <point x="156" y="528" type="curve" smooth="yes"/>
      <point x="166" y="528"/>
      <point x="173" y="540"/>
      <point x="173" y="553" type="curve" smooth="yes"/>
      <point x="173" y="567"/>
      <point x="166" y="581"/>
    </contour>
    <contour>
      <point x="336" y="581" type="curve" smooth="yes"/>
      <point x="324" y="581"/>
      <point x="319" y="567"/>
      <point x="319" y="553" type="curve" smooth="yes"/>
      <point x="319" y="540"/>
      <point x="324" y="528"/>
      <point x="336" y="528" type="curve" smooth="yes"/>
      <point x="346" y="528"/>
      <point x="351" y="540"/>
      <point x="351" y="553" type="curve" smooth="yes"/>
      <point x="351" y="567"/>
      <point x="346" y="581"/>
    </contour>
  </outline>
</glyph>
<glyph name="divide" format="1">
  <advance width="535"/>
  <unicode hex="00F7"/>
  <outline>
    <contour>
      <point x="97" y="267" type="move"/>
      <point x="437" y="267" type="line"/>
    </contour>
    <contour>
      <point x="269" y="133" type="curve" smooth="yes"/>
      <point x="256" y="133"/>
      <point x="252" y="120"/>
      <point x="252" y="107" type="curve" smooth="yes"/>
      <point x="252" y="93"/>
      <point x="259" y="82"/>
      <point x="270" y="82" type="curve" smooth="yes"/>
      <point x="282" y="82"/>
      <point x="286" y="93"/>
      <point x="286" y="107" type="curve" smooth="yes"/>
      <point x="286" y="120"/>
      <point x="281" y="133"/>
    </contour>
    <contour>
      <point x="269" y="449" type="curve" smooth="yes"/>
      <point x="256" y="449"/>
      <point x="252" y="436"/>
      <point x="252" y="424" type="curve" smooth="yes"/>
      <point x="252" y="409"/>
      <point x="259" y="398"/>
      <point x="270" y="398" type="curve" smooth="yes"/>
      <point x="282" y="398"/>
      <point x="286" y="409"/>
      <point x="286" y="424" type="curve" smooth="yes"/>
      <point x="286" y="436"/>
      <point x="281" y="449"/>
    </contour>
  </outline>
</glyph>
<glyph name="oslash" format="1">
  <advance width="504.0"/>
  <unicode hex="00F8"/>
  <outline>
    <contour>
      <point x="79" y="14" type="move"/>
      <point x="422" y="374" type="line"/>
    </contour>
    <contour>
      <point x="252" y="378" type="curve" smooth="yes"/>
      <point x="143" y="378"/>
      <point x="77" y="293"/>
      <point x="77" y="191" type="curve" smooth="yes"/>
      <point x="77" y="89"/>
      <point x="145" y="10"/>
      <point x="252" y="10" type="curve" smooth="yes"/>
      <point x="359" y="10"/>
      <point x="427" y="88"/>
      <point x="427" y="189" type="curve" smooth="yes"/>
      <point x="427" y="293"/>
      <point x="360" y="378"/>
    </contour>
  </outline>
</glyph>
<glyph name="ugrave" format="1">
  <advance width="501"/>
  <unicode hex="00F9"/>
  <outline>
    <contour>
      <point x="390" y="368" type="move"/>
      <point x="390" y="9" type="line"/>
    </contour>
    <contour>
      <point x="101" y="368" type="move"/>
      <point x="101" y="158" type="line" smooth="yes"/>
      <point x="101" y="48"/>
      <point x="149" y="9"/>
      <point x="214" y="9" type="curve" smooth="yes"/>
      <point x="277" y="9"/>
      <point x="344" y="60"/>
      <point x="386" y="121" type="curve"/>
    </contour>
    <contour>
      <point x="164" y="610" type="move"/>
      <point x="192" y="574"/>
      <point x="208" y="552"/>
      <point x="234" y="511" type="curve"/>
    </contour>
  </outline>
</glyph>
<glyph name="uacute" format="1">
  <advance width="501"/>
  <unicode hex="00FA"/>
  <outline>
    <contour>
      <point x="390" y="368" type="move"/>
      <point x="390" y="9" type="line"/>
    </contour>
    <contour>
      <point x="101" y="368" type="move"/>
      <point x="101" y="158" type="line" smooth="yes"/>
      <point x="101" y="48"/>
      <point x="149" y="9"/>
      <point x="214" y="9" type="curve" smooth="yes"/>
      <point x="277" y="9"/>
      <point x="344" y="60"/>
      <point x="386" y="121" type="curve"/>
    </contour>
    <contour>
      <point x="322" y="611" type="move"/>
      <point x="294" y="579"/>
      <point x="266" y="545"/>
      <point x="240" y="513" type="curve"/>
    </contour>
  </outline>
</glyph>
<glyph name="ucircumflex" format="1">
  <advance width="501"/>
  <unicode hex="00FB"/>
  <outline>
    <contour>
      <point x="390" y="368" type="move"/>
      <point x="390" y="9" type="line"/>
    </contour>
    <contour>
      <point x="101" y="368" type="move"/>
      <point x="101" y="158" type="line" smooth="yes"/>
      <point x="101" y="48"/>
      <point x="149" y="9"/>
      <point x="214" y="9" type="curve" smooth="yes"/>
      <point x="277" y="9"/>
      <point x="344" y="60"/>
      <point x="386" y="121" type="curve"/>
    </contour>
    <contour>
      <point x="242" y="607" type="move"/>
      <point x="212" y="576"/>
      <point x="180" y="543"/>
      <point x="154" y="516" type="curve"/>
    </contour>
    <contour>
      <point x="337" y="516" type="move"/>
      <point x="310" y="543"/>
      <point x="279" y="576"/>
      <point x="248" y="607" type="curve"/>
    </contour>
  </outline>
</glyph>
<glyph name="udieresis" format="1">
  <advance width="501"/>
  <unicode hex="00FC"/>
  <outline>
    <contour>
      <point x="390" y="369" type="move"/>
      <point x="390" y="9" type="line"/>
    </contour>
    <contour>
      <point x="101" y="369" type="move"/>
      <point x="101" y="159" type="line" smooth="yes"/>
      <point x="101" y="48"/>
      <point x="149" y="9"/>
      <point x="214" y="9" type="curve" smooth="yes"/>
      <point x="277" y="9"/>
      <point x="344" y="61"/>
      <point x="386" y="122" type="curve"/>
    </contour>
    <contour>
      <point x="152" y="581" type="curve" smooth="yes"/>
      <point x="140" y="581"/>
      <point x="134" y="567"/>
      <point x="134" y="553" type="curve" smooth="yes"/>
      <point x="134" y="540"/>
      <point x="140" y="528"/>
      <point x="152" y="528" type="curve" smooth="yes"/>
      <point x="161" y="528"/>
      <point x="167" y="540"/>
      <point x="167" y="553" type="curve" smooth="yes"/>
      <point x="167" y="567"/>
      <point x="161" y="581"/>
    </contour>
    <contour>
      <point x="330" y="581" type="curve" smooth="yes"/>
      <point x="320" y="581"/>
      <point x="314" y="567"/>
      <point x="314" y="553" type="curve" smooth="yes"/>
      <point x="314" y="540"/>
      <point x="320" y="528"/>
      <point x="330" y="528" type="curve" smooth="yes"/>
      <point x="341" y="528"/>
      <point x="347" y="540"/>
      <point x="347" y="553" type="curve" smooth="yes"/>
      <point x="347" y="567"/>
      <point x="341" y="581"/>
    </contour>
  </outline>
</glyph>
<glyph name="yacute" format="1">
  <advance width="454"/>
  <unicode hex="00FD"/>
  <outline>
    <contour>
      <point x="63" y="-170" type="move"/>
      <point x="127" y="-132"/>
      <point x="184" y="-86"/>
      <point x="241" y="14" type="curve" smooth="yes"/>
      <point x="295" y="109"/>
      <point x="355" y="253"/>
      <point x="389" y="372" type="curve"/>
    </contour>
    <contour>
      <point x="65" y="373" type="move"/>
      <point x="120" y="213"/>
      <point x="186" y="97"/>
      <point x="238" y="14" type="curve"/>
    </contour>
    <contour>
      <point x="301" y="616" type="move"/>
      <point x="274" y="583"/>
      <point x="246" y="550"/>
      <point x="220" y="517" type="curve"/>
    </contour>
  </outline>
</glyph>
<glyph name="thorn" format="1">
  <advance width="507"/>
  <unicode hex="00FE"/>
  <outline>
    <contour>
      <point x="111" y="-186" type="move"/>
      <point x="111" y="551" type="line"/>
    </contour>
    <contour>
      <point x="111" y="82" type="move"/>
      <point x="157" y="42"/>
      <point x="213" y="15"/>
      <point x="267" y="15" type="curve" smooth="yes"/>
      <point x="366" y="15"/>
      <point x="434" y="93"/>
      <point x="434" y="195" type="curve" smooth="yes"/>
      <point x="434" y="311"/>
      <point x="361" y="374"/>
      <point x="279" y="374" type="curve" smooth="yes"/>
      <point x="214" y="374"/>
      <point x="157" y="329"/>
      <point x="112" y="262" type="curve"/>
    </contour>
  </outline>
</glyph>
<glyph name="ydieresis" format="1">
  <advance width="454"/>
  <unicode hex="00FF"/>
  <outline>
    <contour>
      <point x="63" y="-169" type="move"/>
      <point x="127" y="-131"/>
      <point x="184" y="-85"/>
      <point x="241" y="15" type="curve" smooth="yes"/>
      <point x="295" y="109"/>
      <point x="355" y="254"/>
      <point x="389" y="373" type="curve"/>
    </contour>
    <contour>
      <point x="65" y="374" type="move"/>
      <point x="120" y="213"/>
      <point x="186" y="98"/>
      <point x="238" y="15" type="curve"/>
    </contour>
    <contour>
      <point x="128" y="585" type="curve" smooth="yes"/>
      <point x="117" y="585"/>
      <point x="111" y="571"/>
      <point x="111" y="558" type="curve" smooth="yes"/>
      <point x="111" y="544"/>
      <point x="117" y="532"/>
      <point x="128" y="532" type="curve" smooth="yes"/>
      <point x="138" y="532"/>
      <point x="144" y="544"/>
      <point x="144" y="558" type="curve" smooth="yes"/>
      <point x="144" y="571"/>
      <point x="138" y="585"/>
    </contour>
    <contour>
      <point x="307" y="585" type="curve" smooth="yes"/>
      <point x="297" y="585"/>
      <point x="290" y="571"/>
      <point x="290" y="558" type="curve" smooth="yes"/>
      <point x="290" y="544"/>
      <point x="297" y="532"/>
      <point x="307" y="532" type="curve" smooth="yes"/>
      <point x="318" y="532"/>
      <point x="324" y="544"/>
      <point x="324" y="558" type="curve" smooth="yes"/>
      <point x="324" y="571"/>
      <point x="318" y="585"/>
    </contour>
  </outline>
</glyph>
<glyph name="Amacron" format="1">
  <advance width="579"/>
  <unicode hex="0100"/>
  <outline>
    <contour>
      <point x="283" y="525" type="move"/>
      <point x="215" y="365"/>
      <point x="119" y="139"/>
      <point x="74" y="6" type="curve"/>
    </contour>
    <contour>
      <point x="289" y="525" type="move"/>
      <point x="362" y="363"/>
      <point x="461" y="136"/>
      <point x="509" y="6" type="curve"/>
    </contour>
    <contour>
      <point x="143" y="159" type="move"/>
      <point x="437" y="159" type="line"/>
    </contour>
    <contour>
      <point x="400" y="701" type="move"/>
      <point x="169" y="701" type="line"/>
    </contour>
  </outline>
</glyph>
<glyph name="amacron" format="1">
  <advance width="454"/>
  <unicode hex="0101"/>
  <outline>
    <contour>
      <point x="123" y="352" type="move"/>
      <point x="144" y="360"/>
      <point x="183" y="369"/>
      <point x="217" y="369" type="curve" smooth="yes"/>
      <point x="309" y="369"/>
      <point x="351" y="310"/>
      <point x="351" y="225" type="curve" smooth="yes"/>
      <point x="351" y="130" type="line" smooth="yes"/>
      <point x="351" y="72"/>
      <point x="365" y="39"/>
      <point x="389" y="11" type="curve"/>
    </contour>
    <contour>
      <point x="350" y="214" type="move"/>
      <point x="317" y="215"/>
      <point x="286" y="217"/>
      <point x="257" y="217" type="curve" smooth="yes"/>
      <point x="183" y="217"/>
      <point x="134" y="198"/>
      <point x="104" y="167" type="curve" smooth="yes"/>
      <point x="83" y="146"/>
      <point x="76" y="121"/>
      <point x="76" y="95" type="curve" smooth="yes"/>
      <point x="76" y="57"/>
      <point x="102" y="10"/>
      <point x="174" y="10" type="curve" smooth="yes"/>
      <point x="248" y="10"/>
      <point x="303" y="42"/>
      <point x="351" y="110" type="curve"/>
    </contour>
    <contour>
      <point x="317" y="550" type="move"/>
      <point x="114" y="550" type="line"/>
    </contour>
  </outline>
</glyph>
<glyph name="abreve" format="1">
  <advance width="454"/>
  <unicode hex="0103"/>
  <outline>
    <contour>
      <point x="123" y="351" type="move"/>
      <point x="144" y="359"/>
      <point x="183" y="368"/>
      <point x="217" y="368" type="curve" smooth="yes"/>
      <point x="309" y="368"/>
      <point x="351" y="309"/>
      <point x="351" y="224" type="curve" smooth="yes"/>
      <point x="351" y="129" type="line" smooth="yes"/>
      <point x="351" y="71"/>
      <point x="365" y="38"/>
      <point x="389" y="10" type="curve"/>
    </contour>
    <contour>
      <point x="350" y="213" type="move"/>
      <point x="317" y="214"/>
      <point x="286" y="216"/>
      <point x="257" y="216" type="curve" smooth="yes"/>
      <point x="183" y="216"/>
      <point x="134" y="197"/>
      <point x="104" y="166" type="curve" smooth="yes"/>
      <point x="83" y="145"/>
      <point x="76" y="120"/>
      <point x="76" y="94" type="curve" smooth="yes"/>
      <point x="76" y="56"/>
      <point x="102" y="9"/>
      <point x="174" y="9" type="curve" smooth="yes"/>
      <point x="248" y="9"/>
      <point x="303" y="41"/>
      <point x="351" y="109" type="curve"/>
    </contour>
    <contour>
      <point x="124" y="591" type="move"/>
      <point x="148" y="553"/>
      <point x="184" y="527"/>
      <point x="227" y="527" type="curve" smooth="yes"/>
      <point x="275" y="527"/>
      <point x="303" y="552"/>
      <point x="326" y="591" type="curve"/>
    </contour>
  </outline>
</glyph>
<glyph name="Aogonek" format="1">
  <advance width="595"/>
  <unicode hex="0104"/>
  <outline>
    <contour>
      <point x="283" y="535" type="move"/>
      <point x="215" y="374"/>
      <point x="119" y="148"/>
      <point x="74" y="16" type="curve"/>
    </contour>
    <contour>
      <point x="289" y="535" type="move"/>
      <point x="362" y="373"/>
      <point x="461" y="145"/>
      <point x="509" y="16" type="curve"/>
    </contour>
    <contour>
      <point x="143" y="168" type="move"/>
      <point x="437" y="168" type="line"/>
    </contour>
    <contour>
      <point x="504" y="16" type="move"/>
      <point x="504" y="-21" type="line"/>
      <point x="418" y="-94"/>
      <point x="400" y="-124"/>
      <point x="400" y="-152" type="curve" smooth="yes"/>
      <point x="400" y="-189"/>
      <point x="441" y="-215"/>
      <point x="519" y="-215" type="curve"/>
    </contour>
  </outline>
</glyph>
<glyph name="aogonek" format="1">
  <advance width="454"/>
  <unicode hex="0105"/>
  <outline>
    <contour>
      <point x="123" y="362" type="move"/>
      <point x="144" y="370"/>
      <point x="183" y="379"/>
      <point x="217" y="379" type="curve" smooth="yes"/>
      <point x="309" y="379"/>
      <point x="351" y="320"/>
      <point x="351" y="235" type="curve" smooth="yes"/>
      <point x="351" y="140" type="line" smooth="yes"/>
      <point x="351" y="82"/>
      <point x="365" y="48"/>
      <point x="389" y="21" type="curve"/>
    </contour>
    <contour>
      <point x="350" y="224" type="move"/>
      <point x="317" y="225"/>
      <point x="286" y="227"/>
      <point x="257" y="227" type="curve" smooth="yes"/>
      <point x="183" y="227"/>
      <point x="134" y="208"/>
      <point x="104" y="176" type="curve" smooth="yes"/>
      <point x="83" y="155"/>
      <point x="76" y="131"/>
      <point x="76" y="105" type="curve" smooth="yes"/>
      <point x="76" y="67"/>
      <point x="102" y="20"/>
      <point x="174" y="20" type="curve" smooth="yes"/>
      <point x="248" y="20"/>
      <point x="303" y="51"/>
      <point x="351" y="120" type="curve"/>
    </contour>
    <contour>
      <point x="389" y="22" type="move"/>
      <point x="389" y="-15" type="line"/>
      <point x="302" y="-88"/>
      <point x="285" y="-118"/>
      <point x="285" y="-146" type="curve" smooth="yes"/>
      <point x="285" y="-183"/>
      <point x="325" y="-209"/>
      <point x="404" y="-209" type="curve"/>
    </contour>
  </outline>
</glyph>
<glyph name="cacute" format="1">
  <advance width="440"/>
  <unicode hex="0107"/>
  <outline>
    <contour>
      <point x="351" y="352" type="move"/>
      <point x="324" y="361"/>
      <point x="291" y="368"/>
      <point x="262" y="368" type="curve" smooth="yes"/>
      <point x="143" y="368"/>
      <point x="75" y="288"/>
      <point x="75" y="179" type="curve" smooth="yes"/>
      <point x="75" y="83"/>
      <point x="141" y="9"/>
      <point x="261" y="9" type="curve" smooth="yes"/>
      <point x="302" y="9"/>
      <point x="336" y="17"/>
      <point x="364" y="29" type="curve"/>
    </contour>
    <contour>
      <point x="320" y="611" type="move"/>
      <point x="291" y="579"/>
      <point x="264" y="545"/>
      <point x="238" y="513" type="curve"/>
    </contour>
  </outline>
</glyph>
<glyph name="Ccaron" format="1">
  <advance width="570"/>
  <unicode hex="010C"/>
  <outline>
    <contour>
      <point x="474" y="494" type="move"/>
      <point x="441" y="513"/>
      <point x="390" y="524"/>
      <point x="337" y="524" type="curve" smooth="yes"/>
      <point x="203" y="524"/>
      <point x="86" y="417"/>
      <point x="86" y="257" type="curve" smooth="yes"/>
      <point x="86" y="110"/>
      <point x="180" y="-4"/>
      <point x="343" y="-4" type="curve" smooth="yes"/>
      <point x="396" y="-4"/>
      <point x="442" y="8"/>
      <point x="479" y="28" type="curve"/>
    </contour>
    <contour>
      <point x="330" y="668" type="move"/>
      <point x="364" y="693"/>
      <point x="399" y="719"/>
      <point x="427" y="741" type="curve"/>
    </contour>
    <contour>
      <point x="227" y="741" type="move"/>
      <point x="255" y="719"/>
      <point x="289" y="693"/>
      <point x="324" y="668" type="curve"/>
    </contour>
  </outline>
</glyph>
<glyph name="ccaron" format="1">
  <advance width="440"/>
  <unicode hex="010D"/>
  <outline>
    <contour>
      <point x="351" y="352" type="move"/>
      <point x="324" y="362"/>
      <point x="291" y="368"/>
      <point x="262" y="368" type="curve" smooth="yes"/>
      <point x="143" y="368"/>
      <point x="75" y="288"/>
      <point x="75" y="179" type="curve" smooth="yes"/>
      <point x="75" y="83"/>
      <point x="141" y="9"/>
      <point x="261" y="9" type="curve" smooth="yes"/>
      <point x="302" y="9"/>
      <point x="336" y="17"/>
      <point x="364" y="29" type="curve"/>
    </contour>
    <contour>
      <point x="156" y="602" type="move"/>
      <point x="181" y="575"/>
      <point x="218" y="536"/>
      <point x="242" y="511" type="curve"/>
    </contour>
    <contour>
      <point x="248" y="511" type="move"/>
      <point x="271" y="535"/>
      <point x="308" y="575"/>
      <point x="335" y="602" type="curve"/>
    </contour>
  </outline>
</glyph>
<glyph name="Dcaron" format="1">
  <advance width="617"/>
  <unicode hex="010E"/>
  <outline>
    <contour>
      <point x="301" y="5" type="line" smooth="yes"/>
      <point x="441" y="5"/>
      <point x="530" y="119"/>
      <point x="530" y="261" type="curve" smooth="yes"/>
      <point x="530" y="410"/>
      <point x="422" y="515"/>
      <point x="301" y="515" type="curve" smooth="yes"/>
      <point x="124" y="515" type="line"/>
      <point x="124" y="5" type="line"/>
    </contour>
    <contour>
      <point x="277" y="668" type="move"/>
      <point x="310" y="693"/>
      <point x="346" y="718"/>
      <point x="374" y="741" type="curve"/>
    </contour>
    <contour>
      <point x="174" y="741" type="move"/>
      <point x="202" y="718"/>
      <point x="236" y="693"/>
      <point x="270" y="668" type="curve"/>
    </contour>
  </outline>
</glyph>
<glyph name="dcaron" format="1">
  <advance width="636"/>
  <unicode hex="010F"/>
  <outline>
    <contour>
      <point x="590" y="574" type="move"/>
      <point x="570" y="429" type="line"/>
    </contour>
    <contour>
      <point x="398" y="307" type="move"/>
      <point x="353" y="346"/>
      <point x="307" y="369"/>
      <point x="247" y="369" type="curve" smooth="yes"/>
      <point x="148" y="369"/>
      <point x="75" y="290"/>
      <point x="75" y="181" type="curve" smooth="yes"/>
      <point x="75" y="77"/>
      <point x="140" y="10"/>
      <point x="226" y="10" type="curve" smooth="yes"/>
      <point x="302" y="10"/>
      <point x="358" y="63"/>
      <point x="397" y="132" type="curve"/>
    </contour>
    <contour>
      <point x="398" y="546" type="move"/>
      <point x="398" y="10" type="line" smooth="yes"/>
    </contour>
  </outline>
</glyph>
<glyph name="dcroat" format="1">
  <advance width="511"/>
  <unicode hex="0111"/>
  <outline>
    <contour>
      <point x="398" y="307" type="move"/>
      <point x="353" y="346"/>
      <point x="307" y="369"/>
      <point x="247" y="369" type="curve" smooth="yes"/>
      <point x="148" y="369"/>
      <point x="75" y="291"/>
      <point x="75" y="181" type="curve" smooth="yes"/>
      <point x="75" y="77"/>
      <point x="140" y="10"/>
      <point x="226" y="10" type="curve" smooth="yes"/>
      <point x="302" y="10"/>
      <point x="358" y="64"/>
      <point x="397" y="133" type="curve"/>
    </contour>
    <contour>
      <point x="398" y="547" type="move"/>
      <point x="398" y="10" type="line" smooth="yes"/>
    </contour>
    <contour>
      <point x="454" y="483" type="move"/>
      <point x="288" y="483" type="line"/>
    </contour>
  </outline>
</glyph>
<glyph name="Emacron" format="1">
  <advance width="491"/>
  <unicode hex="0112"/>
  <outline>
    <contour>
      <point x="124" y="516" type="move"/>
      <point x="124" y="6" type="line"/>
    </contour>
    <contour>
      <point x="132" y="6" type="move"/>
      <point x="405" y="6" type="line"/>
    </contour>
    <contour>
      <point x="132" y="516" type="move"/>
      <point x="403" y="516" type="line"/>
    </contour>
    <contour>
      <point x="132" y="281" type="move"/>
      <point x="360" y="281" type="line"/>
    </contour>
    <contour>
      <point x="364" y="701" type="move"/>
      <point x="133" y="701" type="line"/>
    </contour>
  </outline>
</glyph>
<glyph name="emacron" format="1">
  <advance width="464"/>
  <unicode hex="0113"/>
  <outline>
    <contour>
      <point x="87" y="189" type="move"/>
      <point x="299" y="189" type="line" smooth="yes"/>
      <point x="359" y="189"/>
      <point x="381" y="214"/>
      <point x="381" y="254" type="curve" smooth="yes"/>
      <point x="381" y="304"/>
      <point x="327" y="369"/>
      <point x="244" y="369" type="curve" smooth="yes"/>
      <point x="150" y="369"/>
      <point x="75" y="295"/>
      <point x="75" y="184" type="curve" smooth="yes"/>
      <point x="75" y="71"/>
      <point x="153" y="10"/>
      <point x="264" y="10" type="curve" smooth="yes"/>
      <point x="300" y="10"/>
      <point x="336" y="19"/>
      <point x="362" y="29" type="curve"/>
      <point x="362" y="29"/>
    </contour>
    <contour>
      <point x="331" y="550" type="move"/>
      <point x="129" y="550" type="line"/>
    </contour>
  </outline>
</glyph>
<glyph name="Edotaccent" format="1">
  <advance width="491"/>
  <unicode hex="0116"/>
  <outline>
    <contour>
      <point x="124" y="515" type="move"/>
      <point x="124" y="6" type="line"/>
    </contour>
    <contour>
      <point x="132" y="6" type="move"/>
      <point x="405" y="6" type="line"/>
    </contour>
    <contour>
      <point x="132" y="515" type="move"/>
      <point x="403" y="515" type="line"/>
    </contour>
    <contour>
      <point x="132" y="280" type="move"/>
      <point x="360" y="280" type="line"/>
    </contour>
    <contour>
      <point x="261" y="732" type="curve" smooth="yes"/>
      <point x="248" y="732"/>
      <point x="240" y="718"/>
      <point x="240" y="703" type="curve" smooth="yes"/>
      <point x="240" y="689"/>
      <point x="248" y="677"/>
      <point x="261" y="677" type="curve" smooth="yes"/>
      <point x="273" y="677"/>
      <point x="279" y="689"/>
      <point x="279" y="703" type="curve" smooth="yes"/>
      <point x="279" y="718"/>
      <point x="273" y="732"/>
    </contour>
  </outline>
</glyph>
<glyph name="edotaccent" format="1">
  <advance width="464"/>
  <unicode hex="0117"/>
  <outline>
    <contour>
      <point x="87" y="188" type="move"/>
      <point x="299" y="188" type="line" smooth="yes"/>
      <point x="359" y="188"/>
      <point x="381" y="213"/>
      <point x="381" y="253" type="curve" smooth="yes"/>
      <point x="381" y="303"/>
      <point x="327" y="368"/>
      <point x="244" y="368" type="curve" smooth="yes"/>
      <point x="150" y="368"/>
      <point x="75" y="294"/>
      <point x="75" y="184" type="curve" smooth="yes"/>
      <point x="75" y="70"/>
      <point x="153" y="9"/>
      <point x="264" y="9" type="curve" smooth="yes"/>
      <point x="300" y="9"/>
      <point x="336" y="18"/>
      <point x="362" y="28" type="curve"/>
      <point x="362" y="28"/>
    </contour>
    <contour>
      <point x="232" y="586" type="curve" smooth="yes"/>
      <point x="220" y="586"/>
      <point x="213" y="572"/>
      <point x="213" y="558" type="curve" smooth="yes"/>
      <point x="213" y="545"/>
      <point x="220" y="533"/>
      <point x="232" y="533" type="curve" smooth="yes"/>
      <point x="243" y="533"/>
      <point x="249" y="545"/>
      <point x="249" y="558" type="curve" smooth="yes"/>
      <point x="249" y="572"/>
      <point x="243" y="586"/>
    </contour>
  </outline>
</glyph>
<glyph name="Eogonek" format="1">
  <advance width="491"/>
  <unicode hex="0118"/>
  <outline>
    <contour>
      <point x="124" y="526" type="move"/>
      <point x="124" y="16" type="line"/>
    </contour>
    <contour>
      <point x="132" y="16" type="move"/>
      <point x="405" y="16" type="line"/>
    </contour>
    <contour>
      <point x="132" y="526" type="move"/>
      <point x="403" y="526" type="line"/>
    </contour>
    <contour>
      <point x="132" y="290" type="move"/>
      <point x="360" y="290" type="line"/>
    </contour>
    <contour>
      <point x="409" y="17" type="move"/>
      <point x="409" y="-19" type="line"/>
      <point x="323" y="-93"/>
      <point x="305" y="-122"/>
      <point x="305" y="-151" type="curve" smooth="yes"/>
      <point x="305" y="-187"/>
      <point x="346" y="-214"/>
      <point x="424" y="-214" type="curve"/>
    </contour>
  </outline>
</glyph>
<glyph name="eogonek" format="1">
  <advance width="464"/>
  <unicode hex="0119"/>
  <outline>
    <contour>
      <point x="87" y="198" type="move"/>
      <point x="299" y="198" type="line" smooth="yes"/>
      <point x="359" y="198"/>
      <point x="381" y="224"/>
      <point x="381" y="263" type="curve" smooth="yes"/>
      <point x="381" y="314"/>
      <point x="327" y="379"/>
      <point x="244" y="379" type="curve" smooth="yes"/>
      <point x="150" y="379"/>
      <point x="75" y="304"/>
      <point x="75" y="194" type="curve" smooth="yes"/>
      <point x="75" y="81"/>
      <point x="153" y="20"/>
      <point x="264" y="20" type="curve" smooth="yes"/>
      <point x="300" y="20"/>
      <point x="336" y="28"/>
      <point x="362" y="39" type="curve"/>
      <point x="362" y="39"/>
    </contour>
    <contour>
      <point x="362" y="26" type="move"/>
      <point x="362" y="-11" type="line"/>
      <point x="276" y="-84"/>
      <point x="258" y="-114"/>
      <point x="258" y="-142" type="curve" smooth="yes"/>
      <point x="258" y="-179"/>
      <point x="299" y="-205"/>
      <point x="377" y="-205" type="curve"/>
    </contour>
  </outline>
</glyph>
<glyph name="Ecaron" format="1">
  <advance width="491"/>
  <unicode hex="011A"/>
  <outline>
    <contour>
      <point x="124" y="515" type="move"/>
      <point x="124" y="5" type="line"/>
    </contour>
    <contour>
      <point x="132" y="5" type="move"/>
      <point x="405" y="5" type="line"/>
    </contour>
    <contour>
      <point x="132" y="515" type="move"/>
      <point x="403" y="515" type="line"/>
    </contour>
    <contour>
      <point x="132" y="280" type="move"/>
      <point x="360" y="280" type="line"/>
    </contour>
    <contour>
      <point x="258" y="668" type="move"/>
      <point x="291" y="693"/>
      <point x="326" y="718"/>
      <point x="355" y="741" type="curve"/>
    </contour>
    <contour>
      <point x="155" y="741" type="move"/>
      <point x="182" y="718"/>
      <point x="217" y="693"/>
      <point x="251" y="668" type="curve"/>
    </contour>
  </outline>
</glyph>
<glyph name="ecaron" format="1">
  <advance width="464"/>
  <unicode hex="011B"/>
  <outline>
    <contour>
      <point x="87" y="187" type="move"/>
      <point x="299" y="187" type="line" smooth="yes"/>
      <point x="359" y="187"/>
      <point x="381" y="213"/>
      <point x="381" y="252" type="curve" smooth="yes"/>
      <point x="381" y="303"/>
      <point x="327" y="368"/>
      <point x="244" y="368" type="curve" smooth="yes"/>
      <point x="150" y="368"/>
      <point x="75" y="293"/>
      <point x="75" y="183" type="curve" smooth="yes"/>
      <point x="75" y="70"/>
      <point x="153" y="9"/>
      <point x="264" y="9" type="curve" smooth="yes"/>
      <point x="300" y="9"/>
      <point x="336" y="17"/>
      <point x="362" y="28" type="curve"/>
      <point x="362" y="28"/>
    </contour>
    <contour>
      <point x="143" y="602" type="move"/>
      <point x="169" y="575"/>
      <point x="205" y="536"/>
      <point x="229" y="511" type="curve"/>
    </contour>
    <contour>
      <point x="236" y="511" type="move"/>
      <point x="259" y="535"/>
      <point x="297" y="575"/>
      <point x="323" y="602" type="curve"/>
    </contour>
  </outline>
</glyph>
<glyph name="Gbreve" format="1">
  <advance width="623"/>
  <unicode hex="011E"/>
  <outline>
    <contour>
      <point x="485" y="496" type="move"/>
      <point x="443" y="513"/>
      <point x="395" y="524"/>
      <point x="338" y="524" type="curve" smooth="yes"/>
      <point x="193" y="524"/>
      <point x="86" y="417"/>
      <point x="86" y="257" type="curve" smooth="yes"/>
      <point x="86" y="112"/>
      <point x="178" y="-4"/>
      <point x="335" y="-4" type="curve" smooth="yes"/>
      <point x="412" y="-4"/>
      <point x="468" y="17"/>
      <point x="516" y="48" type="curve"/>
      <point x="516" y="48"/>
    </contour>
    <contour>
      <point x="516" y="58" type="move"/>
      <point x="516" y="241" type="line"/>
    </contour>
    <contour>
      <point x="505" y="241" type="move"/>
      <point x="350" y="241" type="line"/>
    </contour>
    <contour>
      <point x="204" y="746" type="move"/>
      <point x="233" y="707"/>
      <point x="276" y="680"/>
      <point x="324" y="680" type="curve" smooth="yes"/>
      <point x="377" y="680"/>
      <point x="415" y="706"/>
      <point x="441" y="746" type="curve"/>
    </contour>
  </outline>
</glyph>
<glyph name="gbreve" format="1">
  <advance width="507"/>
  <unicode hex="011F"/>
  <outline>
    <contour>
      <point x="396" y="334" type="move"/>
      <point x="344" y="360"/>
      <point x="308" y="373"/>
      <point x="252" y="373" type="curve" smooth="yes"/>
      <point x="162" y="373"/>
      <point x="75" y="299"/>
      <point x="75" y="184" type="curve" smooth="yes"/>
      <point x="75" y="74"/>
      <point x="146" y="26"/>
      <point x="218" y="26" type="curve" smooth="yes"/>
      <point x="284" y="26"/>
      <point x="350" y="65"/>
      <point x="396" y="139" type="curve"/>
    </contour>
    <contour>
      <point x="163" y="-176" type="move"/>
      <point x="324" y="-176"/>
      <point x="396" y="-82"/>
      <point x="396" y="62" type="curve" smooth="yes"/>
      <point x="396" y="373" type="line"/>
    </contour>
    <contour>
      <point x="147" y="595" type="move"/>
      <point x="172" y="558"/>
      <point x="207" y="531"/>
      <point x="250" y="531" type="curve" smooth="yes"/>
      <point x="298" y="531"/>
      <point x="326" y="557"/>
      <point x="349" y="595" type="curve"/>
    </contour>
  </outline>
</glyph>
<glyph name="Imacron" format="1">
  <advance width="258"/>
  <unicode hex="012A"/>
  <outline>
    <contour>
      <point x="129" y="516" type="move"/>
      <point x="129" y="6" type="line"/>
    </contour>
    <contour>
      <point x="223" y="701" type="move"/>
      <point x="36" y="701" type="line"/>
    </contour>
  </outline>
</glyph>
<glyph name="imacron" format="1">
  <advance width="208"/>
  <unicode hex="012B"/>
  <outline>
    <contour>
      <point x="104" y="10" type="move"/>
      <point x="104" y="369" type="line"/>
    </contour>
    <contour>
      <point x="175" y="550" type="move"/>
      <point x="34" y="550" type="line"/>
    </contour>
  </outline>
</glyph>
<glyph name="Iogonek" format="1">
  <advance width="258"/>
  <unicode hex="012E"/>
  <outline>
    <contour>
      <point x="129" y="526" type="move"/>
      <point x="129" y="16" type="line"/>
    </contour>
    <contour>
      <point x="129" y="16" type="move"/>
      <point x="129" y="-20" type="line"/>
      <point x="42" y="-94"/>
      <point x="25" y="-123"/>
      <point x="25" y="-152" type="curve" smooth="yes"/>
      <point x="25" y="-188"/>
      <point x="65" y="-215"/>
      <point x="144" y="-215" type="curve"/>
    </contour>
  </outline>
</glyph>
<glyph name="iogonek" format="1">
  <advance width="208"/>
  <unicode hex="012F"/>
  <outline>
    <contour>
      <point x="117" y="15" type="move"/>
      <point x="117" y="374" type="line"/>
    </contour>
    <contour>
      <point x="117" y="592" type="curve" smooth="yes"/>
      <point x="105" y="592"/>
      <point x="99" y="579"/>
      <point x="99" y="565" type="curve" smooth="yes"/>
      <point x="99" y="551"/>
      <point x="106" y="540"/>
      <point x="118" y="540" type="curve" smooth="yes"/>
      <point x="129" y="540"/>
      <point x="135" y="551"/>
      <point x="135" y="565" type="curve" smooth="yes"/>
      <point x="135" y="579"/>
      <point x="129" y="592"/>
    </contour>
    <contour>
      <point x="117" y="14" type="move"/>
      <point x="117" y="-23" type="line"/>
      <point x="31" y="-97"/>
      <point x="13" y="-126"/>
      <point x="13" y="-154" type="curve" smooth="yes"/>
      <point x="13" y="-191"/>
      <point x="54" y="-217"/>
      <point x="132" y="-217" type="curve"/>
    </contour>
  </outline>
</glyph>
<glyph name="Idotaccent" format="1">
  <advance width="258"/>
  <unicode hex="0130"/>
  <outline>
    <contour>
      <point x="129" y="515" type="move"/>
      <point x="129" y="6" type="line"/>
    </contour>
    <contour>
      <point x="130" y="732" type="curve" smooth="yes"/>
      <point x="117" y="732"/>
      <point x="108" y="718"/>
      <point x="108" y="703" type="curve" smooth="yes"/>
      <point x="108" y="689"/>
      <point x="117" y="677"/>
      <point x="130" y="677" type="curve" smooth="yes"/>
      <point x="141" y="677"/>
      <point x="148" y="689"/>
      <point x="148" y="703" type="curve" smooth="yes"/>
      <point x="148" y="718"/>
      <point x="141" y="732"/>
    </contour>
  </outline>
</glyph>
<glyph name="lacute" format="1">
  <advance width="234"/>
  <unicode hex="013A"/>
  <outline>
    <contour>
      <point x="117" y="5" type="move"/>
      <point x="117" y="542" type="line"/>
    </contour>
    <contour>
      <point x="195" y="760" type="move"/>
      <point x="166" y="727"/>
      <point x="139" y="694"/>
      <point x="113" y="661" type="curve"/>
    </contour>
  </outline>
</glyph>
<glyph name="uni013B" format="1">
  <advance width="472"/>
  <unicode hex="013B"/>
  <outline>
    <contour>
      <point x="124" y="527" type="move"/>
      <point x="124" y="17" type="line"/>
    </contour>
    <contour>
      <point x="132" y="17" type="move"/>
      <point x="397" y="17" type="line"/>
    </contour>
    <contour>
      <point x="266" y="-116" type="move"/>
      <point x="273" y="-128"/>
      <point x="276" y="-141"/>
      <point x="276" y="-155" type="curve" smooth="yes"/>
      <point x="276" y="-195"/>
      <point x="245" y="-230"/>
      <point x="198" y="-254" type="curve"/>
    </contour>
  </outline>
</glyph>
<glyph name="uni013C" format="1">
  <advance width="234"/>
  <unicode hex="013C"/>
  <outline>
    <contour>
      <point x="117" y="17" type="move"/>
      <point x="117" y="553" type="line"/>
    </contour>
    <contour>
      <point x="116" y="-117" type="move"/>
      <point x="122" y="-128"/>
      <point x="125" y="-142"/>
      <point x="125" y="-156" type="curve" smooth="yes"/>
      <point x="125" y="-195"/>
      <point x="95" y="-231"/>
      <point x="47" y="-254" type="curve"/>
    </contour>
  </outline>
</glyph>
<glyph name="Lcaron" format="1">
  <advance width="463"/>
  <unicode hex="013D"/>
  <outline>
    <contour>
      <point x="324" y="533" type="move"/>
      <point x="303" y="388" type="line"/>
    </contour>
    <contour>
      <point x="124" y="520" type="move"/>
      <point x="124" y="11" type="line"/>
    </contour>
    <contour>
      <point x="132" y="11" type="move"/>
      <point x="397" y="11" type="line"/>
    </contour>
  </outline>
</glyph>
<glyph name="Lslash" format="1">
  <advance width="478"/>
  <unicode hex="0141"/>
  <outline>
    <contour>
      <point x="279" y="349" type="move"/>
      <point x="62" y="200" type="line"/>
    </contour>
    <contour>
      <point x="139" y="520" type="move"/>
      <point x="139" y="11" type="line"/>
    </contour>
    <contour>
      <point x="147" y="11" type="move"/>
      <point x="412" y="11" type="line"/>
    </contour>
  </outline>
</glyph>
<glyph name="lslash" format="1">
  <advance width="246"/>
  <unicode hex="0142"/>
  <outline>
    <contour>
      <point x="203" y="358" type="move"/>
      <point x="45" y="240" type="line"/>
    </contour>
    <contour>
      <point x="123" y="10" type="move"/>
      <point x="123" y="547" type="line"/>
    </contour>
  </outline>
</glyph>
<glyph name="Nacute" format="1">
  <advance width="640"/>
  <unicode hex="0143"/>
  <outline>
    <contour>
      <point x="124" y="515" type="move"/>
      <point x="124" y="6" type="line"/>
    </contour>
    <contour>
      <point x="516" y="515" type="move"/>
      <point x="516" y="6" type="line"/>
    </contour>
    <contour>
      <point x="130" y="515" type="move"/>
      <point x="205" y="410"/>
      <point x="402" y="156"/>
      <point x="510" y="6" type="curve"/>
    </contour>
    <contour>
      <point x="451" y="722" type="move"/>
      <point x="405" y="694"/>
      <point x="357" y="661"/>
      <point x="327" y="639" type="curve"/>
    </contour>
  </outline>
</glyph>
<glyph name="nacute" format="1">
  <advance width="501"/>
  <unicode hex="0144"/>
  <outline>
    <contour>
      <point x="111" y="9" type="move"/>
      <point x="111" y="368" type="line"/>
    </contour>
    <contour>
      <point x="400" y="9" type="move"/>
      <point x="400" y="219" type="line" smooth="yes"/>
      <point x="400" y="329"/>
      <point x="351" y="368"/>
      <point x="287" y="368" type="curve" smooth="yes"/>
      <point x="224" y="368"/>
      <point x="163" y="327"/>
      <point x="115" y="276" type="curve"/>
    </contour>
    <contour>
      <point x="333" y="611" type="move"/>
      <point x="304" y="579"/>
      <point x="277" y="545"/>
      <point x="251" y="513" type="curve"/>
    </contour>
  </outline>
</glyph>
<glyph name="Ncaron" format="1">
  <advance width="640"/>
  <unicode hex="0147"/>
  <outline>
    <contour>
      <point x="124" y="515" type="move"/>
      <point x="124" y="6" type="line"/>
    </contour>
    <contour>
      <point x="516" y="515" type="move"/>
      <point x="516" y="6" type="line"/>
    </contour>
    <contour>
      <point x="130" y="515" type="move"/>
      <point x="205" y="410"/>
      <point x="402" y="156"/>
      <point x="510" y="6" type="curve"/>
    </contour>
    <contour>
      <point x="321" y="648" type="move"/>
      <point x="354" y="673"/>
      <point x="389" y="698"/>
      <point x="418" y="720" type="curve"/>
    </contour>
    <contour>
      <point x="217" y="720" type="move"/>
      <point x="245" y="698"/>
      <point x="279" y="673"/>
      <point x="314" y="648" type="curve"/>
    </contour>
  </outline>
</glyph>
<glyph name="ncaron" format="1">
  <advance width="501"/>
  <unicode hex="0148"/>
  <outline>
    <contour>
      <point x="111" y="9" type="move"/>
      <point x="111" y="368" type="line"/>
    </contour>
    <contour>
      <point x="400" y="9" type="move"/>
      <point x="400" y="219" type="line" smooth="yes"/>
      <point x="400" y="329"/>
      <point x="351" y="368"/>
      <point x="287" y="368" type="curve" smooth="yes"/>
      <point x="224" y="368"/>
      <point x="163" y="327"/>
      <point x="115" y="277" type="curve"/>
    </contour>
    <contour>
      <point x="150" y="602" type="move"/>
      <point x="177" y="575"/>
      <point x="213" y="536"/>
      <point x="237" y="511" type="curve"/>
    </contour>
    <contour>
      <point x="243" y="511" type="move"/>
      <point x="266" y="535"/>
      <point x="303" y="575"/>
      <point x="329" y="602" type="curve"/>
    </contour>
  </outline>
</glyph>
<glyph name="Omacron" format="1">
  <advance width="645"/>
  <unicode hex="014C"/>
  <outline>
    <contour>
      <point x="324" y="525" type="curve" smooth="yes"/>
      <point x="182" y="525"/>
      <point x="86" y="416"/>
      <point x="86" y="258" type="curve" smooth="yes"/>
      <point x="86" y="113"/>
      <point x="184" y="-3"/>
      <point x="324" y="-3" type="curve" smooth="yes"/>
      <point x="472" y="-3"/>
      <point x="559" y="113"/>
      <point x="559" y="261" type="curve" smooth="yes"/>
      <point x="559" y="416"/>
      <point x="455" y="525"/>
    </contour>
    <contour>
      <point x="454" y="701" type="move"/>
      <point x="173" y="701" type="line"/>
    </contour>
  </outline>
</glyph>
<glyph name="omacron" format="1">
  <advance width="499"/>
  <unicode hex="014D"/>
  <outline>
    <contour>
      <point x="249" y="374" type="curve" smooth="yes"/>
      <point x="140" y="374"/>
      <point x="74" y="289"/>
      <point x="74" y="187" type="curve" smooth="yes"/>
      <point x="74" y="85"/>
      <point x="142" y="6"/>
      <point x="249" y="6" type="curve" smooth="yes"/>
      <point x="356" y="6"/>
      <point x="424" y="84"/>
      <point x="424" y="185" type="curve" smooth="yes"/>
      <point x="424" y="289"/>
      <point x="357" y="374"/>
    </contour>
    <contour>
      <point x="350" y="550" type="move"/>
      <point x="148" y="550" type="line"/>
    </contour>
  </outline>
</glyph>
<glyph name="Ohungarumlaut" format="1">
  <advance width="645"/>
  <unicode hex="0150"/>
  <outline>
    <contour>
      <point x="324" y="524" type="curve" smooth="yes"/>
      <point x="182" y="524"/>
      <point x="86" y="415"/>
      <point x="86" y="256" type="curve" smooth="yes"/>
      <point x="86" y="111"/>
      <point x="184" y="-4"/>
      <point x="324" y="-4" type="curve" smooth="yes"/>
      <point x="472" y="-4"/>
      <point x="559" y="111"/>
      <point x="559" y="259" type="curve" smooth="yes"/>
      <point x="559" y="415"/>
      <point x="455" y="524"/>
    </contour>
    <contour>
      <point x="262" y="757" type="move"/>
      <point x="240" y="720"/>
      <point x="225" y="689"/>
      <point x="213" y="657" type="curve"/>
    </contour>
    <contour>
      <point x="468" y="757" type="move"/>
      <point x="446" y="720"/>
      <point x="431" y="689"/>
      <point x="420" y="657" type="curve"/>
    </contour>
  </outline>
</glyph>
<glyph name="ohungarumlaut" format="1">
  <advance width="499"/>
  <unicode hex="0151"/>
  <outline>
    <contour>
      <point x="249" y="372" type="curve" smooth="yes"/>
      <point x="140" y="372"/>
      <point x="74" y="287"/>
      <point x="74" y="185" type="curve" smooth="yes"/>
      <point x="74" y="83"/>
      <point x="142" y="5"/>
      <point x="249" y="5" type="curve" smooth="yes"/>
      <point x="356" y="5"/>
      <point x="424" y="82"/>
      <point x="424" y="183" type="curve" smooth="yes"/>
      <point x="424" y="287"/>
      <point x="357" y="372"/>
    </contour>
    <contour>
      <point x="204" y="604" type="move"/>
      <point x="181" y="568"/>
      <point x="166" y="536"/>
      <point x="155" y="505" type="curve"/>
    </contour>
    <contour>
      <point x="370" y="604" type="move"/>
      <point x="348" y="568"/>
      <point x="333" y="536"/>
      <point x="321" y="505" type="curve"/>
    </contour>
  </outline>
</glyph>
<glyph name="OE" format="1">
  <advance width="818"/>
  <unicode hex="0152"/>
  <outline>
    <contour>
      <point x="459" y="520" type="move"/>
      <point x="324" y="520" type="line" smooth="yes"/>
      <point x="182" y="520"/>
      <point x="86" y="415"/>
      <point x="86" y="263" type="curve" smooth="yes"/>
      <point x="86" y="122"/>
      <point x="184" y="11"/>
      <point x="324" y="11" type="curve" smooth="yes"/>
      <point x="488" y="11" type="line"/>
    </contour>
    <contour>
      <point x="450" y="520" type="move"/>
      <point x="450" y="11" type="line"/>
    </contour>
    <contour>
      <point x="459" y="11" type="move"/>
      <point x="732" y="11" type="line"/>
    </contour>
    <contour>
      <point x="459" y="520" type="move"/>
      <point x="730" y="520" type="line"/>
    </contour>
    <contour>
      <point x="459" y="285" type="move"/>
      <point x="686" y="285" type="line"/>
    </contour>
  </outline>
</glyph>
<glyph name="oe" format="1">
  <advance width="813"/>
  <unicode hex="0153"/>
  <outline>
    <contour>
      <point x="249" y="378" type="curve" smooth="yes"/>
      <point x="140" y="378"/>
      <point x="74" y="293"/>
      <point x="74" y="191" type="curve" smooth="yes"/>
      <point x="74" y="89"/>
      <point x="142" y="10"/>
      <point x="249" y="10" type="curve" smooth="yes"/>
      <point x="356" y="10"/>
      <point x="424" y="88"/>
      <point x="424" y="189" type="curve" smooth="yes"/>
      <point x="424" y="293"/>
      <point x="357" y="378"/>
    </contour>
    <contour>
      <point x="436" y="193" type="move"/>
      <point x="646" y="193" type="line" smooth="yes"/>
      <point x="707" y="193"/>
      <point x="729" y="218"/>
      <point x="729" y="258" type="curve" smooth="yes"/>
      <point x="729" y="308"/>
      <point x="676" y="374"/>
      <point x="591" y="374" type="curve" smooth="yes"/>
      <point x="498" y="374"/>
      <point x="422" y="299"/>
      <point x="422" y="189" type="curve" smooth="yes"/>
      <point x="422" y="75"/>
      <point x="500" y="14"/>
      <point x="612" y="14" type="curve" smooth="yes"/>
      <point x="648" y="14"/>
      <point x="684" y="23"/>
      <point x="709" y="33" type="curve"/>
      <point x="709" y="33"/>
    </contour>
  </outline>
</glyph>
<glyph name="Racute" format="1">
  <advance width="545"/>
  <unicode hex="0154"/>
  <outline>
    <contour>
      <point x="140" y="214" type="move"/>
      <point x="273" y="214" type="line" smooth="yes"/>
      <point x="384" y="214"/>
      <point x="440" y="283"/>
      <point x="440" y="365" type="curve" smooth="yes"/>
      <point x="440" y="453"/>
      <point x="373" y="515"/>
      <point x="273" y="515" type="curve" smooth="yes"/>
      <point x="124" y="515" type="line"/>
      <point x="124" y="5" type="line"/>
    </contour>
    <contour>
      <point x="301" y="208" type="move"/>
      <point x="468" y="5" type="line"/>
    </contour>
    <contour>
      <point x="372" y="743" type="move"/>
      <point x="325" y="714"/>
      <point x="277" y="682"/>
      <point x="248" y="660" type="curve"/>
    </contour>
  </outline>
</glyph>
<glyph name="racute" format="1">
  <advance width="348"/>
  <unicode hex="0155"/>
  <outline>
    <contour>
      <point x="111" y="9" type="move"/>
      <point x="111" y="368" type="line"/>
    </contour>
    <contour>
      <point x="112" y="230" type="move"/>
      <point x="159" y="307"/>
      <point x="216" y="356"/>
      <point x="304" y="368" type="curve"/>
    </contour>
    <contour>
      <point x="263" y="611" type="move"/>
      <point x="235" y="579"/>
      <point x="207" y="545"/>
      <point x="181" y="513" type="curve"/>
    </contour>
  </outline>
</glyph>
<glyph name="rcaron" format="1">
  <advance width="348"/>
  <unicode hex="0159"/>
  <outline>
    <contour>
      <point x="111" y="9" type="move"/>
      <point x="111" y="368" type="line"/>
    </contour>
    <contour>
      <point x="112" y="230" type="move"/>
      <point x="159" y="307"/>
      <point x="216" y="356"/>
      <point x="304" y="368" type="curve"/>
    </contour>
    <contour>
      <point x="102" y="602" type="move"/>
      <point x="128" y="575"/>
      <point x="164" y="536"/>
      <point x="188" y="511" type="curve"/>
    </contour>
    <contour>
      <point x="195" y="511" type="move"/>
      <point x="218" y="535"/>
      <point x="255" y="575"/>
      <point x="281" y="602" type="curve"/>
    </contour>
  </outline>
</glyph>
<glyph name="Sacute" format="1">
  <advance width="529"/>
  <unicode hex="015A"/>
  <outline>
    <contour>
      <point x="396" y="490" type="move"/>
      <point x="348" y="510"/>
      <point x="315" y="521"/>
      <point x="245" y="521" type="curve" smooth="yes"/>
      <point x="159" y="521"/>
      <point x="108" y="468"/>
      <point x="108" y="412" type="curve" smooth="yes"/>
      <point x="108" y="360"/>
      <point x="132" y="301"/>
      <point x="266" y="273" type="curve" smooth="yes"/>
      <point x="389" y="245"/>
      <point x="430" y="192"/>
      <point x="430" y="124" type="curve" smooth="yes"/>
      <point x="430" y="57"/>
      <point x="380" y="-4"/>
      <point x="265" y="-4" type="curve" smooth="yes"/>
      <point x="204" y="-4"/>
      <point x="147" y="11"/>
      <point x="95" y="41" type="curve"/>
    </contour>
    <contour>
      <point x="381" y="743" type="move"/>
      <point x="335" y="714"/>
      <point x="286" y="682"/>
      <point x="257" y="660" type="curve"/>
    </contour>
  </outline>
</glyph>
<glyph name="sacute" format="1">
  <advance width="454"/>
  <unicode hex="015B"/>
  <outline>
    <contour>
      <point x="339" y="355" type="move"/>
      <point x="309" y="364"/>
      <point x="271" y="371"/>
      <point x="228" y="371" type="curve" smooth="yes"/>
      <point x="135" y="371"/>
      <point x="100" y="326"/>
      <point x="100" y="283" type="curve" smooth="yes"/>
      <point x="100" y="244"/>
      <point x="130" y="209"/>
      <point x="221" y="200" type="curve" smooth="yes"/>
      <point x="261" y="196" type="line" smooth="yes"/>
      <point x="340" y="187"/>
      <point x="372" y="145"/>
      <point x="372" y="99" type="curve" smooth="yes"/>
      <point x="372" y="51"/>
      <point x="335" y="5"/>
      <point x="235" y="5" type="curve" smooth="yes"/>
      <point x="187" y="5"/>
      <point x="138" y="14"/>
      <point x="94" y="34" type="curve"/>
    </contour>
    <contour>
      <point x="305" y="611" type="move"/>
      <point x="277" y="579"/>
      <point x="250" y="545"/>
      <point x="224" y="513" type="curve"/>
    </contour>
  </outline>
</glyph>
<glyph name="uni015E" format="1">
  <advance width="529"/>
  <unicode hex="015E"/>
  <outline>
    <contour>
      <point x="396" y="501" type="move"/>
      <point x="348" y="521"/>
      <point x="315" y="533"/>
      <point x="245" y="533" type="curve" smooth="yes"/>
      <point x="159" y="533"/>
      <point x="108" y="479"/>
      <point x="108" y="424" type="curve" smooth="yes"/>
      <point x="108" y="371"/>
      <point x="132" y="312"/>
      <point x="266" y="285" type="curve" smooth="yes"/>
      <point x="389" y="257"/>
      <point x="430" y="203"/>
      <point x="430" y="136" type="curve" smooth="yes"/>
      <point x="430" y="69"/>
      <point x="380" y="8"/>
      <point x="265" y="8" type="curve" smooth="yes"/>
      <point x="204" y="8"/>
      <point x="147" y="22"/>
      <point x="95" y="53" type="curve"/>
    </contour>
    <contour>
      <point x="265" y="-119" type="move"/>
      <point x="271" y="-131"/>
      <point x="275" y="-144"/>
      <point x="275" y="-158" type="curve" smooth="yes"/>
      <point x="275" y="-198"/>
      <point x="244" y="-234"/>
      <point x="197" y="-257" type="curve"/>
    </contour>
  </outline>
</glyph>
<glyph name="uni015F" format="1">
  <advance width="454"/>
  <unicode hex="015F"/>
  <outline>
    <contour>
      <point x="339" y="368" type="move"/>
      <point x="309" y="376"/>
      <point x="271" y="383"/>
      <point x="228" y="383" type="curve" smooth="yes"/>
      <point x="135" y="383"/>
      <point x="100" y="338"/>
      <point x="100" y="295" type="curve" smooth="yes"/>
      <point x="100" y="256"/>
      <point x="130" y="222"/>
      <point x="221" y="212" type="curve" smooth="yes"/>
      <point x="261" y="208" type="line" smooth="yes"/>
      <point x="340" y="200"/>
      <point x="372" y="158"/>
      <point x="372" y="111" type="curve" smooth="yes"/>
      <point x="372" y="63"/>
      <point x="335" y="17"/>
      <point x="235" y="17" type="curve" smooth="yes"/>
      <point x="187" y="17"/>
      <point x="138" y="26"/>
      <point x="94" y="46" type="curve"/>
    </contour>
    <contour>
      <point x="234" y="-120" type="move"/>
      <point x="240" y="-131"/>
      <point x="243" y="-145"/>
      <point x="243" y="-159" type="curve" smooth="yes"/>
      <point x="243" y="-198"/>
      <point x="213" y="-234"/>
      <point x="165" y="-257" type="curve"/>
    </contour>
  </outline>
</glyph>
<glyph name="Scaron" format="1">
  <advance width="529"/>
  <unicode hex="0160"/>
  <outline>
    <contour>
      <point x="396" y="490" type="move"/>
      <point x="348" y="510"/>
      <point x="315" y="521"/>
      <point x="245" y="521" type="curve" smooth="yes"/>
      <point x="159" y="521"/>
      <point x="108" y="468"/>
      <point x="108" y="412" type="curve" smooth="yes"/>
      <point x="108" y="360"/>
      <point x="132" y="301"/>
      <point x="266" y="273" type="curve" smooth="yes"/>
      <point x="389" y="245"/>
      <point x="430" y="192"/>
      <point x="430" y="124" type="curve" smooth="yes"/>
      <point x="430" y="57"/>
      <point x="380" y="-4"/>
      <point x="265" y="-4" type="curve" smooth="yes"/>
      <point x="204" y="-4"/>
      <point x="147" y="11"/>
      <point x="95" y="41" type="curve"/>
    </contour>
    <contour>
      <point x="260" y="668" type="move"/>
      <point x="294" y="693"/>
      <point x="328" y="719"/>
      <point x="357" y="741" type="curve"/>
    </contour>
    <contour>
      <point x="156" y="741" type="move"/>
      <point x="184" y="719"/>
      <point x="219" y="693"/>
      <point x="253" y="668" type="curve"/>
    </contour>
  </outline>
</glyph>
<glyph name="scaron" format="1">
  <advance width="454"/>
  <unicode hex="0161"/>
  <outline>
    <contour>
      <point x="339" y="355" type="move"/>
      <point x="309" y="364"/>
      <point x="271" y="371"/>
      <point x="228" y="371" type="curve" smooth="yes"/>
      <point x="135" y="371"/>
      <point x="100" y="326"/>
      <point x="100" y="283" type="curve" smooth="yes"/>
      <point x="100" y="244"/>
      <point x="130" y="210"/>
      <point x="221" y="200" type="curve" smooth="yes"/>
      <point x="261" y="196" type="line" smooth="yes"/>
      <point x="340" y="187"/>
      <point x="372" y="145"/>
      <point x="372" y="99" type="curve" smooth="yes"/>
      <point x="372" y="51"/>
      <point x="335" y="5"/>
      <point x="235" y="5" type="curve" smooth="yes"/>
      <point x="187" y="5"/>
      <point x="138" y="14"/>
      <point x="94" y="34" type="curve"/>
    </contour>
    <contour>
      <point x="129" y="602" type="move"/>
      <point x="156" y="575"/>
      <point x="192" y="536"/>
      <point x="216" y="511" type="curve"/>
    </contour>
    <contour>
      <point x="222" y="511" type="move"/>
      <point x="245" y="535"/>
      <point x="282" y="575"/>
      <point x="308" y="602" type="curve"/>
    </contour>
  </outline>
</glyph>
<glyph name="Tcaron" format="1">
  <advance width="550"/>
  <unicode hex="0164"/>
  <outline>
    <contour>
      <point x="274" y="515" type="move"/>
      <point x="274" y="5" type="line"/>
    </contour>
    <contour>
      <point x="60" y="515" type="move"/>
      <point x="491" y="515" type="line"/>
    </contour>
    <contour>
      <point x="278" y="668" type="move"/>
      <point x="311" y="693"/>
      <point x="347" y="718"/>
      <point x="375" y="741" type="curve"/>
    </contour>
    <contour>
      <point x="175" y="741" type="move"/>
      <point x="203" y="718"/>
      <point x="237" y="693"/>
      <point x="271" y="668" type="curve"/>
    </contour>
  </outline>
</glyph>
<glyph name="tcaron" format="1">
  <advance width="357"/>
  <unicode hex="0165"/>
  <outline>
    <contour>
      <point x="302" y="643" type="move"/>
      <point x="280" y="510" type="line"/>
    </contour>
    <contour>
      <point x="135" y="499" type="move"/>
      <point x="135" y="131" type="line" smooth="yes"/>
      <point x="135" y="53"/>
      <point x="180" y="10"/>
      <point x="281" y="8" type="curve"/>
    </contour>
    <contour>
      <point x="46" y="367" type="move"/>
      <point x="295" y="367" type="line"/>
    </contour>
  </outline>
</glyph>
<glyph name="umacron" format="1">
  <advance width="501"/>
  <unicode hex="016B"/>
  <outline>
    <contour>
      <point x="390" y="369" type="move"/>
      <point x="390" y="10" type="line"/>
    </contour>
    <contour>
      <point x="101" y="369" type="move"/>
      <point x="101" y="159" type="line" smooth="yes"/>
      <point x="101" y="49"/>
      <point x="149" y="10"/>
      <point x="214" y="10" type="curve" smooth="yes"/>
      <point x="277" y="10"/>
      <point x="344" y="62"/>
      <point x="386" y="123" type="curve"/>
    </contour>
    <contour>
      <point x="338" y="550" type="move"/>
      <point x="135" y="550" type="line"/>
    </contour>
  </outline>
</glyph>
<glyph name="Uring" format="1">
  <advance width="621"/>
  <unicode hex="016E"/>
  <outline>
    <contour>
      <point x="112" y="516" type="move"/>
      <point x="112" y="205" type="line" smooth="yes"/>
      <point x="112" y="72"/>
      <point x="193" y="-3"/>
      <point x="308" y="-3" type="curve" smooth="yes"/>
      <point x="437" y="-3"/>
      <point x="509" y="72"/>
      <point x="509" y="208" type="curve" smooth="yes"/>
      <point x="509" y="516" type="line"/>
    </contour>
    <contour>
      <point x="397" y="629" type="curve" smooth="yes"/>
      <point x="397" y="672"/>
      <point x="364" y="711"/>
      <point x="309" y="711" type="curve" smooth="yes"/>
      <point x="257" y="711"/>
      <point x="225" y="669"/>
      <point x="225" y="629" type="curve" smooth="yes"/>
      <point x="225" y="589"/>
      <point x="257" y="547"/>
      <point x="309" y="547" type="curve" smooth="yes"/>
      <point x="364" y="547"/>
      <point x="397" y="586"/>
    </contour>
  </outline>
</glyph>
<glyph name="uring" format="1">
  <advance width="501"/>
  <unicode hex="016F"/>
  <outline>
    <contour>
      <point x="390" y="368" type="move"/>
      <point x="390" y="9" type="line"/>
    </contour>
    <contour>
      <point x="101" y="368" type="move"/>
      <point x="101" y="158" type="line" smooth="yes"/>
      <point x="101" y="48"/>
      <point x="149" y="9"/>
      <point x="214" y="9" type="curve" smooth="yes"/>
      <point x="277" y="9"/>
      <point x="344" y="60"/>
      <point x="386" y="121" type="curve"/>
    </contour>
    <contour>
      <point x="331" y="519" type="curve" smooth="yes"/>
      <point x="331" y="562"/>
      <point x="299" y="601"/>
      <point x="244" y="601" type="curve" smooth="yes"/>
      <point x="192" y="601"/>
      <point x="159" y="559"/>
      <point x="159" y="519" type="curve" smooth="yes"/>
      <point x="159" y="479"/>
      <point x="192" y="437"/>
      <point x="244" y="437" type="curve" smooth="yes"/>
      <point x="299" y="437"/>
      <point x="331" y="476"/>
    </contour>
  </outline>
</glyph>
<glyph name="Uhungarumlaut" format="1">
  <advance width="621"/>
  <unicode hex="0170"/>
  <outline>
    <contour>
      <point x="112" y="515" type="move"/>
      <point x="112" y="204" type="line" smooth="yes"/>
      <point x="112" y="70"/>
      <point x="193" y="-4"/>
      <point x="308" y="-4" type="curve" smooth="yes"/>
      <point x="437" y="-4"/>
      <point x="509" y="70"/>
      <point x="509" y="207" type="curve" smooth="yes"/>
      <point x="509" y="515" type="line"/>
    </contour>
    <contour>
      <point x="256" y="757" type="move"/>
      <point x="234" y="720"/>
      <point x="219" y="689"/>
      <point x="206" y="657" type="curve"/>
    </contour>
    <contour>
      <point x="463" y="757" type="move"/>
      <point x="441" y="720"/>
      <point x="425" y="689"/>
      <point x="414" y="657" type="curve"/>
    </contour>
  </outline>
</glyph>
<glyph name="uhungarumlaut" format="1">
  <advance width="501"/>
  <unicode hex="0171"/>
  <outline>
    <contour>
      <point x="390" y="368" type="move"/>
      <point x="390" y="9" type="line"/>
    </contour>
    <contour>
      <point x="101" y="368" type="move"/>
      <point x="101" y="158" type="line" smooth="yes"/>
      <point x="101" y="48"/>
      <point x="149" y="9"/>
      <point x="214" y="9" type="curve" smooth="yes"/>
      <point x="277" y="9"/>
      <point x="344" y="60"/>
      <point x="386" y="121" type="curve"/>
    </contour>
    <contour>
      <point x="212" y="604" type="move"/>
      <point x="189" y="567"/>
      <point x="175" y="536"/>
      <point x="162" y="504" type="curve"/>
    </contour>
    <contour>
      <point x="378" y="604" type="move"/>
      <point x="356" y="567"/>
      <point x="341" y="536"/>
      <point x="328" y="504" type="curve"/>
    </contour>
  </outline>
</glyph>
<glyph name="Uogonek" format="1">
  <advance width="621"/>
  <unicode hex="0172"/>
  <outline>
    <contour>
      <point x="112" y="526" type="move"/>
      <point x="112" y="215" type="line" smooth="yes"/>
      <point x="112" y="82"/>
      <point x="193" y="7"/>
      <point x="308" y="7" type="curve" smooth="yes"/>
      <point x="437" y="7"/>
      <point x="509" y="82"/>
      <point x="509" y="218" type="curve" smooth="yes"/>
      <point x="509" y="526" type="line"/>
    </contour>
    <contour>
      <point x="330" y="8" type="move"/>
      <point x="330" y="-29" type="line"/>
      <point x="244" y="-102"/>
      <point x="227" y="-131"/>
      <point x="227" y="-160" type="curve" smooth="yes"/>
      <point x="227" y="-197"/>
      <point x="267" y="-223"/>
      <point x="346" y="-223" type="curve"/>
    </contour>
  </outline>
</glyph>
<glyph name="uogonek" format="1">
  <advance width="501"/>
  <unicode hex="0173"/>
  <outline>
    <contour>
      <point x="390" y="379" type="move"/>
      <point x="390" y="20" type="line"/>
    </contour>
    <contour>
      <point x="101" y="379" type="move"/>
      <point x="101" y="169" type="line" smooth="yes"/>
      <point x="101" y="59"/>
      <point x="149" y="20"/>
      <point x="214" y="20" type="curve" smooth="yes"/>
      <point x="277" y="20"/>
      <point x="344" y="71"/>
      <point x="386" y="132" type="curve"/>
    </contour>
    <contour>
      <point x="390" y="21" type="move"/>
      <point x="390" y="-16" type="line"/>
      <point x="303" y="-89"/>
      <point x="286" y="-119"/>
      <point x="286" y="-147" type="curve" smooth="yes"/>
      <point x="286" y="-184"/>
      <point x="326" y="-210"/>
      <point x="405" y="-210" type="curve"/>
    </contour>
  </outline>
</glyph>
<glyph name="Ydieresis" format="1">
  <advance width="564"/>
  <unicode hex="0178"/>
  <outline>
    <contour>
      <point x="284" y="183" type="move"/>
      <point x="284" y="6" type="line"/>
    </contour>
    <contour>
      <point x="75" y="515" type="move"/>
      <point x="117" y="442"/>
      <point x="238" y="255"/>
      <point x="281" y="195" type="curve"/>
    </contour>
    <contour>
      <point x="284" y="189" type="move"/>
      <point x="334" y="258"/>
      <point x="448" y="443"/>
      <point x="490" y="515" type="curve"/>
    </contour>
    <contour>
      <point x="188" y="713" type="curve" smooth="yes"/>
      <point x="178" y="713"/>
      <point x="170" y="699"/>
      <point x="170" y="686" type="curve" smooth="yes"/>
      <point x="170" y="671"/>
      <point x="178" y="658"/>
      <point x="188" y="658" type="curve" smooth="yes"/>
      <point x="199" y="658"/>
      <point x="204" y="671"/>
      <point x="204" y="686" type="curve" smooth="yes"/>
      <point x="204" y="699"/>
      <point x="199" y="713"/>
    </contour>
    <contour>
      <point x="383" y="713" type="curve" smooth="yes"/>
      <point x="372" y="713"/>
      <point x="366" y="699"/>
      <point x="366" y="686" type="curve" smooth="yes"/>
      <point x="366" y="671"/>
      <point x="372" y="658"/>
      <point x="383" y="658" type="curve" smooth="yes"/>
      <point x="394" y="658"/>
      <point x="399" y="671"/>
      <point x="399" y="686" type="curve" smooth="yes"/>
      <point x="399" y="699"/>
      <point x="394" y="713"/>
    </contour>
  </outline>
</glyph>
<glyph name="Zacute" format="1">
  <advance width="567"/>
  <unicode hex="0179"/>
  <outline>
    <contour>
      <point x="466" y="515" type="move"/>
      <point x="402" y="415"/>
      <point x="147" y="100"/>
      <point x="94" y="14" type="curve"/>
    </contour>
    <contour>
      <point x="103" y="515" type="move"/>
      <point x="455" y="515" type="line"/>
    </contour>
    <contour>
      <point x="89" y="5" type="move"/>
      <point x="478" y="5" type="line"/>
    </contour>
    <contour>
      <point x="416" y="743" type="move"/>
      <point x="369" y="714"/>
      <point x="321" y="682"/>
      <point x="291" y="660" type="curve"/>
    </contour>
  </outline>
</glyph>
<glyph name="zacute" format="1">
  <advance width="447"/>
  <unicode hex="017A"/>
  <outline>
    <contour>
      <point x="358" y="368" type="move"/>
      <point x="86" y="368" type="line"/>
    </contour>
    <contour>
      <point x="72" y="9" type="move"/>
      <point x="375" y="9" type="line"/>
    </contour>
    <contour>
      <point x="364" y="368" type="move"/>
      <point x="78" y="17" type="line"/>
    </contour>
    <contour>
      <point x="296" y="611" type="move"/>
      <point x="267" y="579"/>
      <point x="240" y="545"/>
      <point x="214" y="513" type="curve"/>
    </contour>
  </outline>
</glyph>
<glyph name="Zdotaccent" format="1">
  <advance width="567"/>
  <unicode hex="017B"/>
  <outline>
    <contour>
      <point x="466" y="515" type="move"/>
      <point x="402" y="415"/>
      <point x="147" y="100"/>
      <point x="94" y="14" type="curve"/>
    </contour>
    <contour>
      <point x="103" y="515" type="move"/>
      <point x="455" y="515" type="line"/>
    </contour>
    <contour>
      <point x="89" y="6" type="move"/>
      <point x="478" y="6" type="line"/>
    </contour>
    <contour>
      <point x="287" y="732" type="curve" smooth="yes"/>
      <point x="275" y="732"/>
      <point x="266" y="718"/>
      <point x="266" y="703" type="curve" smooth="yes"/>
      <point x="266" y="689"/>
      <point x="275" y="677"/>
      <point x="287" y="677" type="curve" smooth="yes"/>
      <point x="299" y="677"/>
      <point x="305" y="689"/>
      <point x="305" y="703" type="curve" smooth="yes"/>
      <point x="305" y="718"/>
      <point x="299" y="732"/>
    </contour>
  </outline>
</glyph>
<glyph name="zdotaccent" format="1">
  <advance width="447"/>
  <unicode hex="017C"/>
  <outline>
    <contour>
      <point x="358" y="368" type="move"/>
      <point x="86" y="368" type="line"/>
    </contour>
    <contour>
      <point x="72" y="9" type="move"/>
      <point x="375" y="9" type="line"/>
    </contour>
    <contour>
      <point x="364" y="368" type="move"/>
      <point x="78" y="18" type="line"/>
    </contour>
    <contour>
      <point x="222" y="586" type="curve" smooth="yes"/>
      <point x="209" y="586"/>
      <point x="203" y="572"/>
      <point x="203" y="558" type="curve" smooth="yes"/>
      <point x="203" y="545"/>
      <point x="209" y="533"/>
      <point x="222" y="533" type="curve" smooth="yes"/>
      <point x="233" y="533"/>
      <point x="239" y="545"/>
      <point x="239" y="558" type="curve" smooth="yes"/>
      <point x="239" y="572"/>
      <point x="233" y="586"/>
    </contour>
  </outline>
</glyph>
<glyph name="Zcaron" format="1">
  <advance width="567"/>
  <unicode hex="017D"/>
  <outline>
    <contour>
      <point x="466" y="515" type="move"/>
      <point x="402" y="415"/>
      <point x="147" y="100"/>
      <point x="94" y="14" type="curve"/>
    </contour>
    <contour>
      <point x="103" y="515" type="move"/>
      <point x="455" y="515" type="line"/>
    </contour>
    <contour>
      <point x="89" y="5" type="move"/>
      <point x="478" y="5" type="line"/>
    </contour>
    <contour>
      <point x="296" y="668" type="move"/>
      <point x="328" y="693"/>
      <point x="364" y="718"/>
      <point x="392" y="741" type="curve"/>
    </contour>
    <contour>
      <point x="192" y="741" type="move"/>
      <point x="220" y="718"/>
      <point x="254" y="693"/>
      <point x="288" y="668" type="curve"/>
    </contour>
  </outline>
</glyph>
<glyph name="zcaron" format="1">
  <advance width="447"/>
  <unicode hex="017E"/>
  <outline>
    <contour>
      <point x="358" y="368" type="move"/>
      <point x="86" y="368" type="line"/>
    </contour>
    <contour>
      <point x="72" y="9" type="move"/>
      <point x="375" y="9" type="line"/>
    </contour>
    <contour>
      <point x="364" y="368" type="move"/>
      <point x="78" y="17" type="line"/>
    </contour>
    <contour>
      <point x="123" y="602" type="move"/>
      <point x="149" y="575"/>
      <point x="185" y="536"/>
      <point x="209" y="511" type="curve"/>
    </contour>
    <contour>
      <point x="216" y="511" type="move"/>
      <point x="239" y="535"/>
      <point x="276" y="575"/>
      <point x="302" y="602" type="curve"/>
    </contour>
  </outline>
</glyph>
<glyph name="uni021A" format="1">
  <advance width="552.0"/>
  <unicode hex="021A"/>
  <outline>
    <contour>
      <point x="274" y="526" type="move"/>
      <point x="274" y="17" type="line"/>
    </contour>
    <contour>
      <point x="60" y="526" type="move"/>
      <point x="491" y="526" type="line"/>
    </contour>
    <contour>
      <point x="270" y="-136" type="move"/>
      <point x="243" y="-164"/>
      <point x="192" y="-217"/>
      <point x="168" y="-241" type="curve"/>
    </contour>
  </outline>
</glyph>
<glyph name="uni021B" format="1">
  <advance width="357"/>
  <unicode hex="021B"/>
  <outline>
    <contour>
      <point x="135" y="509" type="move"/>
      <point x="135" y="140" type="line" smooth="yes"/>
      <point x="135" y="63"/>
      <point x="180" y="20"/>
      <point x="281" y="17" type="curve"/>
    </contour>
    <contour>
      <point x="46" y="377" type="move"/>
      <point x="295" y="377" type="line"/>
    </contour>
    <contour>
      <point x="209" y="-136" type="move"/>
      <point x="182" y="-163"/>
      <point x="132" y="-217"/>
      <point x="108" y="-241" type="curve"/>
    </contour>
  </outline>
</glyph>
<glyph name="caron" format="1">
  <advance width="494"/>
  <unicode hex="02C7"/>
  <outline>
    <contour>
      <point x="156" y="590" type="move"/>
      <point x="181" y="563"/>
      <point x="218" y="524"/>
      <point x="242" y="499" type="curve"/>
    </contour>
    <contour>
      <point x="248" y="499" type="move"/>
      <point x="271" y="523"/>
      <point x="308" y="563"/>
      <point x="335" y="590" type="curve"/>
    </contour>
  </outline>
</glyph>
<glyph name="breve" format="1">
  <advance width="494"/>
  <unicode hex="02D8"/>
  <outline>
    <contour>
      <point x="146" y="579" type="move"/>
      <point x="170" y="541"/>
      <point x="206" y="514"/>
      <point x="249" y="514" type="curve" smooth="yes"/>
      <point x="297" y="514"/>
      <point x="325" y="540"/>
      <point x="348" y="579" type="curve"/>
    </contour>
  </outline>
</glyph>
<glyph name="dotaccent" format="1">
  <advance width="494"/>
  <unicode hex="02D9"/>
  <outline>
    <contour>
      <point x="238" y="573" type="curve" smooth="yes"/>
      <point x="226" y="573"/>
      <point x="219" y="560"/>
      <point x="219" y="546" type="curve" smooth="yes"/>
      <point x="219" y="532"/>
      <point x="226" y="521"/>
      <point x="238" y="521" type="curve" smooth="yes"/>
      <point x="249" y="521"/>
      <point x="255" y="532"/>
      <point x="255" y="546" type="curve" smooth="yes"/>
      <point x="255" y="560"/>
      <point x="249" y="573"/>
    </contour>
  </outline>
</glyph>
<glyph name="ring" format="1">
  <advance width="494"/>
  <unicode hex="02DA"/>
  <outline>
    <contour>
      <point x="333" y="546" type="curve" smooth="yes"/>
      <point x="333" y="586"/>
      <point x="302" y="623"/>
      <point x="252" y="623" type="curve" smooth="yes"/>
      <point x="204" y="623"/>
      <point x="174" y="584"/>
      <point x="174" y="546" type="curve" smooth="yes"/>
      <point x="174" y="508"/>
      <point x="204" y="469"/>
      <point x="252" y="469" type="curve" smooth="yes"/>
      <point x="302" y="469"/>
      <point x="333" y="506"/>
    </contour>
  </outline>
</glyph>
<glyph name="ogonek" format="1">
  <advance width="494"/>
  <unicode hex="02DB"/>
  <outline>
    <contour>
      <point x="270" y="24" type="move"/>
      <point x="270" y="-12" type="line"/>
      <point x="183" y="-86"/>
      <point x="166" y="-115"/>
      <point x="166" y="-144" type="curve" smooth="yes"/>
      <point x="166" y="-180"/>
      <point x="206" y="-207"/>
      <point x="285" y="-207" type="curve"/>
    </contour>
  </outline>
</glyph>
<glyph name="tilde" format="1">
  <advance width="494"/>
  <unicode hex="02DC"/>
  <outline>
    <contour>
      <point x="136" y="519" type="move"/>
      <point x="156" y="548"/>
      <point x="177" y="569"/>
      <point x="197" y="569" type="curve" smooth="yes"/>
      <point x="215" y="569"/>
      <point x="227" y="559"/>
      <point x="249" y="541" type="curve" smooth="yes"/>
      <point x="269" y="525"/>
      <point x="284" y="515"/>
      <point x="301" y="515" type="curve" smooth="yes"/>
      <point x="323" y="515"/>
      <point x="339" y="534"/>
      <point x="359" y="565" type="curve"/>
    </contour>
  </outline>
</glyph>
<glyph name="hungarumlaut" format="1">
  <advance width="494"/>
  <unicode hex="02DD"/>
  <outline>
    <contour>
      <point x="186" y="592" type="move"/>
      <point x="164" y="556"/>
      <point x="149" y="524"/>
      <point x="137" y="493" type="curve"/>
    </contour>
    <contour>
      <point x="353" y="592" type="move"/>
      <point x="330" y="556"/>
      <point x="316" y="524"/>
      <point x="303" y="493" type="curve"/>
    </contour>
  </outline>
</glyph>
<glyph name="pi" format="1">
  <advance width="638"/>
  <unicode hex="03C0"/>
  <outline>
    <contour>
      <point x="442" y="407" type="move"/>
      <point x="442" y="13" type="line"/>
    </contour>
    <contour>
      <point x="92" y="413" type="move"/>
      <point x="545" y="413" type="line"/>
    </contour>
    <contour>
      <point x="200" y="407" type="move"/>
      <point x="200" y="219" type="line" smooth="yes"/>
      <point x="200" y="98"/>
      <point x="174" y="48"/>
      <point x="119" y="13" type="curve"/>
    </contour>
  </outline>
</glyph>
<glyph name="quoteright" format="1">
  <advance width="247"/>
  <unicode hex="2019"/>
  <outline>
    <contour>
      <point x="125" y="572" type="move"/>
      <point x="129" y="560"/>
      <point x="132" y="541"/>
      <point x="132" y="521" type="curve" smooth="yes"/>
      <point x="132" y="473"/>
      <point x="116" y="424"/>
      <point x="89" y="388" type="curve"/>
    </contour>
  </outline>
</glyph>
<glyph name="quotesinglbase" format="1">
  <advance width="247"/>
  <unicode hex="201A"/>
  <outline>
    <contour>
      <point x="125" y="79" type="move"/>
      <point x="129" y="67"/>
      <point x="132" y="48"/>
      <point x="132" y="28" type="curve" smooth="yes"/>
      <point x="132" y="-20"/>
      <point x="116" y="-69"/>
      <point x="89" y="-105" type="curve" smooth="yes"/>
    </contour>
  </outline>
</glyph>
<glyph name="quotedblleft" format="1">
  <advance width="409"/>
  <unicode hex="201C"/>
  <outline>
    <contour>
      <point x="158" y="388" type="move" smooth="yes"/>
      <point x="132" y="423"/>
      <point x="116" y="471"/>
      <point x="116" y="512" type="curve" smooth="yes"/>
      <point x="116" y="537"/>
      <point x="118" y="555"/>
      <point x="122" y="571" type="curve"/>
    </contour>
    <contour>
      <point x="320" y="388" type="move" smooth="yes"/>
      <point x="294" y="423"/>
      <point x="277" y="471"/>
      <point x="277" y="512" type="curve" smooth="yes"/>
      <point x="277" y="537"/>
      <point x="279" y="555"/>
      <point x="283" y="571" type="curve"/>
    </contour>
  </outline>
</glyph>
<glyph name="quotedblright" format="1">
  <advance width="409"/>
  <unicode hex="201D"/>
  <outline>
    <contour>
      <point x="287" y="571" type="move"/>
      <point x="291" y="555"/>
      <point x="294" y="537"/>
      <point x="294" y="512" type="curve" smooth="yes"/>
      <point x="294" y="471"/>
      <point x="277" y="423"/>
      <point x="251" y="388" type="curve" smooth="yes"/>
    </contour>
    <contour>
      <point x="126" y="571" type="move"/>
      <point x="130" y="555"/>
      <point x="132" y="537"/>
      <point x="132" y="512" type="curve" smooth="yes"/>
      <point x="132" y="471"/>
      <point x="116" y="423"/>
      <point x="89" y="388" type="curve" smooth="yes"/>
    </contour>
  </outline>
</glyph>
<glyph name="quotedblbase" format="1">
  <advance width="409"/>
  <unicode hex="201E"/>
  <outline>
    <contour>
      <point x="287" y="81" type="move"/>
      <point x="291" y="65"/>
      <point x="294" y="47"/>
      <point x="294" y="22" type="curve" smooth="yes"/>
      <point x="294" y="-19"/>
      <point x="277" y="-67"/>
      <point x="251" y="-102" type="curve" smooth="yes"/>
    </contour>
    <contour>
      <point x="126" y="81" type="move"/>
      <point x="130" y="65"/>
      <point x="132" y="47"/>
      <point x="132" y="22" type="curve" smooth="yes"/>
      <point x="132" y="-19"/>
      <point x="116" y="-67"/>
      <point x="89" y="-102" type="curve" smooth="yes"/>
    </contour>
  </outline>
</glyph>
<glyph name="daggerdbl" format="1">
  <advance width="496"/>
  <unicode hex="2021"/>
  <outline>
    <contour>
      <point x="248" y="520" type="move"/>
      <point x="248" y="11" type="line"/>
    </contour>
    <contour>
      <point x="96" y="386" type="move"/>
      <point x="400" y="386" type="line"/>
    </contour>
    <contour>
      <point x="96" y="178" type="move"/>
      <point x="400" y="178" type="line"/>
    </contour>
  </outline>
</glyph>
<glyph name="bullet" format="1">
  <advance width="525"/>
  <unicode hex="2022"/>
  <outline>
    <contour>
      <point x="262" y="345" type="curve" smooth="yes"/>
      <point x="200" y="345"/>
      <point x="156" y="291"/>
      <point x="156" y="237" type="curve" smooth="yes"/>
      <point x="156" y="176"/>
      <point x="203" y="129"/>
      <point x="262" y="129" type="curve" smooth="yes"/>
      <point x="324" y="129"/>
      <point x="368" y="177"/>
      <point x="368" y="236" type="curve" smooth="yes"/>
      <point x="368" y="291"/>
      <point x="328" y="345"/>
    </contour>
    <contour>
      <point x="263" y="283" type="curve" smooth="yes"/>
      <point x="237" y="283"/>
      <point x="218" y="261"/>
      <point x="218" y="239" type="curve" smooth="yes"/>
      <point x="218" y="212"/>
      <point x="238" y="192"/>
      <point x="263" y="192" type="curve" smooth="yes"/>
      <point x="288" y="192"/>
      <point x="307" y="212"/>
      <point x="307" y="237" type="curve" smooth="yes"/>
      <point x="307" y="261"/>
      <point x="293" y="283"/>
    </contour>
  </outline>
</glyph>
<glyph name="ellipsis" format="1">
  <advance width="697"/>
  <unicode hex="2026"/>
  <outline>
    <contour>
      <point x="114" y="77" type="curve" smooth="yes"/>
      <point x="99" y="77"/>
      <point x="94" y="62"/>
      <point x="94" y="47" type="curve" smooth="yes"/>
      <point x="94" y="29"/>
      <point x="103" y="17"/>
      <point x="115" y="17" type="curve" smooth="yes"/>
      <point x="129" y="17"/>
      <point x="135" y="29"/>
      <point x="135" y="47" type="curve" smooth="yes"/>
      <point x="135" y="62"/>
      <point x="128" y="77"/>
    </contour>
    <contour>
      <point x="348" y="77" type="curve" smooth="yes"/>
      <point x="333" y="77"/>
      <point x="327" y="62"/>
      <point x="327" y="47" type="curve" smooth="yes"/>
      <point x="327" y="29"/>
      <point x="337" y="17"/>
      <point x="348" y="17" type="curve" smooth="yes"/>
      <point x="363" y="17"/>
      <point x="369" y="29"/>
      <point x="369" y="47" type="curve" smooth="yes"/>
      <point x="369" y="62"/>
      <point x="362" y="77"/>
    </contour>
    <contour>
      <point x="583" y="77" type="curve" smooth="yes"/>
      <point x="567" y="77"/>
      <point x="563" y="62"/>
      <point x="563" y="47" type="curve" smooth="yes"/>
      <point x="563" y="29"/>
      <point x="571" y="17"/>
      <point x="584" y="17" type="curve" smooth="yes"/>
      <point x="598" y="17"/>
      <point x="604" y="29"/>
      <point x="604" y="47" type="curve" smooth="yes"/>
      <point x="604" y="62"/>
      <point x="597" y="77"/>
    </contour>
  </outline>
</glyph>
